<?xml version="1.0" encoding="UTF-8"?>
<svg width="30px" height="28px" viewBox="0 0 30 28" version="1.1" xmlns="http://www.w3.org/2000/svg" xmlns:xlink="http://www.w3.org/1999/xlink">
    <!-- Generator: Sketch 59.1 (86144) - https://sketch.com -->
    <title>Fill 1</title>
    <desc>Created with Sketch.</desc>
    <g id="Maquettes-2.0" stroke="none" stroke-width="1" fill="none" fill-rule="evenodd">
        <g id="Accueil---Alertes-01" transform="translate(-24.000000, -420.000000)" fill="#FE8A8A">
            <g id="Group-17" transform="translate(16.000000, 386.000000)">
                <g id="Group-3" transform="translate(6.000000, 34.000000)">
                    <path d="M17.3059908,18.6738871 C14.1096637,19.2057885 11.3855213,16.440954 11.9101133,13.1968816 C12.2276705,11.2325325 13.7889932,9.64788733 15.7244316,9.32611326 C18.9202398,8.79421176 21.6443822,11.5590463 21.1203091,14.8025921 C20.8022331,16.7674678 19.2409103,18.3515863 17.3059908,18.6738871 M9.98644261,0.965517241 C9.45491303,0.965517241 8.96374033,1.25428117 8.69797554,1.72352255 L2.16902056,13.2419947 C1.90325577,13.7112361 1.90325577,14.2887639 2.16902056,14.7580053 L8.69797554,26.2764775 C8.96374033,26.7457188 9.45491303,27.0344828 9.98644261,27.0344828 L23.0438604,27.0344828 C23.57539,27.0344828 24.0665627,26.7457188 24.3323275,26.2764775 L30.8612825,14.7580053 C31.1270473,14.2887639 31.1270473,13.7112361 30.8612825,13.2419947 L24.3323275,1.72352255 C24.0665627,1.25428117 23.57539,0.965517241 23.0438604,0.965517241 L9.98644261,0.965517241 Z" id="Fill-1"></path>
                </g>
            </g>
        </g>
    </g>
</svg>