<?xml version="1.0" encoding="UTF-8"?>
<svg width="27px" height="36px" viewBox="0 0 27 36" version="1.1" xmlns="http://www.w3.org/2000/svg" xmlns:xlink="http://www.w3.org/1999/xlink">
    <!-- Generator: Sketch 59.1 (86144) - https://sketch.com -->
    <title>Group 3</title>
    <desc>Created with Sketch.</desc>
    <g id="Maquettes-2.0" stroke="none" stroke-width="1" fill="none" fill-rule="evenodd">
        <g id="Suivi-santé" transform="translate(-24.000000, -408.000000)">
            <g id="Group-3" transform="translate(25.000000, 408.000000)">
                <path d="M10.8277745,35 C8.70152837,34.9939746 6.9698358,33.2642236 6.9637883,31.1439162 L6.9637883,27.9703476 L3.8731491,27.9703476 C1.74488711,27.9643222 0.00897962176,26.2414183 0,24.1295099 L0,20.8795282 C0.00604750037,18.7610466 1.74186336,17.0355865 3.86957558,17.0296524 L7.05541709,17.0296524 L7.05541709,13.8590053 C7.06137297,11.7370545 8.77922959,10.0075774 10.8849509,10 L14.1087267,10 C16.2195792,10.0059341 17.938627,11.7355025 17.9445829,13.8554448 L17.9445829,17.0296524 L21.1280421,17.0296524 L21.1325319,17.0296524 C23.2574952,17.0370472 24.9924864,18.7612292 25,20.8732289 L25,24.1204718 C24.9939525,26.2389534 23.2578618,27.9643222 21.129783,27.9703476 L17.9445829,27.9703476 L17.9445829,31.1421816 C17.937161,33.262489 16.2078508,34.9910532 14.0896679,35 L10.8277745,35 Z M8.12011253,25.5078008 C8.84425392,25.5078008 9.43125304,26.0921092 9.43125304,26.8129313 L9.43125304,31.3736686 C9.43332524,32.1163366 10.0404813,32.72521 10.7846854,32.7272727 L14.1285646,32.7272727 C14.8656102,32.7241787 15.4719185,32.1157741 15.4745558,31.3709496 L15.4745558,26.8129313 C15.4745558,26.0921092 16.0615549,25.5078008 16.7856963,25.5078008 L21.3674354,25.5078008 C22.1135233,25.5057381 22.7252005,24.9013651 22.7272727,24.1605723 L22.7272727,20.8338959 C22.7246354,20.0993849 22.1144652,19.4958558 21.3667761,19.4921992 L16.7856963,19.4921992 C16.0615549,19.4921992 15.4745558,18.9078908 15.4745558,18.1870687 L15.4745558,13.6256751 C15.4724836,12.8833821 14.878326,12.27479 14.1500402,12.2727273 L10.8444025,12.2727273 C10.1212972,12.2753525 9.52751637,12.8838509 9.52544416,13.6292379 L9.52544416,18.1870687 C9.52544416,18.9078908 8.93844505,19.4921992 8.21430366,19.4921992 L3.63190526,19.4921992 C2.88619409,19.4942619 2.27479948,20.0986349 2.27272727,20.8394277 L2.27272727,24.1679793 C2.27583558,24.902209 2.88723019,25.5057381 3.63557871,25.5078008 L8.12011253,25.5078008 Z" id="Fill-1" stroke="#2D3953" fill="#2D3953"></path>
                <path d="M12.9870636,6.96550987 C14.9009447,6.69653197 16.2344878,4.92681761 15.9655099,3.01293643 C15.696532,1.09905525 13.9268176,-0.234487762 12.0129364,0.0344901335 C10.0990553,0.303468029 8.76551224,2.07318239 9.03449013,3.98706357 C9.30346803,5.90094475 11.0731824,7.23448776 12.9870636,6.96550987" id="Fill-3-Copy" fill="#37AA85"></path>
            </g>
        </g>
    </g>
</svg>