<svg xmlns="http://www.w3.org/2000/svg" xmlns:xlink="http://www.w3.org/1999/xlink" width="23" height="20" viewBox="0 0 23 20">
    <defs>
        <path id="prefix__a" d="M0 0L22.609 0 22.609 20 0 20z"/>
    </defs>
    <g fill="none" fill-rule="evenodd">
        <mask id="prefix__b" fill="#fff">
            <use xlink:href="#prefix__a"/>
        </mask>
        <path fill="#FE8A8A" d="M12.684 6.93l-.452 5.328c-.047.502-.5.884-.999.836-.452-.047-.809-.406-.833-.836L9.948 6.93c-.071-.765.5-1.434 1.261-1.506.762-.072 1.428.502 1.5 1.267-.025.071-.025.167-.025.239m-1.38 9.82c-.713 0-1.284-.573-1.284-1.29 0-.717.57-1.29 1.284-1.29.714 0 1.285.573 1.285 1.29 0 .717-.57 1.29-1.285 1.29m10.873-1.386L13.921 1.481C13.374.55 12.4 0 11.304 0c-1.094 0-2.07.55-2.617 1.481L.431 15.364c-.57.956-.57 2.103-.024 3.083C.955 19.427 1.954 20 3.048 20H19.56c1.119 0 2.094-.573 2.641-1.553.547-.98.547-2.127-.024-3.083" mask="url(#prefix__b)"/>
    </g>
</svg>
