<?xml version="1.0" encoding="UTF-8"?>
<svg width="21px" height="20px" viewBox="0 0 21 20" version="1.1" xmlns="http://www.w3.org/2000/svg" xmlns:xlink="http://www.w3.org/1999/xlink">
    <!-- Generator: Sketch 59.1 (86144) - https://sketch.com -->
    <title>Fill 1 Copy 2</title>
    <desc>Created with Sketch.</desc>
    <g id="Consentement-:-Age-under-19" stroke="none" stroke-width="1" fill="none" fill-rule="evenodd">
        <g id="9B---EN-Copy-7" transform="translate(-26.000000, -26.000000)" fill="#2D3953" stroke="#2D3953" stroke-width="1.5">
            <path d="M29.881882,35.1615623 L36.6729102,28.4314228 C37.0028182,28.1035936 37.0028182,27.5728626 36.6729102,27.2458719 C36.3421563,26.9180427 35.8066904,26.9180427 35.4767824,27.2458719 L27.2417725,35.4072245 C27.1715613,35.4793302 27.1148848,35.563174 27.0751267,35.6562405 C27.0632839,35.6830705 27.0539788,35.710739 27.0455196,35.7384074 C26.9829217,35.91951 26.9846135,36.1165428 27.0522869,36.2959685 C27.0548247,36.302676 27.0548247,36.3110604 27.0573624,36.3177679 C27.0988124,36.4125114 27.154643,36.4955167 27.2248542,36.5676223 C27.2324674,36.5751683 27.2341593,36.5852295 27.2417725,36.5927755 L35.4767824,44.7541281 C35.8066904,45.0819573 36.3421563,45.0819573 36.6729102,44.7541281 C37.0028182,44.4271374 37.0028182,43.8964064 36.6729102,43.5685772 L29.881882,36.8384377 L45.1540822,36.8384377 C45.6218747,36.8384377 46,36.4628176 46,36 C46,35.5371824 45.6218747,35.1615623 45.1540822,35.1615623 L29.881882,35.1615623 Z" id="Fill-1-Copy-2"></path>
        </g>
    </g>
</svg>