<?xml version="1.0" encoding="UTF-8"?>
<svg width="56px" height="47px" viewBox="0 0 56 47" version="1.1" xmlns="http://www.w3.org/2000/svg" xmlns:xlink="http://www.w3.org/1999/xlink">
    <!-- Generator: Sketch 59.1 (86144) - https://sketch.com -->
    <title>Group 8</title>
    <desc>Created with Sketch.</desc>
    <defs>
        <polygon id="path-1" points="0.659256058 0.184168218 22.3238 0.184168218 22.3238 39.719969 0.659256058 39.719969"></polygon>
    </defs>
    <g id="Maquettes-graphiques" stroke="none" stroke-width="1" fill="none" fill-rule="evenodd">
        <g id="7A---EN" transform="translate(-248.000000, -1758.000000)">
            <g id="Group-5" transform="translate(16.000000, 1648.000000)">
                <g id="Group-16" transform="translate(-1.000000, -30.000000)">
                    <g id="Group-8" transform="translate(233.000000, 140.000000)">
                        <path d="M5.04806202,51 C2.2602584,51 0,48.7502829 0,45.975481 C0,31.8445869 4.91162791,15 28.3146253,15 L49.950801,15 C52.7386047,15 55,17.2497171 55,20.024519 C55,22.8004527 52.7386047,25.0501697 49.950801,25.0501697 L28.3146253,25.0501697 C15.3749871,25.0501697 10.096124,31.1124104 10.096124,45.975481 C10.096124,48.7502829 7.83586563,51 5.04806202,51" id="Fill-3" fill="#2E4E9E"></path>
                        <g id="Group-13" transform="translate(35.000000, 0.000000)">
                            <mask id="mask-2" fill="white">
                                <use xlink:href="#path-1"></use>
                            </mask>
                            <g id="Clip-12"></g>
                            <path d="M6.10167,39.719969 C5.00687,39.719969 3.90517,39.373199 2.97367,38.6591938 C0.74612,36.9492196 0.34132,33.7771266 2.07092,31.5748527 L10.80977,20.4463773 L1.66267,8.23779845 C-0.01633,5.99686822 0.46092,2.8361447 2.72642,1.17619638 C4.99192,-0.483751938 8.19122,-0.0119173127 9.86907,2.22787597 L21.32077,17.5130439 C22.68352,19.3321654 22.65592,21.8254987 21.25177,23.6127855 L10.13932,37.7666873 C9.13307,39.048031 7.62427,39.719969 6.10167,39.719969" id="Fill-11" fill="#2E4E9E" mask="url(#mask-2)"></path>
                        </g>
                    </g>
                </g>
            </g>
        </g>
    </g>
</svg>