<svg xmlns="http://www.w3.org/2000/svg" width="58" height="32" viewBox="0 0 58 32">
    <g fill="none" fill-rule="evenodd">
        <path fill="#FE8A8A" d="M14.025 31.04c-1.338-1.309-1.37-3.46-.07-4.807C17.835 22.214 23 20 28.5 20s10.666 2.213 14.546 6.232c1.3 1.347 1.27 3.5-.07 4.807-1.337 1.308-3.477 1.277-4.778-.07-2.596-2.69-6.04-4.17-9.698-4.17-3.657 0-7.1 1.48-9.696 4.169-.662.687-1.543 1.031-2.424 1.031-.849 0-1.698-.319-2.354-.96z"/>
        <path fill="#37AA85" d="M47.577 25c-.871 0-1.742-.338-2.41-1.015-9.19-9.317-24.144-9.317-33.334 0-1.343 1.362-3.51 1.352-4.841-.023-1.331-1.374-1.321-3.591.022-4.953 11.848-12.012 31.124-12.012 42.972 0 1.343 1.362 1.353 3.58.022 4.953-.669.692-1.55 1.038-2.431 1.038"/>
        <path fill="#FEC63B" d="M3.397 17c-.877 0-1.753-.332-2.418-.996-1.318-1.316-1.303-3.435.032-4.734 15.44-15.016 40.553-15.028 55.978-.028 1.335 1.298 1.35 3.418.032 4.734-1.317 1.316-3.468 1.33-4.804.031-12.794-12.441-33.624-12.429-46.434.028-.662.643-1.524.965-2.386.965"/>
    </g>
</svg>
