<svg xmlns="http://www.w3.org/2000/svg" width="12" height="12" viewBox="0 0 12 12">
    <g fill="none" fill-rule="evenodd">
        <circle cx="6" cy="6" r="6" fill="#62696A"/>
        <path fill="#FFF" fill-rule="nonzero" d="M8.147 4c-.154.005-.3.076-.409.198-.942 1.036-1.802 2.053-2.707 3.067L3.968 6.33c-.124-.109-.281-.159-.438-.14-.157.02-.3.106-.4.242-.098.135-.144.308-.126.48.017.173.096.33.22.44l1.488 1.307c.238.207.58.186.794-.051 1.07-1.178 2.03-2.336 3.076-3.487.174-.188.226-.475.13-.722-.096-.248-.32-.405-.565-.398z"/>
    </g>
</svg>
