<svg xmlns="http://www.w3.org/2000/svg" xmlns:xlink="http://www.w3.org/1999/xlink" width="35" height="30" viewBox="0 0 35 30">
    <defs>
        <path id="prefix__a" d="M0 0.191L40.656 0.191 40.656 29.999 0 29.999z"/>
    </defs>
    <g fill="none" fill-rule="evenodd" transform="translate(-6)">
        <mask id="prefix__b" fill="#fff">
            <use xlink:href="#prefix__a"/>
        </mask>
        <path fill="#2D3953" d="M37.717 30H8.98C4.028 30 0 25.953 0 20.981V3.142C0 1.512 1.316.19 2.94.19s2.938 1.32 2.938 2.95v17.84c0 1.719 1.392 3.117 3.103 3.117h28.737c1.623 0 2.939 1.32 2.939 2.95 0 1.63-1.316 2.951-2.939 2.951" mask="url(#prefix__b)"/>
        <path fill="#FEC63B" d="M11 21c-1.657 0-3-1.337-3-2.986V8.986C8 7.336 9.343 6 11 6s3 1.337 3 2.986v9.028C14 19.664 12.657 21 11 21"/>
        <path fill="#FE8A8A" d="M19 21c-1.657 0-3-1.29-3-2.883V2.883C16 1.291 17.343 0 19 0s3 1.29 3 2.883v15.234C22 19.709 20.657 21 19 21"/>
        <path fill="#37AA85" d="M24 17.984v-7.968C24 8.35 25.343 7 27 7s3 1.35 3 3.016v7.968C30 19.65 28.657 21 27 21s-3-1.35-3-3.016z"/>
        <path fill="#2E4E9E" d="M35 21c-1.657 0-3-1.268-3-2.833V4.832C32 3.268 33.343 2 35 2s3 1.268 3 2.832v13.335C38 19.732 36.657 21 35 21"/>
    </g>
</svg>
