<svg xmlns="http://www.w3.org/2000/svg" xmlns:xlink="http://www.w3.org/1999/xlink" width="25" height="23" viewBox="0 0 25 23">
    <defs>
        <path id="prefix__a" d="M0.067 0L10.961 0 10.961 10.992 0.067 10.992z"/>
        <path id="prefix__c" d="M0 0.001L14.908 0.001 14.908 8.851 0 8.851z"/>
        <path id="prefix__e" d="M0.037 0.001L5.853 0.001 5.853 8.941 0.037 8.941z"/>
    </defs>
    <g fill="none" fill-rule="evenodd">
        <g transform="translate(7)">
            <mask id="prefix__b" fill="#fff">
                <use xlink:href="#prefix__a"/>
            </mask>
            <path fill="#2D3953" d="M.92 5.675c.471 0 .853-.361.853-.806 0-1.796 1.678-3.257 3.74-3.257 2.064 0 3.742 1.46 3.742 3.257v5.318c0 .445.382.805.853.805s.853-.36.853-.805V4.869c0-2.685-2.443-4.87-5.447-4.87S.067 2.185.067 4.87c0 .445.382.806.853.806" mask="url(#prefix__b)"/>
        </g>
        <path fill="#2D3953" d="M19.686 14.401l-2.278-1.734c-.288-.219-.69-.223-.982-.01l-.052.037c-.033.02-.063.043-.093.068l-2.315 1.682c-.36.262-.436.76-.169 1.114.16.211.405.323.654.323.168 0 .337-.051.483-.157l1.032-.75v2.846c-.01.038-.02.078-.024.119-.207 1.67-1.766 2.928-3.626 2.928-1.861 0-3.42-1.259-3.627-2.928-.05-.41-.405-.719-.826-.719h-.03c-.46 0-.833.366-.833.817 0 .117.025.229.07.33.417 2.372 2.628 4.133 5.246 4.133 2.617 0 4.828-1.76 5.244-4.133.046-.101.07-.213.07-.33v-3.143l-.001-.041 1.06.807c.355.27.865.207 1.14-.14.275-.348.211-.849-.143-1.119"/>
        <g transform="translate(0 7)">
            <mask id="prefix__d" fill="#fff">
                <use xlink:href="#prefix__c"/>
            </mask>
            <path fill="#2D3953" d="M11.481 8.851c.449 0 .813-.357.816-.8.003-.444-.36-.807-.811-.81l-9.334-.053L5.076 1.61h9.016c.45 0 .816-.36.816-.805 0-.444-.366-.804-.816-.804H4.58c-.305 0-.584.168-.724.435L.09 7.615c-.13.249-.12.546.027.786.146.24.41.386.693.388l10.665.062h.005z" mask="url(#prefix__d)"/>
        </g>
        <g transform="translate(19 7)">
            <mask id="prefix__f" fill="#fff">
                <use xlink:href="#prefix__e"/>
            </mask>
            <path fill="#2D3953" d="M5.754 7.746L1.697.443C1.474.042.944-.115.512.093c-.43.207-.6.7-.377 1.102l4.057 7.303c.157.281.464.443.782.443.136 0 .274-.03.403-.092.431-.208.6-.701.377-1.103" mask="url(#prefix__f)"/>
        </g>
    </g>
</svg>
