<svg xmlns="http://www.w3.org/2000/svg" width="16" height="16" viewBox="0 0 16 16">
    <path fill="#35529B" d="M8 0C3.585 0 0 3.585 0 8s3.585 8 8 8 8-3.585 8-8-3.585-8-8-8zm0 14.506c-3.585 0-6.506-2.92-6.506-6.506 0-3.585 2.92-6.506 6.506-6.506 3.585 0 6.506 2.92 6.506 6.506 0 3.585-2.92 6.506-6.506 6.506zm.763-7.17v4.946c0 .398-.331.764-.763.764-.398 0-.763-.332-.763-.764V7.336c0-.398.331-.763.763-.763.398.033.763.365.763.763zm.2-2.987c0 .53-.432.962-.963.962-.531 0-.963-.431-.963-.962 0-.532.432-.963.963-.963.531 0 .963.431.963.963z"/>
</svg>
