<svg xmlns="http://www.w3.org/2000/svg" xmlns:xlink="http://www.w3.org/1999/xlink" width="239" height="197" viewBox="0 0 239 197">
    <defs>
        <path id="prefix__a" d="M0 0.097L131 0.097 131 196.748 0 196.748z"/>
        <path id="prefix__c" d="M0.193 116.41L115.786 187.824 186.82 71.613 71.228 0.199"/>
        <path id="prefix__e" d="M0.193 116.41L115.786 187.824 186.82 71.613 71.228 0.199"/>
        <path id="prefix__g" d="M0.193 116.41L115.786 187.824 186.82 71.613 71.228 0.199"/>
    </defs>
    <g fill="none" fill-rule="evenodd">
        <g transform="translate(29)">
            <path fill="#2D3953" d="M7.992 184.893L7.818 24.026c0-1.18.954-2.137 2.13-2.137h110.756c1.177 0 2.13.957 2.13 2.137l.174 171.327m6.602-16.253V19.195c0-9.777-7.899-17.704-17.643-17.704H19.033C9.289 1.491 1.39 9.418 1.39 19.195V159.44"/>
            <mask id="prefix__b" fill="#fff">
                <use xlink:href="#prefix__a"/>
            </mask>
            <path fill="#F7F0E9" d="M129.61 180.494c-.768 0-1.39-.624-1.39-1.394V19.195c0-8.993-7.29-16.309-16.253-16.309H19.033c-8.962 0-16.253 7.316-16.253 16.309V159.44c0 .77-.622 1.395-1.39 1.395-.768 0-1.39-.625-1.39-1.395V19.195C0 8.664 8.538.097 19.033.097h92.934C122.462.097 131 8.664 131 19.195V179.1c0 .77-.622 1.394-1.39 1.394zm-6.602 16.254c-.767 0-1.39-.623-1.39-1.393l-.174-171.328c0-.41-.332-.744-.74-.744H9.948c-.408 0-.74.333-.74.743l.174 160.866c0 .77-.621 1.395-1.389 1.396h-.001c-.767 0-1.39-.624-1.39-1.393L6.428 24.027c0-1.949 1.58-3.533 3.52-3.533h110.756c1.941 0 3.52 1.584 3.52 3.532l.174 171.326c0 .77-.621 1.396-1.389 1.396h-.001z" mask="url(#prefix__b)"/>
            <path fill="#F7F0E9" d="M73.318 13.172h-11.64c-.768 0-1.39-.624-1.39-1.395 0-.77.622-1.394 1.39-1.394h11.64c.768 0 1.39.624 1.39 1.394 0 .77-.622 1.395-1.39 1.395M79.573 11.777c0 .674-.545 1.22-1.216 1.22-.672 0-1.216-.546-1.216-1.22 0-.674.544-1.22 1.216-1.22.671 0 1.216.546 1.216 1.22"/>
        </g>
        <g transform="translate(77 8)">
            <mask id="prefix__d" fill="#fff">
                <use xlink:href="#prefix__c"/>
            </mask>
            <path fill="#FEC63B" d="M95.702 90.42c-1.97-1.217-4.558-.596-5.768 1.384s-.593 4.582 1.377 5.8c1.97 1.216 4.557.595 5.768-1.385 1.21-1.981.593-4.582-1.377-5.799m-13.155 21.522c-9.835-6.076-12.919-19.062-6.875-28.95 6.043-9.886 18.96-12.986 28.794-6.91 9.834 6.075 12.919 19.061 6.875 28.948-6.043 9.887-18.96 12.987-28.794 6.912" mask="url(#prefix__d)"/>
            <g>
                <mask id="prefix__f" fill="#fff">
                    <use xlink:href="#prefix__e"/>
                </mask>
                <path fill="#FD8B8A" d="M70.095 132.313C49.088 119.335 42.5 91.593 55.41 70.475c12.909-21.12 40.502-27.742 61.508-14.764 3.938 2.433 5.17 7.615 2.75 11.575-2.421 3.96-7.576 5.197-11.514 2.763-13.143-8.12-30.405-3.975-38.482 9.237-8.077 13.214-3.955 30.569 9.187 38.688 13.143 8.12 30.406 3.976 38.482-9.237 2.42-3.96 7.576-5.197 11.514-2.764 3.938 2.433 5.169 7.616 2.749 11.575-12.91 21.12-40.503 27.743-61.51 14.765" mask="url(#prefix__f)"/>
            </g>
            <g>
                <mask id="prefix__h" fill="#fff">
                    <use xlink:href="#prefix__g"/>
                </mask>
                <path fill="#2F4E9E" d="M57.99 152.116c-31.87-19.688-41.863-61.772-22.28-93.812 2.421-3.959 7.576-5.196 11.514-2.763 3.939 2.433 5.17 7.616 2.75 11.575-14.752 24.133-7.224 55.831 16.78 70.661 24.004 14.83 55.535 7.263 70.286-16.87 14.751-24.133 7.223-55.832-16.782-70.662-3.938-2.433-5.169-7.615-2.748-11.575 2.42-3.96 7.575-5.196 11.513-2.763 31.869 19.688 41.863 61.772 22.28 93.811-19.585 32.04-61.445 42.087-93.314 22.398" mask="url(#prefix__h)"/>
            </g>
        </g>
        <g>
            <path fill="#2F4E9E" d="M137.372 31.434c-2.087 3.405-6.53 4.47-9.924 2.377-3.395-2.093-4.456-6.55-2.37-9.955 2.086-3.405 6.53-4.47 9.924-2.377 3.395 2.093 4.456 6.55 2.37 9.955" transform="translate(0 27)"/>
            <path fill="#FD8B8A" d="M213.72 78.498c-2.086 3.405-6.529 4.469-9.923 2.377-3.395-2.094-4.456-6.55-2.37-9.956 2.087-3.405 6.53-4.469 9.924-2.376 3.395 2.092 4.456 6.549 2.37 9.955" transform="translate(0 27)"/>
            <path fill="#F7F0E9" d="M116.595 21.733H5.516c-2.278 0-4.124-1.852-4.124-4.137V5.63c0-2.285 1.846-4.137 4.124-4.137h111.08c2.277 0 4.124 1.852 4.124 4.137v11.966c0 2.285-1.847 4.137-4.125 4.137" transform="translate(0 27)"/>
            <path fill="#37AA85" d="M5.516 2.889c-1.507 0-2.733 1.23-2.733 2.74v11.967c0 1.512 1.226 2.741 2.733 2.741h111.08c1.506 0 2.732-1.23 2.732-2.74V5.63c0-1.512-1.226-2.741-2.733-2.741H5.516zm111.08 20.24H5.515C2.475 23.13 0 20.647 0 17.596V5.63C0 2.579 2.475.097 5.516.097h111.08c3.041 0 5.516 2.482 5.516 5.533v11.966c0 3.051-2.475 5.533-5.517 5.533z" transform="translate(0 27)"/>
            <path fill="#F7F0E9" d="M116.595 53.839H5.516c-2.278 0-4.124-1.853-4.124-4.137V37.735c0-2.284 1.846-4.137 4.124-4.137h111.08c2.277 0 4.124 1.853 4.124 4.137v11.967c0 2.284-1.847 4.137-4.125 4.137" transform="translate(0 27)"/>
            <path fill="#37AA85" d="M5.516 34.994c-1.507 0-2.733 1.23-2.733 2.741v11.967c0 1.511 1.226 2.74 2.733 2.74h111.08c1.506 0 2.732-1.229 2.732-2.74V37.735c0-1.511-1.226-2.74-2.733-2.74H5.516zm111.08 20.24H5.515C2.475 55.235 0 52.754 0 49.703V37.735c0-3.05 2.475-5.533 5.516-5.533h111.08c3.041 0 5.516 2.482 5.516 5.533v11.967c0 3.05-2.475 5.533-5.517 5.533z" transform="translate(0 27)"/>
            <path fill="#F7F0E9" d="M175.39 85.944H64.31c-2.277 0-4.124-1.852-4.124-4.137V69.841c0-2.285 1.847-4.137 4.125-4.137H175.39c2.278 0 4.125 1.852 4.125 4.137v11.966c0 2.285-1.847 4.137-4.125 4.137" transform="translate(0 27)"/>
            <path fill="#FD8B8A" d="M64.31 67.1c-1.506 0-2.732 1.23-2.732 2.741v11.966c0 1.512 1.226 2.741 2.733 2.741H175.39c1.507 0 2.733-1.23 2.733-2.74V69.84c0-1.511-1.226-2.741-2.733-2.741H64.31zm111.08 20.24H64.31c-3.04 0-5.516-2.482-5.516-5.533V69.841c0-3.051 2.475-5.533 5.517-5.533H175.39c3.042 0 5.516 2.482 5.516 5.533v11.966c0 3.051-2.474 5.533-5.516 5.533z" transform="translate(0 27)"/>
            <path fill="#F7F0E9" d="M116.595 117.352H5.516c-2.278 0-4.124-1.852-4.124-4.137v-11.966c0-2.285 1.846-4.137 4.124-4.137h111.08c2.277 0 4.124 1.852 4.124 4.137v11.966c0 2.285-1.847 4.137-4.125 4.137" transform="translate(0 27)"/>
            <path fill="#37AA85" d="M5.516 98.507c-1.507 0-2.733 1.23-2.733 2.742v11.966c0 1.511 1.226 2.741 2.733 2.741h111.08c1.506 0 2.732-1.23 2.732-2.741v-11.966c0-1.512-1.226-2.742-2.733-2.742H5.516zm111.08 20.24H5.515c-3.041 0-5.516-2.481-5.516-5.532v-11.966c0-3.051 2.475-5.533 5.516-5.533h111.08c3.041 0 5.516 2.482 5.516 5.533v11.966c0 3.051-2.475 5.533-5.517 5.533z" transform="translate(0 27)"/>
            <path fill="#2F4E9E" d="M108.328 16.603c-.422 0-.82-.201-1.071-.544l-2.069-2.823c-.434-.594-.307-1.428.285-1.864.591-.436 1.423-.309 1.858.285l.945 1.29 2.31-3.471c.408-.613 1.233-.777 1.844-.369.61.41.775 1.237.367 1.85l-3.364 5.053c-.24.362-.642.583-1.076.593h-.03" transform="translate(0 27)"/>
            <path fill="#37AA85" d="M113.724 9.04c.92-.13 1.561-.983 1.432-1.906-.13-.923-.98-1.567-1.9-1.437-.92.13-1.562.983-1.433 1.907.13.922.98 1.566 1.9 1.436" transform="translate(0 27)"/>
            <path fill="#2F4E9E" d="M108.328 48.708c-.422 0-.82-.2-1.071-.544l-2.069-2.823c-.434-.593-.307-1.428.285-1.864.591-.436 1.423-.308 1.858.285l.945 1.29 2.31-3.47c.408-.613 1.233-.778 1.844-.37.61.41.775 1.238.367 1.85l-3.364 5.054c-.24.361-.642.582-1.076.592h-.03" transform="translate(0 27)"/>
            <path fill="#37AA85" d="M113.724 41.146c.92-.13 1.561-.983 1.432-1.907-.13-.923-.98-1.566-1.9-1.436-.92.13-1.562.983-1.433 1.906.13.923.98 1.566 1.9 1.437" transform="translate(0 27)"/>
            <path fill="#2F4E9E" d="M108.328 112.57c-.422 0-.82-.2-1.071-.543l-2.069-2.824c-.434-.593-.307-1.428.285-1.863.591-.437 1.423-.309 1.858.284l.945 1.29 2.31-3.47c.408-.613 1.233-.778 1.844-.369.61.409.775 1.237.367 1.85l-3.364 5.053c-.24.362-.642.583-1.076.592h-.03" transform="translate(0 27)"/>
            <path fill="#37AA85" d="M113.724 105.008c.92-.13 1.561-.983 1.432-1.907-.13-.923-.98-1.566-1.9-1.436-.92.13-1.562.983-1.433 1.906.13.923.98 1.567 1.9 1.437" transform="translate(0 27)"/>
            <path fill="#FD8B8A" d="M167.648 82.324c.92-.13 1.561-.983 1.432-1.906-.13-.923-.98-1.566-1.9-1.436-.92.13-1.562.983-1.433 1.906.13.923.98 1.566 1.9 1.436" transform="translate(0 27)"/>
            <path fill="#2F4E9E" d="M167.414 77.918c-.769 0-1.392-.625-1.392-1.396v-5.584c0-.77.623-1.395 1.392-1.395.768 0 1.391.625 1.391 1.395v5.584c0 .77-.623 1.396-1.391 1.396" transform="translate(0 27)"/>
        </g>
    </g>
</svg>
