<svg xmlns="http://www.w3.org/2000/svg" xmlns:xlink="http://www.w3.org/1999/xlink" width="320" height="202" viewBox="0 0 320 202">
    <defs>
        <path id="prefix__a" d="M0.32 0.177L372.945 0.177 372.945 117.667 0.32 117.667z"/>
        <path id="prefix__c" d="M0 0.032L125.772 0.032 125.772 35 0 35z"/>
        <path id="prefix__e" d="M0.227 0.313L128.886 0.313 128.886 191.973 0.227 191.973z"/>
        <path id="prefix__g" d="M0 0L84 0 84 84 0 84z"/>
    </defs>
    <g fill="none" fill-rule="evenodd" transform="translate(-29)">
        <g transform="translate(26 27)">
            <mask id="prefix__b" fill="#fff">
                <use xlink:href="#prefix__a"/>
            </mask>
            <path fill="#37AA85" d="M371.218 14.832c-17.825 24.942-45.233 43.105-77.187 51.154l-.07.017c-29.495 7.415-59.707 5.411-85.897-5.556-.904-.207-1.791-.552-2.633-1.044-.258-.151-.52-.295-.78-.443-1.045-.476-1.238-.838-2.27-1.343-.646-.317-2.08-.827-2.617-1.262-41.657-20.565-93.328-6.095-117.722 34.048-.09.149-.193.285-.29.428-7.703 12.632-19.709 21.542-33.97 25.134-.001 0 0 0 0 0-14.691 3.7-29.977 1.32-43.037-6.702C.369 106.574-.992 100.86 1.707 96.5c2.698-4.362 8.433-5.715 12.81-3.028 8.739 5.369 18.932 6.97 28.701 4.51 9.77-2.462 17.974-8.697 23.102-17.559.173-.3.363-.584.564-.857 15.406-24.607 39.388-41.016 65.862-47.684 26.327-6.631 55.112-3.624 80.339 10.516 48.626 21.69 112.031 4.96 142.967-38.325 2.982-4.172 8.794-5.147 12.982-2.176 4.189 2.97 5.166 8.762 2.184 12.935" mask="url(#prefix__b)"/>
        </g>
        <path fill="#FE8A8A" d="M157.721 107.936c-10.747 5.22-19.763 13.314-26.186 23.468-.15.335-.313.666-.505.989-14.553 24.538-40.15 39.718-68.466 40.602-5.122.161-9.401-3.928-9.56-9.133-.157-5.204 3.866-9.556 8.989-9.713 21.352-.67 40.701-11.788 52.138-29.853.152-.344.32-.684.515-1.014 8.35-14.079 20.477-25.268 35.072-32.357.568-.277 1.149-.488 1.736-.64 4.197-1.078 8.698.958 10.636 5.079 2.21 4.698.255 10.326-4.369 12.572"/>
        <path fill="#2E4E9E" d="M171.753 114.747c-.001 0 0 0 0 0-14.626 3.799-26.882 13.379-34.512 26.973-2.557 4.556-1.035 10.379 3.399 13.005 4.433 2.627 10.1 1.064 12.657-3.492 5.106-9.097 13.273-15.497 22.998-18.024 9.726-2.527 19.873-.882 28.573 4.628 4.356 2.76 10.065 1.37 12.752-3.108 2.686-4.476 1.332-10.342-3.025-13.102-13.001-8.236-28.218-10.679-42.842-6.88"/>
        <path fill="#FE8A8A" d="M181.101 84.287c-4.102 1.031-7.126 4.738-7.101 9.136.03 5.175 4.27 9.346 9.47 9.316 11.705-.066 23.229 3.032 33.325 8.96 4.48 2.629 10.253 1.148 12.897-3.307 2.643-4.456 1.155-10.2-3.324-12.83-13.027-7.649-27.898-11.647-43.005-11.56-.78.004-1.538.103-2.262.285"/>
        <g transform="translate(0 167)">
            <mask id="prefix__d" fill="#fff">
                <use xlink:href="#prefix__c"/>
            </mask>
            <path fill="#2E4E9E" d="M7.091 3.312c-2.35.582-4.47 2.05-5.795 4.261-2.628 4.384-1.132 10.026 3.34 12.6 18.096 10.422 38.76 15.522 59.754 14.75 20.428-.752 40.2-6.98 57.178-18.012 4.323-2.81 5.505-8.522 2.639-12.76-2.865-4.237-8.692-5.394-13.017-2.586-14.1 9.163-30.527 14.336-47.504 14.96C46.28 17.166 29.15 12.939 14.15 4.3 11.933 3.023 9.4 2.74 7.09 3.312" mask="url(#prefix__d)"/>
        </g>
        <path fill="#FE8A8A" d="M42.846 159.775c-.677-2.677-3.395-4.298-6.071-3.621-2.677.676-4.298 3.395-3.621 6.071.676 2.677 3.395 4.298 6.071 3.621 2.677-.676 4.298-3.395 3.621-6.071L11.5 141.982"/>
        <path fill="#2D3953" d="M132.488 181.748l-.17-157.662c0-1.157.936-2.095 2.092-2.095h108.838c1.156 0 2.093.938 2.093 2.095L245.512 192M252 176.07V19.35C252 9.768 244.238 2 234.663 2h-91.326C133.762 2 126 9.768 126 19.35v137.452"/>
        <g transform="translate(124)">
            <mask id="prefix__f" fill="#fff">
                <use xlink:href="#prefix__e"/>
            </mask>
            <path fill="#F6F0E9" d="M127.52 176.132c-.753 0-1.364-.61-1.364-1.36V18.926c0-8.764-7.16-15.895-15.962-15.895H18.92c-8.802 0-15.963 7.13-15.963 15.895v136.686c0 .75-.61 1.359-1.365 1.359-.754 0-1.365-.609-1.365-1.36V18.927C.227 8.663 8.612.313 18.92.313h91.274c10.307 0 18.692 8.35 18.692 18.613v155.846c0 .75-.611 1.36-1.365 1.36zm-7.848 14.483L119.5 23.636c0-.4-.326-.725-.727-.725H9.998c-.4 0-.727.324-.727.724l.17 156.782c.001.751-.61 1.36-1.363 1.361-.755 0-1.366-.608-1.367-1.358l-.17-156.784c0-1.9 1.55-3.444 3.457-3.444h108.776c1.906 0 3.457 1.544 3.457 3.443l.17 166.977c0 .75-.61 1.36-1.363 1.36-.755 0-1.366-.607-1.366-1.357z" mask="url(#prefix__f)"/>
        </g>
        <path fill="#F6F0E9" d="M194.747 12h-10.494c-.692 0-1.253-.672-1.253-1.5s.561-1.5 1.253-1.5h10.494c.692 0 1.253.672 1.253 1.5s-.561 1.5-1.253 1.5"/>
        <path fill="#37AA85" d="M395.08 28.734c-4.197-2.996-10.023-2.012-13.012 2.193-31.008 43.636-94.561 60.5-143.302 38.636-13.233-7.46-27.444-11.84-41.766-13.37 3.866 7.338 8.195 14.426 12.688 21.398 5.347 1.497 10.612 3.503 15.727 6.042.537.438 1.748.942 2.397 1.261 1.034.51 1.454.885 2.501 1.365.26.15.502.337.782.447 1.493.581 3.316 1.398 4.222 1.607 26.251 11.057 54.951 12.52 84.516 5.046l.07-.017c32.028-8.114 59.5-26.424 77.366-51.568 2.99-4.206 2.01-10.045-2.189-13.04"/>
        <path fill="#2E4E9E" d="M267.846 116.775c-.677-2.677-3.395-4.298-6.071-3.621-2.677.677-4.298 3.394-3.621 6.071.676 2.677 3.395 4.298 6.071 3.621 2.677-.677 4.298-3.395 3.621-6.071M234.048 38.283c-2.336.583-4.444 2.053-5.76 4.266-2.612 4.387-1.125 10.033 3.32 12.611 17.985 10.431 38.521 15.536 59.387 14.764 20.302-.754 39.953-6.987 56.828-18.03 4.296-2.812 5.47-8.53 2.622-12.771-2.848-4.241-8.638-5.398-12.937-2.589-14.014 9.172-30.34 14.35-47.212 14.975-17.3.64-34.325-3.591-49.233-12.238-2.203-1.277-4.72-1.561-7.015-.988"/>
        <path fill="#F6F0E9" d="M203 10.5c0 .829-.672 1.5-1.5 1.5s-1.5-.671-1.5-1.5.672-1.5 1.5-1.5 1.5.671 1.5 1.5"/>
        <g transform="translate(147 52)">
            <mask id="prefix__h" fill="#fff">
                <use xlink:href="#prefix__g"/>
            </mask>
            <path fill="#F7F0E9" d="M71.123 84H12.877C5.765 84 0 78.235 0 71.123V12.877C0 5.765 5.765 0 12.877 0h58.246C78.235 0 84 5.765 84 12.877v58.246C84 78.235 78.235 84 71.123 84" mask="url(#prefix__h)"/>
            <path fill="#2D3953" d="M60.82 58H29.718C24.359 58 20 53.521 20 48.016V28.267C20 26.463 21.424 25 23.18 25c1.756 0 3.18 1.463 3.18 3.267v19.75c0 1.901 1.506 3.449 3.358 3.449H60.82c1.756 0 3.18 1.462 3.18 3.267C64 56.537 62.576 58 60.82 58"/>
            <path fill="#FEC63B" d="M33 49c-1.657 0-3-1.426-3-3.185v-9.63C30 34.425 31.343 33 33 33s3 1.426 3 3.185v9.63C36 47.575 34.657 49 33 49"/>
            <path fill="#FE8A8A" d="M42 49c-1.657 0-3-1.414-3-3.158V29.158C39 27.414 40.343 26 42 26s3 1.414 3 3.158v16.684C45 47.586 43.657 49 42 49"/>
            <path fill="#37AA85" d="M50 50c-1.657 0-3-1.447-3-3.232v-8.537C47 36.447 48.343 35 50 35s3 1.447 3 3.231v8.537C53 48.553 51.657 50 50 50"/>
            <path fill="#2E4E9E" d="M59 49c-1.657 0-3-1.402-3-3.13V31.13c0-1.728 1.343-3.13 3-3.13s3 1.402 3 3.13v14.74c0 1.728-1.343 3.13-3 3.13"/>
        </g>
        <rect width="84" height="84" x="147" y="52" stroke="#2E4E9E" stroke-width="3.2" rx="12"/>
    </g>
</svg>
