<svg xmlns="http://www.w3.org/2000/svg" xmlns:xlink="http://www.w3.org/1999/xlink" width="233" height="229" viewBox="0 0 233 229">
    <defs>
        <path id="prefix__a" d="M0 0L55 0 55 25 0 25z"/>
        <path id="prefix__c" d="M0 0L30 0 30 31 0 31z"/>
    </defs>
    <g fill="none" fill-rule="evenodd" transform="translate(1)">
        <path fill="#FE8A8A" d="M163.5 44c12.952 0 25.116 5.165 34.251 14.543 3.062 3.143 2.988 8.164-.165 11.216-3.153 3.052-8.19 2.977-11.25-.165-6.114-6.275-14.223-9.731-22.836-9.731-8.613 0-16.722 3.456-22.835 9.73-3.06 3.143-8.098 3.217-11.251.166-3.153-3.052-3.227-8.073-.166-11.216C138.384 49.165 150.548 44 163.5 44"/>
        <path fill="#37A985" d="M164.562 0c23.578 0 47.144 8.815 65.085 26.451 3.108 3.056 3.141 8.042.074 11.138-3.068 3.097-8.073 3.13-11.181.075-29.78-29.275-78.264-29.245-108.08.065-3.107 3.056-8.114 3.023-11.181-.073-3.067-3.096-3.034-8.083.074-11.138C117.333 8.84 140.954 0 164.562 0"/>
        <path fill="#FEC63B" d="M163.5 22c17.81 0 35.62 6.807 49.18 20.42 3.073 3.087 3.096 8.114.05 11.229-3.045 3.114-8.006 3.138-11.08.051-21.036-21.12-55.264-21.12-76.3 0-3.074 3.087-8.035 3.063-11.08-.051-3.046-3.115-3.024-8.142.05-11.228C127.88 28.807 145.69 22 163.5 22"/>
        <path fill="#2D3953" d="M43.642 216.586l-.175-160.151c0-1.176.96-2.128 2.143-2.128h111.43c1.184 0 2.143.952 2.143 2.128L159.358 227M166 210.819V51.624C166 41.891 158.053 34 148.25 34h-93.5C44.947 34 37 41.89 37 51.624v139.622"/>
        <path fill="#F7F0E9" d="M165.61 212.8c-.768 0-1.39-.622-1.39-1.39V52.035c0-8.963-7.29-16.255-16.253-16.255H55.033c-8.962 0-16.253 7.292-16.253 16.255v139.78c0 .768-.622 1.39-1.39 1.39-.768 0-1.39-.622-1.39-1.39V52.036C36 41.539 44.538 33 55.033 33h92.934C158.462 33 167 41.54 167 52.035V211.41c0 .768-.622 1.39-1.39 1.39zm-6.602 16.2c-.767 0-1.39-.621-1.39-1.389l-.174-170.76c0-.41-.332-.741-.74-.741H45.948c-.408 0-.74.332-.74.74l.174 160.333c0 .768-.621 1.39-1.389 1.391h-.001c-.767 0-1.39-.62-1.39-1.388l-.174-160.334c0-1.943 1.58-3.522 3.52-3.522h110.756c1.941 0 3.52 1.579 3.52 3.52l.174 170.759c0 .767-.621 1.391-1.389 1.391h-.001z"/>
        <path fill="#F7F0E9" d="M108.554 45H96.446C95.647 45 95 44.328 95 43.5s.647-1.5 1.446-1.5h12.108c.799 0 1.446.672 1.446 1.5s-.647 1.5-1.446 1.5M116 43.5c0 .828-.672 1.5-1.5 1.5s-1.5-.672-1.5-1.5.672-1.5 1.5-1.5 1.5.672 1.5 1.5"/>
        <g>
            <path fill="#2D3953" d="M11.806 62C5.838 62 1 57.178 1 51.23V11.77C1 5.823 5.838 1 11.806 1h80.388C98.162 1 103 5.822 103 11.77v39.46C103 57.177 98.162 62 92.194 62H11.806z" transform="translate(50 77)"/>
            <path fill="#2F4E9E" stroke="#2E4E9E" d="M11.764 2.172c-5.296 0-9.603 4.331-9.603 9.655v39.346c0 5.324 4.307 9.655 9.603 9.655h79.472c5.296 0 9.603-4.331 9.603-9.655V11.827c0-5.324-4.307-9.655-9.603-9.655H11.764zM91.236 63H11.764C5.277 63 0 57.695 0 51.173V11.827C0 5.305 5.277 0 11.764 0h79.472C97.723 0 103 5.305 103 11.827v39.346C103 57.695 97.723 63 91.236 63h0z" transform="translate(50 77)"/>
        </g>
        <g>
            <path fill="#2D3953" d="M11.806 62C5.838 62 1 57.178 1 51.23V11.77C1 5.823 5.838 1 11.806 1h80.388C98.162 1 103 5.822 103 11.77v39.46C103 57.177 98.162 62 92.194 62H11.806z" transform="translate(50 146)"/>
            <path fill="#2F4E9E" stroke="#2E4E9E" d="M11.764 2.172c-5.296 0-9.603 4.331-9.603 9.655v39.346c0 5.324 4.307 9.655 9.603 9.655h79.472c5.296 0 9.603-4.331 9.603-9.655V11.827c0-5.324-4.307-9.655-9.603-9.655H11.764zM91.236 63H11.764C5.277 63 0 57.695 0 51.173V11.827C0 5.305 5.277 0 11.764 0h79.472C97.723 0 103 5.305 103 11.827v39.346C103 57.695 97.723 63 91.236 63h0z" transform="translate(50 146)"/>
        </g>
        <g>
            <path fill="#F7F0E9" d="M15.773 79C8.166 79 2 72.834 2 65.227V14.773C2 7.166 8.166 1 15.773 1h102.454C125.834 1 132 7.166 132 14.773v50.454C132 72.834 125.834 79 118.227 79H15.773z" transform="translate(0 100)"/>
            <path fill="#2F4E9E" stroke="#2E4E9E" d="M15.076 2.793c-6.786 0-12.307 5.568-12.307 12.413v50.588c0 6.845 5.52 12.413 12.307 12.413h101.848c6.786 0 12.307-5.568 12.307-12.413V15.206c0-6.845-5.52-12.413-12.307-12.413H15.076zM116.924 81H15.076C6.763 81 0 74.179 0 65.794V15.206C0 6.82 6.763 0 15.076 0h101.848C125.237 0 132 6.821 132 15.206v50.588C132 74.18 125.237 81 116.924 81h0z" transform="translate(0 100)"/>
            <path fill="#2F4E9E" d="M106.145 90h-80.29C19.86 90 15 85.075 15 79s4.86-11 10.855-11h80.29C112.14 68 117 72.925 117 79s-4.86 11-10.855 11" transform="translate(0 100)"/>
            <path fill="#F7F0E9" d="M103.02 85c-.28 0-.56-.126-.762-.375-.374-.462-.337-1.17.084-1.582l3.106-3.04-3.107-3.047c-.42-.412-.457-1.12-.082-1.582.375-.461 1.02-.501 1.44-.09l3.96 3.883c.217.212.341.517.341.836 0 .32-.124.623-.341.836l-3.96 3.877c-.195.19-.437.284-.679.284" transform="translate(0 100)"/>
        </g>
        <g>
            <path fill="#37A985" d="M9.364 46H4.636C3.18 46 2 44.86 2 43.455c0-1.406 1.18-2.545 2.636-2.545h2.091V17.545C6.727 16.14 7.907 15 9.364 15 10.82 15 12 16.14 12 17.545v25.91C12 44.86 10.82 46 9.364 46" transform="translate(38 115)"/>
            <path fill="#FEC63B" d="M50.585 45h-4.17C45.082 45 44 43.813 44 42.347V17.652C44 16.187 45.082 15 46.415 15c1.335 0 2.415 1.187 2.415 2.652v22.043h1.755c1.334 0 2.415 1.187 2.415 2.652C53 43.813 51.92 45 50.585 45" transform="translate(38 115)"/>
            <g transform="translate(38 115) translate(.2)">
                <mask id="prefix__b" fill="#fff">
                    <use xlink:href="#prefix__a"/>
                </mask>
                <path fill="#FE8A8A" d="M52.237 25c-.575 0-1.156-.186-1.651-.572L27.5 6.464 4.414 24.428c-1.219.95-2.95.69-3.864-.581-.914-1.272-.663-3.074.558-4.024L25.848.573c.98-.764 2.325-.764 3.305 0l24.739 19.25c1.221.95 1.471 2.752.559 4.024-.543.755-1.374 1.153-2.214 1.153" mask="url(#prefix__b)"/>
            </g>
        </g>
        <circle cx="62.5" cy="89.5" r="4.5" fill="#2E4E9E"/>
        <circle cx="16.5" cy="116.5" r="6.5" fill="#2E4E9E"/>
        <path fill="#F6F0E9" d="M17.49 119.86c-.077-.546-.582-.927-1.13-.85-.546.077-.927.582-.85 1.13.077.546.582.927 1.13.85.546-.077.927-.582.85-1.13zM15.5 117v-4c0-.552.448-1 1-1s1 .448 1 1v4c0 .552-.448 1-1 1s-1-.448-1-1z"/>
        <g transform="translate(50.5 130)">
            <mask id="prefix__d" fill="#fff">
                <use xlink:href="#prefix__c"/>
            </mask>
            <path fill="#2D3953" stroke="#2D3953" stroke-width="2" d="M15.5 5.822c2.802 0 5.082 2.237 5.082 4.986 0 2.75-2.28 4.986-5.083 4.986-2.802 0-5.083-2.236-5.083-4.986 0-2.75 2.28-4.986 5.083-4.986m9.68 13.48c-1.148-1.238-2.593-2.147-4.318-2.73 1.594-1.428 2.597-3.483 2.597-5.764 0-4.305-3.57-7.808-7.959-7.808-4.388 0-7.959 3.503-7.959 7.808 0 2.327 1.045 4.419 2.696 5.85-1.63.583-3.017 1.462-4.146 2.634-3.328 3.456-3.094 8.15-3.082 8.349.044.772.704 1.358 1.512 1.326.79-.042 1.399-.707 1.359-1.482-.002-.037-.152-3.723 2.318-6.272 1.665-1.718 4.187-2.59 7.496-2.59 3.288 0 5.759.862 7.344 2.562 2.356 2.526 2.075 6.236 2.071 6.27-.036.376.079.742.323 1.033.245.29.59.47.972.505.046.004.092.007.139.007.744 0 1.358-.55 1.429-1.277.02-.2.45-4.925-2.792-8.422" mask="url(#prefix__d)"/>
        </g>
    </g>
</svg>
