<?xml version="1.0" encoding="UTF-8"?>
<svg width="320px" height="418px" viewBox="0 0 320 418" version="1.1" xmlns="http://www.w3.org/2000/svg" xmlns:xlink="http://www.w3.org/1999/xlink">
    <!-- Generator: Sketch 59.1 (86144) - https://sketch.com -->
    <title>Group 12</title>
    <desc>Created with Sketch.</desc>
    <defs>
        <polygon id="path-1" points="0 0.381853671 778.254899 0.381853671 778.254899 748.49336 0 748.49336"></polygon>
    </defs>
    <g id="Maquettes-graphiques" stroke="none" stroke-width="1" fill="none" fill-rule="evenodd">
        <g id="1A---Animation-02---EN" transform="translate(0.000000, -118.000000)">
            <g id="Group-12" transform="translate(-228.500000, 90.000000)">
                <path d="M435.5,442.5 C435.5,468.1835 414.6835,489 389,489 C363.3165,489 342.5,468.1835 342.5,442.5 C342.5,416.8165 363.3165,396 389,396 C414.6835,396 435.5,416.8165 435.5,442.5" id="Fill-1" fill="#FFFFFF"></path>
                <g id="Group-5" transform="translate(0.500000, 0.000000)">
                    <mask id="mask-2" fill="white">
                        <use xlink:href="#path-1"></use>
                    </mask>
                    <g id="Clip-4"></g>
                    <path d="M150.156301,732.500478 C136.523005,732.500478 122.921123,727.167371 112.743271,716.569061 C-37.7360617,559.824818 -37.558054,304.593081 113.135935,147.619008 C186.90442,70.7773471 285.112315,28.4624606 389.676132,28.4624606 C494.035764,28.4624606 591.992354,70.6310915 665.514769,147.211582 C815.988866,303.961048 815.816094,559.182338 665.122105,716.156411 C645.326602,736.768008 612.541772,737.467945 591.892879,717.733883 C571.23875,697.994597 570.531955,665.285571 590.311752,644.673975 C703.168633,527.121016 703.341406,336.027594 590.704416,218.699242 C536.909442,162.662444 465.517883,131.80773 389.676132,131.80773 C313.630196,131.80773 241.987332,162.813923 187.946288,219.106668 C75.0894068,336.664851 74.9166347,527.758272 187.55886,645.086624 C207.338657,665.692997 206.631861,698.407247 185.977733,718.146533 C175.94124,727.736723 163.040917,732.500478 150.156301,732.500478 L377.685637,44.4246738" id="Fill-3" fill="#37AA85" mask="url(#mask-2)"></path>
                </g>
                <path d="M388.001642,420.922436 C382.467906,420.922436 376.94468,423.029775 372.730002,427.239198 C364.316411,435.65279 364.316411,449.347867 372.740512,457.771969 C381.138338,466.169795 394.843926,466.18556 403.262772,457.766714 C411.681619,449.347867 411.681619,435.65279 403.257517,427.228688 C399.058604,423.02452 393.530123,420.922436 388.001642,420.922436 M388.001642,568 C355.850267,568 323.704147,555.765871 299.214868,531.292358 C250.262586,482.329566 250.262586,402.671091 299.209613,353.71881 C348.188171,304.761273 427.836135,304.761273 476.788416,353.713554 L476.793672,353.71881 C525.735443,402.671091 525.735443,482.329566 476.793672,531.281847 C452.309648,555.760616 420.153017,568 388.001642,568" id="Fill-6" fill="#FE8A8A"></path>
                <path d="M506.698159,624 C493.782094,624 480.850289,619.255815 470.793385,609.705089 C450.102498,590.063228 449.404758,557.524249 469.235273,537.030201 C515.716322,488.99078 515.716322,410.833837 469.235273,362.789219 C447.405968,340.237452 418.562536,327.807999 388.003607,327.807999 C357.444678,327.807999 328.590753,340.232256 306.756202,362.789219 C260.280399,410.828641 260.280399,488.99078 306.761448,537.030201 C326.591963,557.529445 325.888977,590.068424 305.19809,609.710286 C284.501957,629.346951 251.650452,628.655849 231.819937,608.1618 C147.393354,520.895814 147.393354,378.913213 231.819937,291.65762 C273.411558,248.674159 328.874046,225 387.998361,225 L388.008853,225 C447.127921,225.005196 502.59041,248.679356 544.176784,291.65762 C628.608613,378.91841 628.608613,520.901011 544.171538,608.1618 C533.978233,618.694619 520.348689,624 506.698159,624" id="Fill-8" fill="#2E4E9E"></path>
                <path d="M219.374617,664 C205.709578,664 192.065521,658.670506 181.873133,648.074096 C67.9261133,529.667558 68.0572557,336.882775 182.177383,218.309364 C238.222405,160.070827 312.884403,128 392.409162,128 C471.787042,128 546.260195,159.961317 602.126863,218.001693 C716.079129,336.408231 715.937495,529.198229 601.822613,647.766425 C582.020109,668.359547 549.161066,669.07397 528.456301,649.372574 C507.751537,629.681607 507.022386,597.021511 526.835381,576.438819 C603.097317,497.200409 603.233705,368.400837 527.134386,289.324084 C491.038748,251.824683 443.197996,231.168984 392.414408,231.168984 C341.478695,231.174199 293.449098,251.934193 257.169861,289.63697 C180.902679,368.875381 180.771537,497.674953 256.86561,576.751705 C276.678606,597.339612 275.949454,629.994493 255.24469,649.690675 C245.18869,659.249346 232.273785,663.111111 219.374617,663.111111" id="Fill-10" fill="#FFC53B"></path>
            </g>
        </g>
    </g>
</svg>