<svg xmlns="http://www.w3.org/2000/svg" width="94" height="37" viewBox="0 0 94 37">
    <path fill="#F7F0E9" fill-rule="evenodd" d="M94 10.505V37h-7.726V10.505H94zM13.759 9.088c7.887 0 12.596 4.513 13.282 10.619h-8.305c-.268-2.104-1.43-4.464-4.818-4.464-3.492 0-5.45 2.874-5.45 7.8 0 4.923 1.903 7.798 5.45 7.798 3.387 0 4.55-2.206 4.818-4.566h8.305C26.62 32.483 21.751 37 13.972 37 5.4 37 0 31.25 0 23.044 0 14.882 5.399 9.088 13.759 9.088zm29.08 0c8.603 0 13.819 5.798 13.819 13.956S51.442 37 42.839 37c-8.655 0-13.866-5.798-13.866-13.956S34.184 9.088 42.839 9.088zm13.819 0l27.04 9.32v9.271L56.659 37v-8.426l17.639-5.476v-.104l-17.64-5.48V9.088zm-13.819 6.155c-3.596 0-5.771 2.72-5.771 7.8 0 5.081 2.175 7.802 5.771 7.802 3.544 0 5.72-2.72 5.72-7.801 0-5.08-2.176-7.801-5.72-7.801zM90.135 0C92.31 0 94 1.292 94 3.672c0 2.433-1.69 3.676-3.865 3.676-2.17 0-3.861-1.243-3.861-3.676 0-2.38 1.69-3.672 3.861-3.672z"/>
</svg>
