<svg xmlns="http://www.w3.org/2000/svg" xmlns:xlink="http://www.w3.org/1999/xlink" width="78" height="31" viewBox="0 0 78 31">
    <defs>
        <path id="prefix__a" d="M0 0.072L22.006 0.072 22.006 23 0 23z"/>
        <path id="prefix__c" d="M0.032 0.152L6.702 0.152 6.702 30.325 0.032 30.325z"/>
    </defs>
    <g fill="none" fill-rule="evenodd">
        <g transform="translate(-.5) translate(.5 8)">
            <mask id="prefix__b" fill="#fff">
                <use xlink:href="#prefix__a"/>
            </mask>
            <path fill="#2D3953" d="M11.326 5.13c-2.843 0-4.435 2.36-4.435 6.406 0 4.046 1.55 6.406 4.435 6.406 2.756 0 3.703-1.812 3.918-3.75h6.762C21.66 19.292 17.699 23 11.369 23 4.393 23 0 18.28 0 11.536 0 4.835 4.394.072 11.198.072c6.416 0 10.248 3.71 10.809 8.725h-6.762C15.03 7.07 14.082 5.13 11.326 5.13" mask="url(#prefix__b)"/>
            <path fill="#2D3953" d="M35.053 23c-7.364 0-11.8-4.763-11.8-11.464 0-6.702 4.436-11.463 11.8-11.463 7.32 0 11.756 4.761 11.756 11.463C46.809 18.237 42.374 23 35.053 23m0-5.057c3.014 0 4.866-2.234 4.866-6.407 0-4.172-1.852-6.406-4.866-6.406-3.058 0-4.91 2.234-4.91 6.406 0 4.173 1.852 6.407 4.91 6.407"/>
        </g>
        <path fill="#2D3953" d="M48.5 14.641L62.851 18.958 62.851 19.042 48.5 23.359 48.5 30 70.5 22.652 70.5 15.347 48.5 8z" transform="translate(-.5)"/>
        <g transform="translate(-.5) translate(71.5)">
            <mask id="prefix__d" fill="#fff">
                <use xlink:href="#prefix__c"/>
            </mask>
            <path fill="#2D3953" d="M.032 3.148c0-1.941 1.46-2.996 3.335-2.996 1.876 0 3.335 1.055 3.335 2.996 0 1.983-1.459 2.997-3.335 2.997S.032 5.13.032 3.148zm0 27.177h6.67V8.719H.032v21.606z" mask="url(#prefix__d)"/>
        </g>
    </g>
</svg>
