<?xml version="1.0" encoding="UTF-8"?>
<svg width="146px" height="59px" viewBox="0 0 146 59" version="1.1" xmlns="http://www.w3.org/2000/svg" xmlns:xlink="http://www.w3.org/1999/xlink">
    <!-- Generator: Sketch 59.1 (86144) - https://sketch.com -->
    <title>Group 11</title>
    <desc>Created with Sketch.</desc>
    <defs>
        <polygon id="path-1" points="0.160942222 0.486217885 43.9047644 0.486217885 43.9047644 45 0.160942222 45"></polygon>
        <polygon id="path-3" points="0.5733125 0.209709006 12.84125 0.209709006 12.84125 57.7301745 0.5733125 57.7301745"></polygon>
    </defs>
    <g id="Maquettes-graphiques" stroke="none" stroke-width="1" fill="none" fill-rule="evenodd">
        <g id="1B" transform="translate(-87.000000, -208.000000)">
            <g id="Group-11" transform="translate(87.000000, 208.000000)">
                <g id="Group-6" transform="translate(0.000000, 14.000000)">
                    <path d="M21.0329778,10.3044664 C15.7549333,10.3044664 12.7961778,14.8867292 12.7961778,22.7426087 C12.7961778,30.5984881 15.6747556,35.180751 21.0329778,35.180751 C26.1506667,35.180751 27.9106667,31.6610128 28.3096,27.8991551 L40.8662222,27.8991551 C40.2267556,37.8000445 32.868,44.9995998 21.1131556,44.9995998 C8.1576,44.9995998 0.000977777778,35.8350741 0.000977777778,22.7426087 C0.000977777778,9.73218379 8.1576,0.485617589 20.7924444,0.485617589 C32.7096,0.485617589 39.8258667,7.68717391 40.8662222,17.4239822 L28.3096,17.4239822 C27.9106667,14.0683251 26.1506667,10.3044664 21.0329778,10.3044664" id="Fill-1" fill="#FFC53B"></path>
                    <g id="Group-5" transform="translate(43.022222, 0.000000)">
                        <mask id="mask-2" fill="white">
                            <use xlink:href="#path-1"></use>
                        </mask>
                        <g id="Clip-4"></g>
                        <path d="M22.0729422,45.0002001 C8.39774222,45.0002001 0.160942222,35.7536339 0.160942222,22.743209 C0.160942222,9.73278409 8.39774222,0.486217885 22.0729422,0.486217885 C35.6679644,0.486217885 43.9047644,9.73278409 43.9047644,22.743209 C43.9047644,35.7536339 35.6679644,45.0002001 22.0729422,45.0002001 M22.0729422,35.1813513 C27.6697422,35.1813513 31.1095644,30.843209 31.1095644,22.743209 C31.1095644,14.641208 27.6697422,10.3050667 22.0729422,10.3050667 C16.3940089,10.3050667 12.9561422,14.641208 12.9561422,22.743209 C12.9561422,30.843209 16.3940089,35.1813513 22.0729422,35.1813513" id="Fill-3" fill="#37AA85" mask="url(#mask-2)"></path>
                    </g>
                </g>
                <polygon id="Fill-7" fill="#FE8A8A" points="89 27.9809449 115.746537 36.4186583 115.746537 36.5793578 89 45.0190551 89 58 130 43.6382301 130 29.3597859 89 15"></polygon>
                <g id="Group-10" transform="translate(133.000000, 0.000000)">
                    <mask id="mask-4" fill="white">
                        <use xlink:href="#path-3"></use>
                    </mask>
                    <g id="Clip-9"></g>
                    <path d="M0.5733125,5.92064 C0.5733125,2.22024 3.2564375,0.209709006 6.7083125,0.209709006 C10.1583125,0.209709006 12.8414375,2.22024 12.8414375,5.92064 C12.8414375,9.70169731 10.1583125,11.6335382 6.7083125,11.6335382 C3.2564375,11.6335382 0.5733125,9.70169731 0.5733125,5.92064 L0.5733125,5.92064 Z M0.5733125,57.7301745 L12.8414375,57.7301745 L12.8414375,16.5398634 L0.5733125,16.5398634 L0.5733125,57.7301745 Z" id="Fill-8" fill="#F7F0E9" mask="url(#mask-4)"></path>
                </g>
            </g>
        </g>
    </g>
</svg>