<svg xmlns="http://www.w3.org/2000/svg" xmlns:xlink="http://www.w3.org/1999/xlink" width="48" height="66" viewBox="0 0 48 66">
    <defs>
        <path id="prefix__a" d="M0 0.145L46.291 0.145 46.291 65.6 0 65.6z"/>
    </defs>
    <g fill="none" fill-rule="evenodd">
        <path fill="#2E4E9E" d="M4 29.6c0-.441-.358-.8-.8-.8-.442 0-.8.359-.8.8 0 .441.358.8.8.8.442 0 .8-.359.8-.8"/>
        <path fill="#37AA85" d="M22.558 24.8c0 .795.647 1.442 1.442 1.442.795 0 1.442-.647 1.442-1.442 0-.795-.647-1.442-1.442-1.442-.795 0-1.442.647-1.442 1.442zm-5.758 0c0-3.97 3.23-7.2 7.2-7.2s7.2 3.23 7.2 7.2S27.97 32 24 32s-7.2-3.23-7.2-7.2z"/>
        <path fill="#2D3953" d="M24 13.886c-5.244 0-9.51 4.413-9.51 9.837 0 3.803 5.156 13.542 9.526 20.747 4.36-7.109 9.494-16.77 9.494-20.747 0-5.424-4.266-9.837-9.51-9.837M24 52.8h-.012c-.943-.004-1.825-.492-2.35-1.303C19.494 48.195 8.8 31.334 8.8 23.723 8.8 15.053 15.618 8 24 8s15.2 7.053 15.2 15.723c0 3.644-2.142 9.303-6.55 17.305-3.11 5.645-6.171 10.293-6.3 10.488-.53.804-1.41 1.284-2.35 1.284"/>
        <g transform="translate(.8)">
            <mask id="prefix__b" fill="#fff">
                <use xlink:href="#prefix__a"/>
            </mask>
            <path fill="#FE8A8A" d="M23.145 6.015c-9.613 0-17.433 8.038-17.433 17.919 0 7.685 11.057 24.852 17.427 33.821 6.37-9.011 17.44-26.244 17.44-33.821 0-9.88-7.82-17.919-17.434-17.919zm0 59.585c-.887 0-1.723-.423-2.263-1.145C18.745 61.6 0 36.21 0 23.934 0 10.816 10.383.144 23.145.144c12.763 0 23.146 10.672 23.146 23.79 0 12.117-18.74 37.644-20.878 40.514-.54.725-1.376 1.152-2.264 1.152h-.004z" mask="url(#prefix__b)"/>
        </g>
    </g>
</svg>
