<?xml version="1.0" encoding="UTF-8"?>
<svg width="92px" height="124px" viewBox="0 0 92 124" version="1.1" xmlns="http://www.w3.org/2000/svg" xmlns:xlink="http://www.w3.org/1999/xlink">
    <!-- Generator: Sketch 59.1 (86144) - https://sketch.com -->
    <title>Group 11</title>
    <desc>Created with Sketch.</desc>
    <defs>
        <polygon id="path-1" points="0.659256058 0.0663714533 22.3238 0.0663714533 22.3238 39.8078857 0.659256058 39.8078857"></polygon>
    </defs>
    <g id="Maquettes-graphiques" stroke="none" stroke-width="1" fill="none" fill-rule="evenodd">
        <g id="7A---EN" transform="translate(-16.000000, -1648.000000)">
            <g id="Group-5" transform="translate(16.000000, 1648.000000)">
                <g id="Group-16" transform="translate(-1.000000, 0.000000)">
                    <g id="Group-6">
                        <g id="Group-11" transform="translate(0.000000, 0.682082)">
                            <g id="Group-7" transform="translate(70.000000, 0.317918)">
                                <mask id="mask-2" fill="white">
                                    <use xlink:href="#path-1"></use>
                                </mask>
                                <g id="Clip-6"></g>
                                <path d="M6.10167,39.8078857 C5.00687,39.8078857 3.90517,39.4593143 2.97367,38.7416 C0.74612,37.0227429 0.34132,33.8341714 2.07092,31.6204571 L10.80977,20.4341714 L1.66267,8.16217143 C-0.01633,5.9096 0.46092,2.73245714 2.72642,1.06388571 C4.99192,-0.604685714 8.19122,-0.131542857 9.86907,2.12102857 L21.32077,17.4856 C22.68352,19.3141714 22.65592,21.8204571 21.25177,23.6170286 L10.13932,37.8444571 C9.13307,39.1324571 7.62427,39.8078857 6.10167,39.8078857" id="Fill-5" fill="#FE8A8A" mask="url(#mask-2)"></path>
                            </g>
                            <path d="M0,102.836973 C0.161635095,61.9249587 0.282861416,31.2409483 0.363678963,10.7849414 C3.47753906,-0.849561991 10.0648817,0.0144491018 10.4712532,0.0144491018 C10.3809484,22.8681763 10.2454913,57.1487672 10.0648817,102.856222 C10.0648817,108.585633 15.2486188,113.26201 21.6211928,113.26201 C27.9926335,113.26201 33.1763706,108.585633 33.1763706,102.836973 L33.1763706,46.396613 C33.1763706,32.2587818 38.0733815,15.4045758 61.4013316,15.4045758 L82.9681258,15.4045758 C85.7469897,15.4045758 88,17.6555776 88,20.4319641 C88,23.2094829 85.7469897,25.4604847 82.9681258,25.4604847 L61.4013316,25.4604847 C48.5031874,25.4604847 43.2412523,31.5261872 43.2412523,46.396613 L43.2412523,102.836973 C43.2412523,114.13048 33.5435614,123.317918 21.6211928,123.317918 C9.6988242,123.317918 0,114.13048 0,102.836973 Z" id="Fill-14" fill="#FE8A8A"></path>
                        </g>
                    </g>
                </g>
            </g>
        </g>
    </g>
</svg>