<?xml version="1.0" encoding="UTF-8"?>
<svg width="26px" height="26px" viewBox="0 0 26 26" version="1.1" xmlns="http://www.w3.org/2000/svg" xmlns:xlink="http://www.w3.org/1999/xlink">
    <!-- Generator: Sketch 59.1 (86144) - https://sketch.com -->
    <title>Group 10</title>
    <desc>Created with Sketch.</desc>
    <defs>
        <polygon id="path-1" points="0 0.365080056 13.2809804 0.365080056 13.2809804 13.785575 0 13.785575"></polygon>
        <polygon id="path-3" points="0.234117094 0.365080056 13.6543744 0.365080056 13.6543744 13.785575 0.234117094 13.785575"></polygon>
    </defs>
    <g id="Consentement-:-Age-under-19" stroke="none" stroke-width="1" fill="none" fill-rule="evenodd">
        <g id="6A---Scénario-1-Recto-02" transform="translate(-271.000000, -33.000000)">
            <g id="Group-4" transform="translate(264.000000, 26.000000)">
                <g id="Group-7" transform="translate(7.000000, 7.000000)">
                    <g id="Group-9">
                        <g id="Group-10">
                            <g id="Group-3" transform="translate(0.000000, 11.655172)">
                                <mask id="mask-2" fill="white">
                                    <use xlink:href="#path-1"></use>
                                </mask>
                                <g id="Clip-2"></g>
                                <path d="M1.84994593,13.785575 C0.828209025,13.785575 -0.000188165177,12.9484579 -0.000188165177,11.9159659 C-0.000188165177,5.54655482 5.12778331,0.365080056 11.4308463,0.365080056 C12.4525832,0.365080056 13.2809804,1.20172185 13.2809804,2.23421389 C13.2809804,3.26670592 12.4525832,4.10382308 11.4308463,4.10382308 C7.16796424,4.10382308 3.70008003,7.60821133 3.70008003,11.9159659 C3.70008003,12.9484579 2.87168284,13.785575 1.84994593,13.785575" id="Fill-1" fill="#FFFFFF" mask="url(#mask-2)"></path>
                            </g>
                            <g id="Group-6" transform="translate(11.655172, 11.655172)">
                                <mask id="mask-4" fill="white">
                                    <use xlink:href="#path-3"></use>
                                </mask>
                                <g id="Clip-5"></g>
                                <path d="M9.91539369,11.9159659 C9.91539369,7.60821133 6.41100544,4.10382308 2.10325092,4.10382308 C-3.38440449,4.10382308 0.234117094,3.26670592 0.234117094,2.23421389 C0.234117094,1.20172185 1.07075889,0.365080056 2.10325092,0.365080056 C8.47266196,0.365080056 13.6546121,5.54655482 13.6546121,11.9159659 C13.6546121,12.9484579 12.8174949,13.785575 11.7850029,13.785575 C10.7525109,13.785575 9.91539369,12.9484579 9.91539369,11.9159659 Z" id="Fill-4" fill="#FFFFFF" mask="url(#mask-4)"></path>
                            </g>
                            <path d="M12.551965,3.57756434 C10.191503,3.57756434 8.27076792,5.391137 8.27076792,7.62046222 C8.27076792,9.85024231 10.191503,11.663815 12.551965,11.663815 C14.9124269,11.663815 16.8326804,9.85024231 16.8326804,7.62046222 C16.8326804,5.391137 14.9124269,3.57756434 12.551965,3.57756434 M12.551965,15.2413793 C8.10267952,15.2413793 4.48275862,11.8225651 4.48275862,7.62046222 C4.48275862,3.41835931 8.10267952,0 12.551965,0 C17.0012504,0 20.6206897,3.41835931 20.6206897,7.62046222 C20.6206897,11.8225651 17.0012504,15.2413793 12.551965,15.2413793" id="Fill-7" fill="#FFFFFF"></path>
                        </g>
                    </g>
                </g>
            </g>
        </g>
    </g>
</svg>