<?xml version="1.0" encoding="UTF-8"?>
<svg width="41px" height="95px" viewBox="0 0 41 95" version="1.1" xmlns="http://www.w3.org/2000/svg" xmlns:xlink="http://www.w3.org/1999/xlink">
    <!-- Generator: Sketch 59.1 (86144) - https://sketch.com -->
    <title>Shape</title>
    <desc>Created with Sketch.</desc>
    <g id="Maquettes-2.0" stroke="none" stroke-width="1" fill="none" fill-rule="evenodd">
        <g id="Accueil---Call-911---Alertes" transform="translate(-318.000000, -1051.000000)" fill="#EBEAEA" fill-rule="nonzero">
            <g id="noun_Question_3266530-Copy-2-+-noun_Question_3266530-Copy-3-Mask-Copy" transform="translate(16.000000, 950.000000)">
                <g id="Group-22">
                    <g id="noun_Question_3266530-Copy-3" transform="translate(302.000000, 101.000000)">
                        <path d="M40.9485719,1.4652066e-10 C35.9702136,-0.0155505133 30.9492543,0.891472124 26.1338723,2.77827955 C10.7287903,8.81415089 0.391636641,23.7172014 0.00329101951,40.457022 C-0.075810856,43.9582269 1.27660002,47.1971032 3.45946664,49.2579535 C5.64233492,51.3187871 8.4243677,52.2662685 11.1655466,52.3300714 C13.9066825,52.3937069 16.7256802,51.569628 18.9995602,49.6127713 C21.2734848,47.6559147 22.8284378,44.5120729 22.9080912,41.010868 C23.0802492,33.5856676 27.5560414,27.106207 34.3860739,24.430136 C36.5504376,23.5821124 38.7925421,23.1748564 41.0064281,23.1852636 C40.9526367,30.7241211 40.9882812,57.7651367 40.9617348,62.3086968 C39.2525491,63.2570256 37.3932101,64.4466815 35.5210471,66.0983013 C31.5350491,69.614829 28.6769464,75.1476957 28.6769464,81.4415251 C28.6769464,87.5261077 28.6769464,92.0895446 28.6769464,95.1318359 C32.5395508,95.1318359 40.8732309,90.7299805 40.8732309,84.7024175 C40.8732309,59 40.9682037,4.63558641 40.9485719,1.4652066e-10 Z M40.0354654,123.089504 C33.5773505,123.089504 28.2587964,128.517473 28.2587964,135.06638 C28.2587964,141.615287 33.5773505,147 40.0354654,147 C46.4935374,147 51.8377377,141.615287 51.8377377,135.06638 C51.8377377,128.517473 46.4935374,123.089504 40.0354654,123.089504 Z" id="Shape"></path>
                    </g>
                </g>
            </g>
        </g>
    </g>
</svg>