<?xml version="1.0" encoding="UTF-8"?>
<svg width="51px" height="124px" viewBox="0 0 51 124" version="1.1" xmlns="http://www.w3.org/2000/svg" xmlns:xlink="http://www.w3.org/1999/xlink">
    <!-- Generator: Sketch 59.1 (86144) - https://sketch.com -->
    <title>Shape</title>
    <desc>Created with Sketch.</desc>
    <g id="Maquettes-2.0" stroke="none" stroke-width="1" fill="none" fill-rule="evenodd">
        <g id="Accueil---Call-911---Alertes" transform="translate(-16.000000, -950.000000)" fill="#EBEAEA" fill-rule="nonzero">
            <g id="noun_Question_3266530-Copy-2-+-noun_Question_3266530-Copy-3-Mask-Copy" transform="translate(16.000000, 950.000000)">
                <g id="Group-22">
                    <g id="noun_Question_3266530-Copy-2" transform="translate(-1.000000, 0.000000)">
                        <path d="M11.6079884,0.198383439 C16.1672184,0.375915517 20.5651463,2.32546349 23.86878,5.84358842 C29.0039532,11.3121164 30.4885154,19.3790299 27.5468719,25.3060344 C23.7732219,32.9093805 20.3665519,34.4592048 14.9679958,37.2483125 C12.4567293,38.5458055 9.01117212,40.0193175 5.52104709,43.0983013 C3.71535038,44.6913233 2.1411181,46.6981344 0.959200342,49.0020275 C1.04101563,53.0727539 1.22558594,81.7236328 1.12362589,87.8222104 C1.49979716,88.3083985 1.91202324,88.7546165 2.35503994,89.1539458 C4.5836106,91.1627993 7.38801484,92.0616163 10.1293242,92.0616163 C12.8706352,92.0616163 15.6408704,91.162682 17.8695302,89.1539458 C20.0981438,87.1450588 21.5817466,83.9495384 21.5817466,80.4481995 L21.5817466,60.2415203 C21.5817466,60.0841064 21.5833204,60.1109002 21.5817466,59.9732467 C21.7189776,59.8895159 21.6502795,59.9313813 21.8036116,59.8426266 C22.6829801,59.340744 23.8810482,58.6906578 25.3195166,57.9474294 C31.4307954,54.7900902 41.5403933,48.7792544 47.9939223,35.7763411 C53.7420967,24.195226 53.0256744,11.0633987 47.6235193,0.147747712 C42.0634766,0.168457031 9.19985692,0.104613089 11.6079884,0.198383439 Z M10.0354654,100.089504 C6.42728187,100.089504 3.17481414,101.783854 1.0068822,104.421403 C0.970703125,109.342285 1.06787109,114.983398 1.07999941,119.781227 C3.24758291,122.356526 6.46762088,124 10.0354654,124 C16.4935374,124 21.8377377,118.615287 21.8377377,112.06638 C21.8377377,105.517473 16.4935374,100.089504 10.0354654,100.089504 Z" id="Shape"></path>
                    </g>
                </g>
            </g>
        </g>
    </g>
</svg>