<?xml version="1.0" encoding="UTF-8"?>
<svg width="22px" height="18px" viewBox="0 0 22 18" version="1.1" xmlns="http://www.w3.org/2000/svg" xmlns:xlink="http://www.w3.org/1999/xlink">
    <!-- Generator: Sketch 59.1 (86144) - https://sketch.com -->
    <title>Path</title>
    <desc>Created with Sketch.</desc>
    <g id="Retroactions" stroke="none" stroke-width="1" fill="none" fill-rule="evenodd">
        <g id="5.7---EN-Copy-3" transform="translate(-271.000000, -487.000000)" fill="#DD9F1D" fill-rule="nonzero">
            <path d="M290.6604,487.001067 C290.069715,487.018621 289.510106,487.285131 289.097088,487.741551 C285.49821,491.629083 282.213208,495.440136 278.758004,499.244489 L274.695665,495.733552 C274.22489,495.326606 273.623858,495.138304 273.024267,495.210126 C272.423235,495.28194 271.875488,495.6075 271.497981,496.116602 C271.121956,496.624094 270.947278,497.272002 271.013904,497.918358 C271.080522,498.566267 271.382527,499.156734 271.853279,499.563683 L277.538051,504.4662 C278.447009,505.244965 279.752763,505.163583 280.56993,504.274695 C284.658797,499.857528 288.322822,495.517984 292.318459,491.201318 C292.986116,490.494334 293.184515,489.418722 292.818833,488.491534 C292.451691,487.562752 291.596,486.972244 290.6604,487.001005 L290.6604,487.001067 Z" id="Path"></path>
        </g>
    </g>
</svg>