<?xml version="1.0" encoding="UTF-8"?>
<svg width="18px" height="14px" viewBox="0 0 18 14" version="1.1" xmlns="http://www.w3.org/2000/svg" xmlns:xlink="http://www.w3.org/1999/xlink">
    <!-- Generator: Sketch 59.1 (86144) - https://sketch.com -->
    <title>share</title>
    <desc>Created with Sketch.</desc>
    <g id="3.-Maquettes-graphiques" stroke="none" stroke-width="1" fill="none" fill-rule="evenodd">
        <g id="Page-conseils-et-recommandations" transform="translate(-246.000000, -1389.000000)" fill="#FFFFFF" fill-rule="nonzero">
            <g id="share" transform="translate(246.000000, 1389.000000)">
                <path d="M1.89771429,13.5163636 L15.6908571,13.5163636 C16.7322857,13.5163636 17.5885714,12.6687273 17.5885714,11.6149091 L17.5885714,8.63672727 C17.5885714,8.13272727 17.172,7.72036364 16.6628571,7.72036364 C16.1537143,7.72036364 15.7371429,8.13272727 15.7371429,8.63672727 L15.7371429,11.6149091 C15.7371429,11.6607273 15.714,11.6836364 15.6908571,11.6836364 L1.89771429,11.6836364 C1.87457143,11.6836364 1.85142857,11.6607273 1.85142857,11.6149091 L1.85142857,2.61163636 C1.85142857,2.56581818 1.87457143,2.54290909 1.89771429,2.54290909 L6.48,2.52 C6.98914286,2.52 7.40571429,2.10763636 7.40571429,1.60363636 C7.40571429,1.09963636 6.98914286,0.687272727 6.48,0.687272727 C6.48,0.687272727 6.48,0.687272727 6.48,0.687272727 L1.89771429,0.687272727 C0.856285714,0.687272727 0,1.55781818 0,2.61163636 L0,11.6149091 C0,12.6687273 0.856285714,13.5163636 1.89771429,13.5163636 Z" id="Path"></path>
                <path d="M5.06828571,8.22436364 C5.04514286,8.36181818 5.23028571,8.45345455 5.32285714,8.33890909 C7.38257143,5.97927273 11.5482857,6.11672727 12.3582857,6.16254545 C12.4277143,6.16254545 12.4971429,6.23127273 12.4971429,6.3 L12.4971429,8.15563636 C12.4971429,8.27018182 12.636,8.33890909 12.7285714,8.27018182 L17.6811429,4.21527273 C17.7505714,4.14654545 17.7505714,4.05490909 17.6811429,3.98618182 L12.7285714,0.183272727 C12.636,0.114545455 12.4971429,0.183272727 12.4971429,0.297818182 L12.4971429,2.17636364 C12.4971429,2.24509091 12.4508571,2.31381818 12.3814286,2.31381818 C6.642,3.36763636 5.36914286,6.84981818 5.06828571,8.22436364 Z" id="Path"></path>
            </g>
        </g>
    </g>
</svg>