<?xml version="1.0" encoding="UTF-8"?>
<svg width="21px" height="21px" viewBox="0 0 21 21" version="1.1" xmlns="http://www.w3.org/2000/svg" xmlns:xlink="http://www.w3.org/1999/xlink">
    <!-- Generator: Sketch 59.1 (86144) - https://sketch.com -->
    <title>Group</title>
    <desc>Created with Sketch.</desc>
    <g id="Maquettes-graphiques" stroke="none" stroke-width="1" fill="none" fill-rule="evenodd">
        <g id="6A---911-Card" transform="translate(-268.000000, -812.000000)" fill="#2E4E9E" fill-rule="nonzero" stroke="#2E4E9E">
            <g id="noun_External-Link_189137-Copy-5" transform="translate(269.000000, 813.000000)">
                <g id="Group">
                    <path d="M17.866938,0.00835164835 L11.9401494,0.00835164835 C11.4649319,0.00835164835 11.0797991,0.397538462 11.0797991,0.877758242 C11.0797991,1.35797802 11.4649319,1.74716484 11.9401494,1.74716484 L15.8854876,1.74716484 L7.44231914,10.2792088 C7.10615442,10.6187033 7.10615442,11.1692857 7.44231914,11.5087802 C7.61029819,11.6785275 7.83055117,11.7635055 8.05059753,11.7635055 C8.27064389,11.7635055 8.49089686,11.6785275 8.65887592,11.5087802 L17.0065877,3.07298901 L17.0065877,6.86672527 C17.0065877,7.34694505 17.3917205,7.73613187 17.866938,7.73613187 C18.3421554,7.73613187 18.7272882,7.34694505 18.7272882,6.86672527 L18.7272882,0.877758242 C18.7272882,0.397538462 18.3421554,0.00835164835 17.866938,0.00835164835 Z" id="Path"></path>
                    <path d="M14.8910434,8.76421978 C14.4158259,8.76421978 14.0306931,9.15340659 14.0306931,9.63362637 L14.0306931,16.4928352 C14.0306931,16.8070659 13.7680838,17.0724396 13.4571263,17.0724396 L2.48786687,17.0724396 C2.17690934,17.0724396 1.91430002,16.8070659 1.91430002,16.4928352 L1.91430002,5.40810989 C1.91430002,5.09387912 2.17690934,4.82850549 2.48786687,4.82850549 L9.29959306,4.82850549 C9.77481055,4.82850549 10.1599433,4.43931868 10.1599433,3.9590989 C10.1599433,3.47887912 9.77481055,3.08969231 9.29959306,3.08969231 L2.48786687,3.08969231 C1.22275527,3.08969231 0.193599473,4.12968132 0.193599473,5.40810989 L0.193599473,16.4928352 C0.193599473,17.7712637 1.22275527,18.8112527 2.48786687,18.8112527 L13.4571263,18.8112527 C14.7222379,18.8112527 15.7513937,17.7712637 15.7513937,16.4928352 L15.7513937,9.63362637 C15.7513937,9.15361538 15.3662609,8.76421978 14.8910434,8.76421978 Z" id="Path"></path>
                </g>
            </g>
        </g>
    </g>
</svg>