<svg xmlns="http://www.w3.org/2000/svg" xmlns:xlink="http://www.w3.org/1999/xlink" width="74" height="35" viewBox="0 0 74 35">
    <defs>
        <path id="prefix__a" d="M0.071 0.047L47.985 0.047 47.985 19.984 0.071 19.984z"/>
    </defs>
    <g fill="none" fill-rule="evenodd">
        <path fill="#2E4E9E" d="M22.863 6.032c-.16-1.122-.525-2.173-1.191-3.11-.957-1.347-2.292-2.189-3.901-2.58-3.1-.752-6.018-.257-8.706 1.41-1.74 1.077-3.113 2.534-4.245 4.195C2.262 9.702.69 13.819.157 18.298c-.255 2.14-.22 4.279.255 6.39.651 2.904 1.986 5.47 4.135 7.603 1.724 1.711 3.798 2.681 6.3 2.708 2.422.027 4.518-.721 6.173-2.475 1.715-1.818 3.092-3.856 4.105-6.12.619-1.382.92-2.823.806-4.335-.014-.186-.095-.297-.26-.368-.329-.141-.674-.16-1.026-.12-.419.05-.676.23-.774.678-.336 1.533-.936 2.97-1.771 4.313-1.203 1.937-2.626 3.7-4.365 5.208-.713.619-1.507 1.125-2.431 1.41-.204.063-.399.06-.603-.002-.684-.206-1.282-.568-1.837-.992-2.536-1.933-4.222-4.412-5.01-7.455-.58-2.243-.598-4.518-.312-6.798.388-3.094 1.302-6.045 2.664-8.864.861-1.784 1.891-3.464 3.271-4.924 1.045-1.105 2.226-2.027 3.689-2.56 1.46-.531 2.91-.586 4.33.135 1.721.875 2.8 2.253 3.35 4.047.219.715.366 1.444.447 2.185.005.344-.009.687-.039 1.03-.033.108-.014.221-.035.332-.013.068.008.133.077.17.316.17.967.282 1.28-.095.032-.058.07-.114.095-.175.41-1.044.391-2.113.192-3.192"/>
        <g transform="translate(26 10)">
            <mask id="prefix__b" fill="#fff">
                <use xlink:href="#prefix__a"/>
            </mask>
            <path fill="#2E4E9E" d="M8.324 3.936c-.082.02-.161.06-.233.105-.237.147-.278.316-.119.546.087.125.135.257.15.404.04.376.044.753-.022 1.127-.09.123-.161.249-.056.4-.49 2.172-1.131 4.286-2.34 6.18-.426.666-.923 1.273-1.542 1.769-.149.118-.31.223-.473.322-.217.131-.22.126-.357-.1-.317-.522-.382-1.108-.404-1.7-.057-1.478.226-2.896.758-4.27.666-1.716 1.572-3.288 2.761-4.691.373-.44.79-.831 1.263-1.163.129-.09.2-.068.284.052.181.256.325.528.43.824.041.116.018.166-.1.195m39.472 5.157c-.325-.192-.67-.254-1.037-.127-.133.047-.221.136-.267.27-.058.171-.13.337-.216.498-.014.022-.03.043-.041.066-.499 1.13-1.181 2.141-1.97 3.08C42.9 14.5 41.395 15.96 39.529 17c-1.197.666-2.431 1.23-3.794 1.46-.785.133-1.524.05-2.233-.343-2.418-1.34-3.95-3.29-4.185-6.135-.117-1.414.004-2.821.152-4.225.177-1.674.474-3.332.733-4.994.094-.603.167-1.207.141-1.82-.01-.23-.112-.403-.292-.536-.48-.355-1.668-.556-2.36-.08-.614.424-1.207.871-1.797 1.325-.44.337-.928.547-1.484.59-.15.01-.304.02-.45.056-.257.065-.422-.032-.558-.248-.134-.212-.28-.423-.507-.547-.584-.32-1.203-.408-1.85-.246-.327.082-.515.3-.558.642-.153 1.219-.444 2.408-.75 3.595-.57 2.215-1.264 4.388-2.155 6.495-.28.664-.588 1.315-.988 1.947-.114-.405-.189-.793-.253-1.184-.28-1.698-.312-3.414-.354-5.13-.042-1.701-.08-3.403-.111-5.105-.006-.36-.154-.613-.478-.75-.715-.305-1.42-.36-2.107.094-.452.3-.874.637-1.306.962-.494.37-1.019.678-1.627.824-.15.035-.212.03-.245-.15-.15-.84-.633-1.42-1.423-1.712-1.095-.403-2.168-.336-3.203.225-.908.492-1.644 1.186-2.273 1.997C1.767 5.867.794 7.957.313 10.27c-.196.941-.313 1.897-.194 2.863.141 1.148.646 2.077 1.697 2.613 1.452.74 3.424.713 5.034-.666.92-.788 1.531-1.789 1.995-2.894.634-1.511 1.074-3.086 1.455-4.678.181-.76.317-1.532.29-2.32-.007-.19.027-.254.226-.272.91-.084 1.798-.256 2.575-.79.01-.007.034.004.057.007-.064 1.108-.119 2.212-.15 3.318-.044 1.577-.038 3.153.169 4.72.13.995.325 1.974.702 2.908.161.398.407.732.788.937.782.42 1.608.527 2.465.298.628-.167 1.067-.61 1.453-1.107.532-.685.902-1.461 1.217-2.264 1.192-3.04 2.106-6.16 2.645-9.387.028-.172.078-.239.262-.2.655.142 1.319.113 1.983.088.876-.033 1.732-.135 2.509-.588.008-.005.024.004.051.01-.052.266-.104.531-.158.797-.2.987-.34 1.984-.5 2.978-.24 1.48-.427 2.967-.374 4.47.185 5.24 4.28 8.634 8.652 8.857 2.528.13 4.81-.585 6.816-2.105 1.854-1.405 3.35-3.168 4.623-5.12.39-.598.73-1.226.972-1.903.145-.43.285-.86.389-1.302.052-.222.025-.332-.166-.446" mask="url(#prefix__b)"/>
        </g>
        <path fill="#2E4E9E" d="M56.985 3.71c.116-.82-.455-1.58-1.275-1.695-.82-.116-1.58.455-1.695 1.275-.116.82.455 1.58 1.275 1.695.82.116 1.58-.455 1.695-1.275z"/>
    </g>
</svg>
