<?xml version="1.0" encoding="UTF-8"?>
<svg width="824px" height="693px" viewBox="0 0 824 693" version="1.1" xmlns="http://www.w3.org/2000/svg" xmlns:xlink="http://www.w3.org/1999/xlink">
    <!-- Generator: Sketch 59.1 (86144) - https://sketch.com -->
    <title>svg</title>
    <desc>Created with Sketch.</desc>
    <defs>
        <rect id="path-1" x="0" y="0" width="288" height="80" rx="12"></rect>
        <rect id="path-3" x="1.03174603" y="1.12765957" width="128.968254" height="47.8723404" rx="23.9361702"></rect>
        <filter x="-48.8%" y="-131.6%" width="197.7%" height="363.2%" filterUnits="objectBoundingBox" id="filter-4">
            <feMorphology radius="1" operator="dilate" in="SourceAlpha" result="shadowSpreadOuter1"></feMorphology>
            <feOffset dx="0" dy="0" in="shadowSpreadOuter1" result="shadowOffsetOuter1"></feOffset>
            <feGaussianBlur stdDeviation="20" in="shadowOffsetOuter1" result="shadowBlurOuter1"></feGaussianBlur>
            <feColorMatrix values="0 0 0 0 0.91372549   0 0 0 0 0.921568627   0 0 0 0 0.925490196  0 0 0 1 0" type="matrix" in="shadowBlurOuter1"></feColorMatrix>
        </filter>
        <rect id="path-5" x="0" y="0" width="288" height="80" rx="12"></rect>
        <rect id="path-7" x="0" y="0" width="288" height="80" rx="12"></rect>
        <polygon id="path-9" points="0 0.0383471074 12.0349971 0.0383471074 12.0349971 19.2612428 0 19.2612428"></polygon>
        <polygon id="path-11" points="0.0496212766 0.0264986301 22.976266 0.0264986301 22.976266 11.9197315 0.0496212766 11.9197315"></polygon>
        <polygon id="path-13" points="0.0496212766 0.00927034483 22.976266 0.00927034483 22.976266 10.9790014 0.0496212766 10.9790014"></polygon>
        <polygon id="path-15" points="0 0.0390361446 18.9171341 0.0390361446 18.9171341 27 0 27"></polygon>
    </defs>
    <g id="3.-Maquettes-graphiques" stroke="none" stroke-width="1" fill="none" fill-rule="evenodd">
        <g id="Étape-2" transform="translate(628.000000, 79.000000)">
            <rect fill="#FFFFFF" x="0" y="0" width="320" height="536"></rect>
            <g id="Oval" transform="translate(16.000000, 181.000000)">
                <g id="Mask">
                    <g>
                        <mask id="mask-2" fill="white">
                            <use xlink:href="#path-1"></use>
                        </mask>
                        <use fill="#FAF9F7" xlink:href="#path-1"></use>
                    </g>
                </g>
                <circle fill="#F5E2E3" cx="17" cy="40" r="34"></circle>
            </g>
            <g id="Bouton-1-Copy" transform="translate(174.000000, 471.000000)">
                <g id="Rectangle-Copy-8">
                    <use fill="black" fill-opacity="1" filter="url(#filter-4)" xlink:href="#path-3"></use>
                    <use fill="#F9C559" fill-rule="evenodd" xlink:href="#path-3"></use>
                </g>
                <text id="Bouton-Copy" font-family="NeueMontreal-Medium, Neue Montreal" font-size="16" font-weight="400" letter-spacing="0.3" fill="#334D53">
                    <tspan x="38.094" y="16.4680851">Suivant</tspan>
                </text>
            </g>
            <text id="To-join-the-fight-ag" font-family="NeueMontreal-Regular, Neue Montreal" font-size="14" font-weight="normal" line-spacing="18" fill="#7A8284">
                <tspan x="58.563" y="143">To join the fight against COVID-19, </tspan>
                <tspan x="85.59" y="161">we need your consent to:</tspan>
            </text>
            <g id="Oval" transform="translate(16.000000, 271.000000)">
                <g id="Mask">
                    <mask id="mask-6" fill="white">
                        <use xlink:href="#path-5"></use>
                    </mask>
                    <use fill="#FAF9F7" xlink:href="#path-5"></use>
                    <circle id="Oval" fill="#F5E2E3" mask="url(#mask-6)" cx="18" cy="-50" r="32"></circle>
                </g>
                <circle fill="#F5E2E3" cx="10" cy="40" r="32"></circle>
                <circle fill="#F5E2E3" cx="17" cy="40" r="34"></circle>
            </g>
            <g id="Oval" transform="translate(16.000000, 361.000000)">
                <g id="Mask">
                    <g>
                        <mask id="mask-8" fill="white">
                            <use xlink:href="#path-7"></use>
                        </mask>
                        <use fill="#FAF9F7" xlink:href="#path-7"></use>
                        <circle id="Oval" fill="#F5E2E3" mask="url(#mask-8)" cx="15" cy="-58" r="32"></circle>
                        <circle id="Oval" fill="#F5E2E3" mask="url(#mask-8)" cx="15" cy="-58" r="32"></circle>
                    </g>
                </g>
                <circle fill="#F5E2E3" cx="17" cy="40" r="34"></circle>
            </g>
            <g id="Group-9" transform="translate(28.000000, 295.000000)">
                <g id="Group-8">
                    <g id="Group-5">
                        <mask id="mask-10" fill="white">
                            <use xlink:href="#path-9"></use>
                        </mask>
                        <g id="Clip-4"></g>
                        <path d="M9.53918417,12.3409939 C9.78593237,12.5900105 9.7842705,12.9947322 9.53554388,13.2416716 L6.45498993,16.3012915 C6.06041439,16.6933107 5.38601151,16.4139361 5.38601151,15.8491152 L5.38601151,11.2109526 L3.37807626,13.2380766 C3.11953669,13.4990766 2.69148633,13.485016 2.45122734,13.195735 C2.24784604,12.9510325 2.27617698,12.556297 2.49997554,12.3303686 L5.12573094,9.67962479 L2.4998964,7.02872121 C2.27617698,6.80279284 2.24784604,6.4080573 2.45130647,6.16335482 C2.6916446,5.87423361 3.11953669,5.86009311 3.37807626,6.12125289 L5.38601151,8.14821708 L5.38601151,3.51013444 C5.38601151,2.94890854 6.05843597,2.66402149 6.45498993,3.05787824 L9.53554388,6.11749807 C9.78434964,6.36443747 9.78593237,6.76923912 9.53918417,7.01825565 L6.9029036,9.67962479 L9.53918417,12.3409939 Z M-3.16546763e-05,6.15983967 L-3.16546763e-05,13.1397322 C-3.16546763e-05,16.3029691 2.3827741,18.9776 5.50550791,19.2397185 C9.05320576,19.5374678 12.0349971,16.7068121 12.0349971,13.1864678 L12.0349971,6.11310413 C12.0349971,2.59275978 9.05344317,-0.237815978 5.50558705,0.0598534435 C2.38293237,0.321892011 -3.16546763e-05,2.99652287 -3.16546763e-05,6.15983967 L-3.16546763e-05,6.15983967 Z" id="Fill-3" fill="#EA8E92" mask="url(#mask-10)"></path>
                        <polygon id="Fill-1" fill="#EA8E92" mask="url(#mask-10)" points="6.38709677 5.075 6.38709677 7.975 7.80645161 6.51328313"></polygon>
                        <polygon id="Fill-2" fill="#EA8E92" mask="url(#mask-10)" points="6.38709677 11.6 6.38709677 14.5 7.80645161 13.0618284"></polygon>
                    </g>
                    <path d="M21.9644597,7.38820937 L21.9644597,4.22936639 C21.9644597,3.2825124 21.2041144,2.51493113 20.2661863,2.51493113 L14.4433086,2.51493113 L14.4433086,2.51692837 C14.4300137,2.51660882 14.4171144,2.51493113 14.4037403,2.51493113 C13.6825676,2.51493113 13.0979849,3.10515702 13.0979849,3.83311295 C13.0979849,4.56106887 13.6825676,5.15129477 14.4037403,5.15129477 C14.4171144,5.15129477 14.4300137,5.14961708 14.4433086,5.14929752 L14.4433086,5.17526171 L20.6175532,5.17526171 L20.6175532,6.58931129 L20.6159705,6.58931129 L20.6159705,25.6829752 L20.6175532,25.6829752 L20.6175532,26.3396694 L5.97726547,26.3396694 L5.97726547,21.0493664 L5.97370432,21.0493664 C5.95304964,20.6930579 5.66111439,20.4102479 5.30302086,20.4102479 C4.94492734,20.4102479 4.65299209,20.6930579 4.63233741,21.0493664 L4.63035899,21.0493664 L4.63035899,27.2855647 C4.63035899,28.2324187 5.39070432,29 6.32863237,29 L20.2661863,29 C21.2041144,29 21.9644597,28.2324187 21.9644597,27.2855647 L21.9644597,24.6444077 L21.9612942,24.6444077 L21.9612942,7.38820937 L21.9644597,7.38820937 Z" id="Fill-6" fill="#EA8E92"></path>
                </g>
            </g>
            <g id="Group-9" transform="translate(32.000000, 207.000000)">
                <g id="Group-3" transform="translate(4.000000, 2.000000)">
                    <mask id="mask-12" fill="white">
                        <use xlink:href="#path-11"></use>
                    </mask>
                    <g id="Clip-2"></g>
                    <path d="M21.2960752,2.74712877 C20.7333908,2.74712877 20.2765716,2.2867726 20.2765716,1.71973151 C20.2765716,1.15260822 20.7333908,0.692334247 21.2960752,0.692334247 C21.8588411,0.692334247 22.3155787,1.15260822 22.3155787,1.71973151 C22.3155787,2.2867726 21.8588411,2.74712877 21.2960752,2.74712877 M14.7794901,8.45115616 C14.2166426,8.45115616 13.7599865,7.99096438 13.7599865,7.4237589 C13.7599865,6.85671781 14.2166426,6.39636164 14.7794901,6.39636164 C15.3421745,6.39636164 15.7989936,6.85671781 15.7989936,7.4237589 C15.7989936,7.99096438 15.3421745,8.45115616 14.7794901,8.45115616 M8.25466738,6.80732055 C7.69181986,6.80732055 7.23516383,6.34712877 7.23516383,5.77992329 C7.23516383,5.21288219 7.69181986,4.75252603 8.25466738,4.75252603 C8.81735177,4.75252603 9.27417092,5.21288219 9.27417092,5.77992329 C9.28224539,6.34712877 8.81735177,6.80732055 8.25466738,6.80732055 M1.73791915,11.2539781 C1.17523475,11.2539781 0.718415603,10.7936219 0.718415603,10.2265808 C0.718415603,9.65945753 1.17523475,9.19918356 1.73791915,9.19918356 C2.30076667,9.19918356 2.7574227,9.65945753 2.7574227,10.2265808 C2.7574227,10.7936219 2.30076667,11.2539781 1.73791915,11.2539781 M21.2960752,0.0264986301 C20.3663695,0.0264986301 19.6159333,0.782745205 19.6159333,1.71973151 C19.6159333,2.0237589 19.6974936,2.31143014 19.8362277,2.55800548 L15.7989936,6.09225205 C15.5135326,5.87041644 15.1627418,5.7388274 14.7712525,5.7388274 C14.1024582,5.7388274 13.5233801,6.13334795 13.2542312,6.70869041 L9.92665319,5.87041644 C9.92665319,5.84567671 9.93472766,5.81288219 9.93472766,5.78822466 C9.93472766,4.85123836 9.18437305,4.09499178 8.25466738,4.09499178 C7.32479858,4.09499178 6.57444397,4.85123836 6.57444397,5.78822466 C6.57444397,6.01836164 6.6234617,6.24027945 6.70502199,6.4457589 L2.91246879,9.02649863 C2.61061418,8.72238904 2.19465674,8.53334795 1.72984468,8.53334795 C0.799975887,8.53334795 0.0496212766,9.28959452 0.0496212766,10.2265808 C0.0496212766,11.1634849 0.799975887,11.9197315 1.72984468,11.9197315 C2.65955035,11.9197315 3.40990496,11.1634849 3.40990496,10.2265808 C3.40990496,9.99636164 3.36105035,9.77452603 3.27949007,9.56904658 L7.07204326,6.98822466 C7.37373475,7.29233425 7.7896922,7.48137534 8.25466738,7.48137534 C8.92338014,7.48137534 9.50245816,7.08685479 9.77160709,6.51151233 L13.0992667,7.34986849 C13.0992667,7.37452603 13.0911106,7.40732055 13.0911106,7.43206027 C13.0911106,8.36896438 13.8415468,9.12521096 14.7712525,9.12521096 C15.7010397,9.12521096 16.4514759,8.36896438 16.4514759,7.43206027 C16.4514759,7.12795068 16.3699156,6.84027945 16.2311816,6.59370411 L20.2684156,3.05945753 C20.5538766,3.28137534 20.9045858,3.41288219 21.2960752,3.41288219 C22.2258624,3.41288219 22.9762986,2.65663562 22.9762986,1.71973151 C22.9762986,0.782745205 22.2258624,0.0264986301 21.2960752,0.0264986301" id="Fill-1" fill="#EA8E92" mask="url(#mask-12)"></path>
                </g>
                <g id="Group-6" transform="translate(4.000000, 7.000000)">
                    <mask id="mask-14" fill="white">
                        <use xlink:href="#path-13"></use>
                    </mask>
                    <g id="Clip-5"></g>
                    <path d="M21.2960752,2.52038069 C20.7333908,2.52038069 20.2765716,2.09547724 20.2765716,1.57210483 C20.2765716,1.04865655 20.7333908,0.623828966 21.2960752,0.623828966 C21.8588411,0.623828966 22.3155787,1.04865655 22.3155787,1.57210483 C22.3155787,2.09547724 21.8588411,2.52038069 21.2960752,2.52038069 M14.7794901,9.62107034 C14.2166426,9.62107034 13.7599865,9.19624276 13.7599865,8.67279448 C13.7599865,8.14934621 14.2166426,7.72451862 14.7794901,7.72451862 C15.3421745,7.72451862 15.7989936,8.14934621 15.7989936,8.67279448 C15.7989936,9.19624276 15.3421745,9.62107034 14.7794901,9.62107034 M8.25466738,6.26789103 C7.69181986,6.26789103 7.23516383,5.84313931 7.23516383,5.31961517 C7.23516383,4.79624276 7.69181986,4.37133931 8.25466738,4.37133931 C8.81735177,4.37133931 9.27417092,4.79624276 9.27417092,5.31961517 C9.27417092,5.84313931 8.81735177,6.26789103 8.25466738,6.26789103 M1.73791915,10.3721048 C1.17523475,10.3721048 0.718415603,9.94720138 0.718415603,9.42382897 C0.718415603,8.90038069 1.17523475,8.4755531 1.73791915,8.4755531 C2.30076667,8.4755531 2.7574227,8.90038069 2.7574227,9.42382897 C2.7574227,9.94720138 2.30076667,10.3721048 1.73791915,10.3721048 M21.2960752,0.00927034483 C20.3663695,0.00927034483 19.6159333,0.707277241 19.6159333,1.57210483 C19.6159333,1.93624276 19.7546674,2.27003586 19.9747986,2.5355531 L15.5868553,7.30727724 C15.3421745,7.17823586 15.0649511,7.11003586 14.7712525,7.11003586 C14.2574227,7.11003586 13.8007667,7.32244966 13.490756,7.66382897 L9.85316738,5.79762207 C9.90210355,5.64589793 9.93472766,5.48658759 9.93472766,5.32727724 C9.93472766,4.46244966 9.18437305,3.76444276 8.25466738,3.76444276 C7.32479858,3.76444276 6.57444397,4.46244966 6.57444397,5.32727724 C6.57444397,5.53969103 6.6234617,5.74451862 6.70502199,5.93417379 L2.91246879,8.30865655 C2.61061418,8.0279669 2.1947383,7.85348414 1.72984468,7.85348414 C0.799975887,7.85348414 0.0496212766,8.55141517 0.0496212766,9.4161669 C0.0496212766,10.2810703 0.799975887,10.9790014 1.72984468,10.9790014 C2.65955035,10.9790014 3.40990496,10.2810703 3.40990496,9.4161669 C3.40990496,9.20382897 3.36105035,8.99892552 3.27949007,8.80927034 L7.07204326,6.42727724 C7.37373475,6.7079669 7.7896922,6.88244966 8.25466738,6.88244966 C8.7684156,6.88244966 9.22515319,6.67003586 9.53508227,6.32865655 L13.1726709,8.19486345 C13.1237348,8.34658759 13.0911106,8.50582207 13.0911106,8.66520828 C13.0911106,9.52996 13.8415468,10.2279669 14.7712525,10.2279669 C15.7010397,10.2279669 16.4514759,9.52996 16.4514759,8.66520828 C16.4514759,8.30107034 16.3127418,7.96727724 16.0925291,7.70176 L20.4804723,2.92996 C20.7251532,3.05900138 21.0024582,3.12727724 21.2960752,3.12727724 C22.2258624,3.12727724 22.9762986,2.42934621 22.9762986,1.56444276 C22.9762986,0.699691034 22.2258624,0.00927034483 21.2960752,0.00927034483" id="Fill-4" fill="#EA8E92" mask="url(#mask-14)"></path>
                </g>
                <path d="M17.2982104,5.61957046 C17.6700603,5.61957046 17.9732104,5.33126207 17.9945763,4.96802606 L18,4.96802606 L18,1.74776786 C18,0.782504826 17.2103634,0 16.2364865,0 L1.76351351,0 C0.789472243,0 0,0.782504826 0,1.74776786 L0,25.2522321 C0,26.2174952 0.789472243,27 1.76351351,27 L16.2364865,27 C17.2103634,27 18,26.2174952 18,25.2522321 L18,18.7319015 L17.9945763,18.7319015 C17.9732104,18.3686655 17.6700603,18.0803571 17.2982104,18.0803571 C16.9262783,18.0803571 16.6231282,18.3686655 16.6017622,18.7319015 L16.6012692,18.7403716 C16.6007761,18.7511221 16.5997078,18.7617097 16.5997078,18.7726231 C16.5997078,18.7835364 16.6007761,18.794124 16.6012692,18.8048745 L16.6012692,24.2879464 L1.39856647,24.2879464 L1.39856647,2.71205357 L16.6012692,2.71205357 L16.6012692,4.89505309 C16.6007761,4.90580357 16.5997078,4.91639117 16.5997078,4.92730454 C16.5997078,4.93821791 16.6007761,4.9488055 16.6012692,4.95955598 L16.6012692,4.96802606 C16.6231282,5.33126207 16.9262783,5.61957046 17.2982104,5.61957046 Z" id="Fill-7" fill="#EA8E92"></path>
            </g>
            <g id="Group-6" transform="translate(32.000000, 386.000000)">
                <path d="M9.3300261,16.6412505 L9.87799854,15.587813 L17.9675862,15.587813 L18.5155586,16.6412505 L9.3300261,16.6412505 Z M14.5756112,18.2213644 C14.5756112,18.512275 14.3301753,18.7481256 14.0276388,18.7481256 C13.7250139,18.7481256 13.4796663,18.512275 13.4796663,18.2213644 L13.4796663,17.6946881 L14.5756112,17.6946881 L14.5756112,18.2213644 Z M10.1920964,10.8473016 C10.1920964,8.65906657 12.1750877,6.91606308 14.5080082,7.18839412 C16.4545504,7.41559116 17.8631811,9.102262 17.8631811,10.9872 L17.8631811,14.5343754 L10.1920964,14.5343754 L10.1920964,10.8473016 Z M13.4796663,5.05343754 L14.5756112,5.05343754 L14.5756112,6.13792591 C14.2115612,6.09643997 13.8437163,6.09643997 13.4796663,6.13792591 L13.4796663,5.05343754 Z M20,17.1679269 L18.9589494,15.1358792 L18.9589494,10.972014 C18.955331,8.92893729 17.638838,7.10898544 15.6714678,6.42680043 L15.6714678,4.52667635 C15.6714678,4.23576572 15.426032,4 15.1234954,4 L12.9317821,4 C12.6291573,4 12.3838097,4.23576572 12.3838097,4.52667635 L12.3838097,6.3833632 C10.416263,7.05341633 9.09994652,8.84079027 9.09623982,10.8473016 L9.09623982,14.9367636 L8.05792516,16.9325005 C7.92263095,17.1926997 8.0324196,17.5090618 8.30309627,17.639119 C8.37925994,17.6756843 8.46319001,17.6946881 8.54835564,17.6946881 L12.3838097,17.6946881 L12.3838097,18.4198861 C12.2789633,19.2925332 13.0149179,20 13.9227924,20 C14.8305786,20 15.5665332,19.2925332 15.6714678,18.4198861 L15.6714678,17.6946881 L19.4020755,17.6946881 C19.7858062,17.6983361 19.9998235,17.4742781 20,17.1833674 L20,17.1679269 Z" id="Fill-1" fill="#EA8E92"></path>
                <g id="Group-5">
                    <mask id="mask-16" fill="white">
                        <use xlink:href="#path-15"></use>
                    </mask>
                    <g id="Clip-4"></g>
                    <path d="M17.4471386,19.8010843 L17.4471386,24.2918675 L1.46986591,24.2918675 L1.46986591,2.74716867 L17.4471386,2.74716867 L17.4471386,4.92701205 C17.4466205,4.93774699 17.4454114,4.94831928 17.4454114,4.95921687 C17.4454114,4.97011446 17.4466205,4.98068675 17.4471386,4.99142169 L17.4471386,4.99987952 L17.4476568,4.99987952 C17.4701114,5.36259036 17.7887068,5.65048193 18.1795023,5.65048193 C18.5703841,5.65048193 18.8889795,5.36259036 18.9114341,4.99987952 L18.9171341,4.99987952 L18.9171341,1.78427711 C18.9171341,0.820409639 18.0872659,0.0390361446 17.0637705,0.0390361446 L1.85332045,0.0390361446 C0.829738636,0.0390361446 -4.31818182e-05,0.820409639 -4.31818182e-05,1.78427711 L-4.31818182e-05,25.254759 C-4.31818182e-05,26.2186265 0.829738636,27 1.85332045,27 L17.0637705,27 C18.0872659,27 18.9171341,26.2186265 18.9171341,25.254759 L18.9171341,19.8010843 L17.4471386,19.8010843 Z" id="Fill-3" fill="#EA8E92" mask="url(#mask-16)"></path>
                </g>
            </g>
            <text id="Anonymous-datathing" font-family="NeueMontreal-Bold, Neue Montreal" font-size="14" font-weight="bold" letter-spacing="0.5" fill="#2C3952">
                <tspan x="72" y="211">Anonymous datathing</tspan>
            </text>
            <rect id="Rectangle" fill="#F9F9F9" x="148" y="233" width="103" height="17"></rect>
            <text id="Share-anonymous-risk" font-family="NeueMontreal-Regular, Neue Montreal" font-size="12" font-weight="normal" line-spacing="14" fill="#636A6B">
                <tspan x="72" y="226">Share anonymous risk-level data </tspan>
                <tspan x="72" y="240">necessary to protect you and others</tspan>
            </text>
            <text id="Use-Bluetooth-to-rec" font-family="NeueMontreal-Regular, Neue Montreal" font-size="12" font-weight="normal" line-spacing="14" fill="#636A6B">
                <tspan x="72" y="316">Use Bluetooth to record your location </tspan>
                <tspan x="72" y="330">(only stored on your phone)</tspan>
            </text>
            <text id="Send-push-notificati" font-family="NeueMontreal-Regular, Neue Montreal" font-size="12" font-weight="normal" line-spacing="14" fill="#636A6B">
                <tspan x="72" y="406">Send push notifications when </tspan>
                <tspan x="72" y="420">important health alerts are distributed</tspan>
            </text>
            <text id="Bluetooth" font-family="NeueMontreal-Bold, Neue Montreal" font-size="14" font-weight="bold" letter-spacing="0.5" fill="#2C3952">
                <tspan x="72" y="301">Bluetooth</tspan>
            </text>
            <text id="Push-Notifications" font-family="NeueMontreal-Bold, Neue Montreal" font-size="14" font-weight="bold" fill="#2C3952">
                <tspan x="72" y="391">Push Notifications</tspan>
            </text>
            <line x1="81" y1="90" x2="238" y2="90" id="Path-2" stroke="#EBE8E1" stroke-width="2"></line>
            <g id="Group" transform="translate(16.000000, 485.000000)" fill="#2C3952">
                <path d="M2.88188201,9.16156229 L9.6729102,2.43142278 C10.0028182,2.10359364 10.0028182,1.57286257 9.6729102,1.24587186 C9.34215634,0.918042714 8.80669037,0.918042714 8.47678242,1.24587186 L0.241772519,9.40722454 C0.17156134,9.47933018 0.114884847,9.56317395 0.0751267097,9.65624054 C0.0632838603,9.68307055 0.0539787644,9.71073899 0.0455195863,9.73840743 C-0.0170783318,9.91950998 -0.0153864962,10.1165428 0.0522869288,10.2959685 C0.0548246822,10.302676 0.0548246822,10.3110604 0.0573624356,10.3177679 C0.0988124084,10.4125114 0.154642984,10.4955167 0.224854162,10.5676223 C0.232467423,10.5751683 0.234159258,10.5852295 0.241772519,10.5927755 L8.47678242,18.7541281 C8.80669037,19.0819573 9.34215634,19.0819573 9.6729102,18.7541281 C10.0028182,18.4271374 10.0028182,17.8964064 9.6729102,17.5685772 L2.88188201,10.8384377 L18.1540822,10.8384377 C18.6218747,10.8384377 19,10.4628176 19,10 C19,9.53718238 18.6218747,9.16156229 18.1540822,9.16156229 L2.88188201,9.16156229 Z" id="Fill-1-Copy-2"></path>
                <text id="Précédent" font-family="NeueMontreal-Medium, Neue Montreal" font-size="16" font-weight="400">
                    <tspan x="33.084" y="16">Précédent</tspan>
                </text>
            </g>
            <text id="Covi" font-family="Helvetica" font-size="24" font-weight="normal" fill="#2C3952">
                <tspan x="139.994141" y="51">Covi</tspan>
            </text>
            <g id="Icône-/-étape-non-active" transform="translate(118.000000, 73.000000)">
                <g id="Icône-/-petit-bouton-3-gris" fill="#35529B" stroke="#EBE8E1" stroke-width="2">
                    <rect id="Rectangle-Copy-4" x="0" y="0" width="35" height="35" rx="17.5"></rect>
                </g>
                <text id="1" font-family="NeueMontreal-Bold, Neue Montreal" font-size="16" font-weight="bold" fill="#FFFFFF">
                    <tspan x="12.352" y="23">2</tspan>
                </text>
            </g>
            <g id="Icône-/-étape-active" transform="translate(69.000000, 78.000000)">
                <g id="Icône-/-petit-bouton-3-gris-Copy" fill="#FFFFFF" stroke="#EBE8E1" stroke-width="2">
                    <rect id="Rectangle-Copy-4" x="0" y="0" width="25" height="25" rx="12.5"></rect>
                </g>
                <text id="2" font-family="NeueMontreal-Bold, Neue Montreal" font-size="13" font-weight="bold" fill="#35529B">
                    <tspan x="9.861" y="17">1</tspan>
                </text>
            </g>
            <g id="Icône-/-étape-non-active" transform="translate(177.000000, 78.000000)">
                <g id="Icône-/-petit-bouton-3-gris-Copy" fill="#FFFFFF" stroke="#EBE8E1" stroke-width="2">
                    <rect id="Rectangle-Copy-4" x="0" y="0" width="25" height="25" rx="12.5"></rect>
                </g>
                <text id="2" font-family="NeueMontreal-Bold, Neue Montreal" font-size="13" font-weight="bold" fill="#2C3952">
                    <tspan x="8.613" y="17">3</tspan>
                </text>
            </g>
        </g>
        <g id="Page-chargement" transform="translate(-10.000000, -139.000000)">
            <rect fill="#FFFFFF" x="0" y="0" width="953" height="971.5"></rect>
            <g id="Group" transform="translate(10.000000, 139.000000)">
                <rect id="Rectangle" fill="#2C3952" x="0" y="0" width="824" height="694"></rect>
                <path d="M178.163797,439.169951 L179.019935,439.974467 L180.433518,441.280963 C189.627621,449.700546 205.156473,462.508888 228.404841,481.016155 L232.473091,484.250409 C265.261942,510.284058 284.253873,523.302254 309.752901,534.901837 C342.333835,549.723 378.046384,557 421.385633,557 C486.64814,557 544.06168,530.527003 591.088484,479.506433 C607.932283,461.232168 606.772662,432.763352 588.498397,415.919552 C570.224133,399.075752 541.755316,400.235374 524.911516,418.509638 C494.523512,451.478354 460.860808,467 421.385633,467 C390.90705,467 368.073693,462.420405 347.744426,453.307286 L347.019437,452.97989 C330.219144,445.337388 316.09483,435.694479 289.253752,414.414095 L282.068874,408.698276 L276.124873,403.944158 C268.193697,397.583164 261.411918,392.06907 255.79155,387.412561 L253.31888,385.356747 C249.349206,382.043986 246.085827,379.257043 243.561223,377.028144 L242.547471,376.127615 L241.628007,375.299361 C241.340093,375.037916 241.070902,374.791277 240.820877,374.559941 L240.080554,373.866668 L239.427549,373.232565 L236.216444,369.860565 L232.382933,367.217502 C177.599181,329.446143 119.547038,302.473721 58.395228,286.466693 C34.3524467,280.173283 9.76010411,294.561991 3.46669346,318.604772 C-2.8267172,342.647553 11.5619907,367.239896 35.604772,373.533307 C85.341018,386.552209 132.808168,408.37927 178.163797,439.169951 Z" id="Path-3" fill="#37519F" fill-rule="nonzero" transform="translate(302.494617, 420.994500) rotate(-360.000000) translate(-302.494617, -420.994500) "></path>
                <path d="M596,115 C651.78076,115 697,160.21924 697,216 C697,271.78076 651.78076,317 596,317 C540.21924,317 495,271.78076 495,216 C495,160.21924 540.21924,115 596,115 Z M596,195 C584.40202,195 575,204.40202 575,216 C575,227.59798 584.40202,237 596,237 C607.59798,237 617,227.59798 617,216 C617,204.40202 607.59798,195 596,195 Z" id="Oval" fill="#F9C35A" fill-rule="nonzero"></path>
                <path d="M210.324844,132 L180,132 C157.90861,132 140,149.90861 140,172 C140,194.09139 157.90861,212 180,212 L305,212 C340.639838,212 358.484859,168.906795 333.278927,143.710385 L273.25625,83.7103854 C257.632328,68.0923653 232.305729,68.0971504 216.687709,83.7210731 C203.735602,96.6780754 201.528037,116.308067 210.062923,131.53979 L210.324844,132 Z" id="Path-4" fill="#EA8E92" fill-rule="nonzero"></path>
                <circle id="Oval" fill="#44A88B" cx="363" cy="195" r="7"></circle>
            </g>
        </g>
    </g>
</svg>