<?xml version="1.0" encoding="UTF-8"?>
<svg width="21px" height="21px" viewBox="0 0 21 21" version="1.1" xmlns="http://www.w3.org/2000/svg" xmlns:xlink="http://www.w3.org/1999/xlink">
    <!-- Generator: Sketch 59.1 (86144) - https://sketch.com -->
    <title>Group 7</title>
    <desc>Created with Sketch.</desc>
    <g id="Maquettes-2.0" stroke="none" stroke-width="1" fill="none" fill-rule="evenodd">
        <g id="Accueil---01" transform="translate(-315.000000, -244.000000)" fill="#FFFFFF" fill-rule="nonzero">
            <g id="Group-7" transform="translate(317.000000, 246.000000)">
                <path d="M10.5,16.9250838 L10.5,0.572476596 C10.5,-0.532092903 9.6045695,-1.4275234 8.5,-1.4275234 C7.3954305,-1.4275234 6.5,-0.532092903 6.5,0.572476596 L6.5,16.9250838 C6.5,18.0296533 7.3954305,18.9250838 8.5,18.9250838 C9.6045695,18.9250838 10.5,18.0296533 10.5,16.9250838 Z" id="Path-3"></path>
                <path d="M0.5,10.5724766 L16.5,10.5724766 C17.6045695,10.5724766 18.5,9.6770461 18.5,8.5724766 C18.5,7.4679071 17.6045695,6.5724766 16.5,6.5724766 L0.5,6.5724766 C-0.6045695,6.5724766 -1.5,7.4679071 -1.5,8.5724766 C-1.5,9.6770461 -0.6045695,10.5724766 0.5,10.5724766 Z" id="Line"></path>
            </g>
        </g>
    </g>
</svg>