<svg xmlns="http://www.w3.org/2000/svg" xmlns:xlink="http://www.w3.org/1999/xlink" width="100" height="221" viewBox="0 0 100 221">
    <defs>
        <path id="prefix__a" d="M0 0.603L199.529 0.603 199.529 273 0 273z"/>
    </defs>
    <g fill="none" fill-rule="evenodd" transform="translate(0 -52)">
        <path fill="#2E4E9E" d="M16 121.999c0-2.206-1.79-3.999-4-3.999s-4 1.793-4 3.999C8 124.207 9.79 126 12 126s4-1.793 4-4.001"/>
        <path fill="#37AA85" d="M94.79 100.5c0 3.367 2.787 6.11 6.21 6.11s6.21-2.743 6.21-6.11c0-3.367-2.787-6.11-6.21-6.11s-6.21 2.743-6.21 6.11zm-24.79 0C70 83.684 83.908 70 101 70s31 13.684 31 30.5c0 16.816-13.908 30.5-31 30.5s-31-13.684-31-30.5z"/>
        <path fill="#2D3953" d="M100.5 58.437c-22.596 0-40.98 18.323-40.98 40.843 0 15.79 22.22 56.221 41.048 86.135 18.79-29.515 40.911-69.623 40.911-86.135 0-22.52-18.383-40.843-40.979-40.843m0 161.563h-.05c-4.063-.015-7.864-2.044-10.13-5.409C81.083 200.881 35 130.88 35 99.28 35 63.282 64.382 34 100.5 34c36.118 0 65.5 29.282 65.5 65.28 0 15.126-9.231 38.623-28.227 71.846-13.4 23.436-26.592 42.734-27.146 43.544-2.286 3.336-6.076 5.33-10.127 5.33"/>
        <mask id="prefix__b" fill="#fff">
            <use xlink:href="#prefix__a"/>
        </mask>
        <path fill="#FFC53B" d="M99.763 25.032c-41.435 0-75.143 33.453-75.143 74.57 0 31.985 47.662 103.426 75.117 140.75 27.458-37.5 75.173-109.214 75.173-140.75 0-41.117-33.711-74.57-75.147-74.57zm0 247.969c-3.822 0-7.425-1.761-9.756-4.764C80.796 256.354 0 150.685 0 99.602c0-54.588 44.754-99 99.764-99 55.014 0 99.768 44.412 99.768 99 0 50.429-80.78 156.66-89.99 168.605-2.326 3.018-5.932 4.79-9.76 4.794h-.018z" mask="url(#prefix__b)"/>
    </g>
</svg>
