<?xml version="1.0" encoding="UTF-8"?>
<svg width="209px" height="82px" viewBox="0 0 209 82" version="1.1" xmlns="http://www.w3.org/2000/svg" xmlns:xlink="http://www.w3.org/1999/xlink">
    <!-- Generator: Sketch 59.1 (86144) - https://sketch.com -->
    <title>Group 4</title>
    <desc>Created with Sketch.</desc>
    <defs>
        <path d="M0,-1.13686838e-13 C0,235.780313 0,370.34269 0,403.687133 C0,453.703798 58,525.66234 160,525.66234 C247.037619,525.66234 320,443.769758 320,443.769758 C320,443.769758 320,295.846505 320,-1.13686838e-13 L0,-1.13686838e-13 Z" id="path-1"></path>
    </defs>
    <g id="Consentement-:-Age-under-19" stroke="none" stroke-width="1" fill="none" fill-rule="evenodd">
        <g id="2A---EN-Copy-9">
            <g id="Group-4" transform="translate(-101.000000, -444.000000)">
                <mask id="mask-2" fill="white">
                    <use xlink:href="#path-1"></use>
                </mask>
                <use id="Mask" fill="#2D3953" transform="translate(160.000000, 262.831170) scale(-1, 1) translate(-160.000000, -262.831170) " xlink:href="#path-1"></use>
                <path d="M101.634602,562.269204 C120.762803,562.269204 136.269204,546.762803 136.269204,527.634602 C136.269204,508.506401 120.762803,493 101.634602,493 C82.5064009,493 67,508.506401 67,527.634602 C67,546.762803 82.5064009,562.269204 101.634602,562.269204 Z" id="Stroke-3" stroke="#37AA85" stroke-width="55" stroke-linecap="round" stroke-linejoin="round" mask="url(#mask-2)"></path>
            </g>
        </g>
    </g>
</svg>