<?xml version="1.0" encoding="UTF-8"?>
<svg width="166px" height="257px" viewBox="0 0 166 257" version="1.1" xmlns="http://www.w3.org/2000/svg" xmlns:xlink="http://www.w3.org/1999/xlink">
    <!-- Generator: Sketch 59.1 (86144) - https://sketch.com -->
    <title>Group 12</title>
    <desc>Created with Sketch.</desc>
    <defs>
        <polygon id="path-1" points="0.166411885 0.76858288 288.875635 0.76858288 288.875635 219 0.166411885 219"></polygon>
        <polygon id="path-3" points="85.4443342 -5.40012479e-13 202.472655 -5.40012479e-13 202.472655 79.7531786 85.4443342 79.7531786"></polygon>
    </defs>
    <g id="Maquettes-2.0" stroke="none" stroke-width="1" fill="none" fill-rule="evenodd">
        <g id="8F---EN" transform="translate(-154.000000, 0.000000)">
            <g id="Group-9-+-Stroke-3-Mask" transform="translate(-47.000000, -151.000000)">
                <g id="Group" transform="translate(47.000000, 0.000000)">
                    <g id="Group-12-Copy" transform="translate(-246.000000, 129.000000)">
                        <g id="Group-12" transform="translate(400.000000, 0.000000)">
                            <g id="Group-5">
                                <g id="Group-4" transform="translate(0.000000, 0.913803)">
                                    <g id="Group-3" transform="translate(0.000000, 59.086197)">
                                        <mask id="mask-2" fill="white">
                                            <use xlink:href="#path-1"></use>
                                        </mask>
                                        <g id="Clip-2"></g>
                                        <path d="M241.012718,219 L34.3963299,219 C26.4429078,219 20.0140114,212.534739 20.0140114,204.568614 C20.0140114,196.602489 26.4429078,190.137228 34.3963299,190.137228 L241.012718,190.137228 C251.540575,190.137228 260.112436,181.536122 260.112436,170.972348 L260.112436,48.7962351 C260.112436,38.2324606 251.540575,29.6313546 241.012718,29.6313546 L48.0307679,29.6313546 C37.5029107,29.6313546 28.9310489,38.2324606 28.9310489,48.7962351 L28.9310489,144.851539 C28.9310489,152.832096 22.5021525,159.282925 14.5487304,159.282925 C6.59530826,159.282925 0.166411885,152.832096 0.166411885,144.851539 L0.166411885,48.7962351 C0.166411885,22.314642 21.6392134,0.76858288 48.0307679,0.76858288 L241.012718,0.76858288 C267.404272,0.76858288 288.877073,22.314642 288.877073,48.7962351 L288.877073,170.972348 C288.877073,197.453941 267.404272,219 241.012718,219" id="Fill-1" fill="#2E4E9E" mask="url(#mask-2)"></path>
                                    </g>
                                    <mask id="mask-4" fill="white">
                                        <use xlink:href="#path-3"></use>
                                    </mask>
                                    <g id="Clip-8"></g>
                                </g>
                                <g id="Group-9" transform="translate(85.000000, 0.000000)" fill="#2E4E9E">
                                    <path d="M103.037189,80.6669811 C95.0543769,80.6669811 88.6017237,74.1869811 88.6017237,66.2026954 L88.6017237,37.0860882 C88.6017237,33.0939454 85.3537439,29.8394811 81.3695553,29.8394811 L36.5474341,29.8394811 C32.5488101,29.8394811 29.3152658,33.0939454 29.3152658,37.0860882 C29.3152658,45.0848382 22.8481771,51.5503739 14.8798,51.5503739 C6.89698743,51.5503739 0.444334231,45.0848382 0.444334231,37.0860882 C0.444334231,17.1398382 16.6409268,0.910909664 36.5474341,0.910909664 L81.3695553,0.910909664 C101.276063,0.910909664 117.472655,17.1398382 117.472655,37.0860882 L117.472655,66.2026954 C117.472655,74.1869811 111.020002,80.6669811 103.037189,80.6669811" id="Fill-7"></path>
                                </g>
                            </g>
                        </g>
                    </g>
                </g>
            </g>
        </g>
    </g>
</svg>