<svg xmlns="http://www.w3.org/2000/svg" xmlns:xlink="http://www.w3.org/1999/xlink" width="141" height="204" viewBox="0 0 141 204">
    <defs>
        <path id="prefix__a" d="M0.426 0.111L36.545 0.111 36.545 66.678 0.426 66.678z"/>
        <path id="prefix__c" d="M0 0L35 0 35 65 0 65z"/>
        <path id="prefix__e" d="M0 0L35 0 35 64 0 64z"/>
    </defs>
    <g fill="none" fill-rule="evenodd">
        <path fill="#37A985" d="M64.169 199c-4.511 0-8.169-3.677-8.169-8.211v-13.167C56 154.53 63.948 127 101.818 127h35.011c4.512 0 8.171 3.677 8.171 8.213 0 4.535-3.66 8.212-8.17 8.212h-35.012c-20.938 0-29.48 9.907-29.48 34.197v13.167c0 4.534-3.658 8.211-8.17 8.211" transform="translate(0 -55)"/>
        <path fill="#FE8A8A" d="M64.169 234c-4.511 0-8.169-3.687-8.169-8.235C56 202.606 63.948 175 101.818 175h35.011c4.512 0 8.171 3.687 8.171 8.235 0 4.55-3.66 8.236-8.17 8.236h-35.012c-20.938 0-29.48 9.935-29.48 34.294 0 4.548-3.658 8.235-8.17 8.235" transform="translate(0 -55)"/>
        <g transform="translate(0 -55) translate(115 53)">
            <mask id="prefix__b" fill="#fff">
                <use xlink:href="#prefix__a"/>
            </mask>
            <path fill="#2F4E9E" d="M9.5 66.678c-1.825 0-3.662-.584-5.215-1.786-3.714-2.879-4.389-8.22-1.505-11.928l14.57-18.737L2.1 13.672C-.7 9.899.095 4.577 3.872 1.782s9.11-2.002 11.908 1.77l19.092 25.736c2.272 3.063 2.226 7.261-.115 10.27L16.231 63.39c-1.677 2.158-4.193 3.29-6.731 3.29" mask="url(#prefix__b)"/>
        </g>
        <g transform="translate(0 -55) translate(113 103)">
            <mask id="prefix__d" fill="#fff">
                <use xlink:href="#prefix__c"/>
            </mask>
            <path fill="#37A985" d="M8.792 65c-1.768 0-3.548-.57-5.053-1.744C.14 60.445-.514 55.229 2.281 51.609l14.117-18.296L1.621 13.24C-1.091 9.557-.32 4.36 3.34 1.63 7-1.099 12.168-.322 14.879 3.36l18.5 25.13c2.202 2.99 2.157 7.09-.111 10.029l-17.953 23.27C13.69 63.895 11.252 65 8.792 65" mask="url(#prefix__d)"/>
        </g>
        <g transform="translate(0 -55) translate(113 152)">
            <mask id="prefix__f" fill="#fff">
                <use xlink:href="#prefix__e"/>
            </mask>
            <path fill="#FE8A8A" d="M8.792 64c-1.768 0-3.548-.561-5.053-1.717C.14 59.515-.514 54.38 2.281 50.815L16.398 32.8 1.621 13.037C-1.091 9.41-.32 4.293 3.34 1.606 7-1.081 12.168-.317 14.879 3.308l18.5 24.744c2.202 2.945 2.157 6.98-.111 9.874L15.315 60.838C13.69 62.912 11.252 64 8.792 64" mask="url(#prefix__f)"/>
        </g>
        <path fill="#2E4E9E" d="M0 224.555L.854 8.423C.873 3.765 4.658 0 9.318 0h.033c4.673.019 8.45 3.82 8.43 8.49l-.854 216.097c0 9.636 8.718 17.5 19.436 17.5 10.716 0 19.434-7.864 19.434-17.532v-94.923c0-23.777 8.236-52.123 47.469-52.123h36.271c4.674 0 8.463 3.786 8.463 8.456s-3.79 8.457-8.463 8.457h-36.271c-21.692 0-30.542 10.201-30.542 35.21v94.923c0 18.993-16.31 34.445-36.361 34.445S0 243.548 0 224.555z" transform="translate(0 -55)"/>
    </g>
</svg>
