<?xml version="1.0" encoding="UTF-8"?>
<svg width="231px" height="261px" viewBox="0 0 231 261" version="1.1" xmlns="http://www.w3.org/2000/svg" xmlns:xlink="http://www.w3.org/1999/xlink">
    <!-- Generator: Sketch 59.1 (86144) - https://sketch.com -->
    <title>Group 3</title>
    <desc>Created with Sketch.</desc>
    <g id="Maquettes-2.0" stroke="none" stroke-width="1" fill="none" fill-rule="evenodd">
        <g id="8B---EN">
            <g id="Group-9-+-Stroke-3-Mask" transform="translate(0.000000, -151.000000)">
                <g id="Group">
                    <g id="Group-3" transform="translate(-89.000000, 92.000000)">
                        <path d="M138.595514,320 C111.379563,319.922875 89.2138983,297.782063 89.1364903,270.642127 L89.1364903,230.02045 L49.5763085,230.02045 C22.3345551,229.943325 0.114939158,207.890155 0,180.857727 L0,139.257961 C0.0774080047,112.141396 22.295851,90.0555069 49.5305674,89.9795501 L90.3093388,89.9795501 L90.3093388,49.3952673 C90.385574,22.2342974 112.374139,0.0969909436 139.327371,0 L180.591702,0 C207.610614,0.0759567631 229.614426,22.2144318 229.690661,49.3496933 L229.690661,89.9795501 L270.438939,89.9795501 L270.496408,89.9795501 C297.695939,90.0742039 319.903826,112.143734 320,139.17733 L320,180.742039 C319.922592,207.858604 297.70063,229.943325 270.461223,230.02045 L229.690661,230.02045 L229.690661,270.619924 C229.59566,297.75986 207.46049,319.885481 180.34775,320 L138.595514,320 Z M106.183275,196.644298 C115.246307,196.644298 122.592927,203.957242 122.592927,212.978731 L122.592927,270.058893 C122.618862,279.353795 130.217756,286.974184 139.531884,287 L181.382391,287 C190.606926,286.961276 198.195211,279.346755 198.228219,270.024862 L198.228219,212.978731 C198.228219,203.957242 205.574839,196.644298 214.637871,196.644298 L271.98088,196.644298 C281.318585,196.618482 288.974065,189.054419 289,179.782985 L289,138.147781 C288.966992,128.954969 281.330374,121.401467 271.972628,121.355702 L214.637871,121.355702 C205.574839,121.355702 198.228219,114.042758 198.228219,105.021269 L198.228219,47.9328933 C198.202284,38.6426843 190.766071,31.0258159 181.65117,31 L140.279278,31 C131.229213,31.0328566 123.797716,38.6485515 123.771781,47.9774844 L123.771781,105.021269 C123.771781,114.042758 116.425161,121.355702 107.362129,121.355702 L50.0108676,121.355702 C40.6778781,121.381518 33.0259348,128.945581 33,138.217015 L33,179.875688 C33.0389022,189.06498 40.6908455,196.618482 50.0568429,196.644298 L106.183275,196.644298 Z" id="Fill-1" fill="#2E4E9E"></path>
                        <circle id="Oval" fill="#FFC53B" transform="translate(249.000000, 156.000000) rotate(-180.000000) translate(-249.000000, -156.000000) " cx="249" cy="156" r="7"></circle>
                    </g>
                </g>
            </g>
        </g>
    </g>
</svg>