<?xml version="1.0" encoding="UTF-8"?>
<svg width="320px" height="118px" viewBox="0 0 320 118" version="1.1" xmlns="http://www.w3.org/2000/svg" xmlns:xlink="http://www.w3.org/1999/xlink">
    <!-- Generator: Sketch 59.1 (86144) - https://sketch.com -->
    <title>darkBlueChecks-bottom</title>
    <desc>Created with Sketch.</desc>
    <defs>
        <rect id="path-1" x="0" y="0" width="320" height="118"></rect>
        <path d="M0,3.41060513e-13 C0,235.780313 0,370.34269 0,403.687133 C0,453.703798 58,525.66234 160,525.66234 C247.037619,525.66234 320,443.769758 320,443.769758 C320,443.769758 320,295.846505 320,3.41060513e-13 L0,3.41060513e-13 Z" id="path-3"></path>
    </defs>
    <g id="Maquettes-2.0" stroke="none" stroke-width="1" fill="none" fill-rule="evenodd">
        <g id="Artboard" transform="translate(-97.000000, -100.000000)">
            <g id="darkBlueChecks-bottom" transform="translate(97.000000, 100.000000)">
                <mask id="mask-2" fill="white">
                    <use xlink:href="#path-1"></use>
                </mask>
                <g id="path-1"></g>
                <g id="Group" mask="url(#mask-2)">
                    <g transform="translate(0.000000, -408.000000)">
                        <g>
                            <g id="Mask" transform="translate(160.000000, 263.000000) scale(-1, 1) translate(-160.000000, -263.000000) ">
                                <mask id="mask-4" fill="white">
                                    <use xlink:href="#path-3"></use>
                                </mask>
                                <use id="path-3" fill="#2D3953" xlink:href="#path-3"></use>
                                <path d="M-46.4044861,728 C-73.6204369,727.922875 -95.7861017,705.782063 -95.8635097,678.642127 L-95.8635097,638.02045 L-135.423692,638.02045 C-162.665445,637.943325 -184.885061,615.890155 -185,588.857727 L-185,547.257961 C-184.922592,520.141396 -162.704149,498.055507 -135.469433,497.97955 L-94.6906612,497.97955 L-94.6906612,457.395267 C-94.614426,430.234297 -72.6258613,408.096991 -45.6726286,408 L-4.4082979,408 C22.6106143,408.075957 44.614426,430.214432 44.6906612,457.349693 L44.6906612,497.97955 L85.4389386,497.97955 L85.4964082,497.97955 C112.695939,498.074204 134.903826,520.143734 135,547.17733 L135,588.742039 C134.922592,615.858604 112.70063,637.943325 85.4612227,638.02045 L44.6906612,638.02045 L44.6906612,678.619924 C44.5956605,705.75986 22.4604897,727.885481 -4.6522504,728 L-46.4044861,728 Z M-78.816725,604.644298 C-69.7536931,604.644298 -62.4070731,611.957242 -62.4070731,620.978731 L-62.4070731,678.058893 C-62.3811383,687.353795 -54.7822435,694.974184 -45.4681157,695 L-3.61760914,695 C5.60692577,694.961276 13.1952109,687.346755 13.2282188,678.024862 L13.2282188,620.978731 C13.2282188,611.957242 20.5748388,604.644298 29.6378707,604.644298 L86.9808805,604.644298 C96.3185854,604.618482 103.974065,597.054419 104,587.782985 L104,546.147781 C103.966992,536.954969 96.3303739,529.401467 86.9726285,529.355702 L29.6378707,529.355702 C20.5748388,529.355702 13.2282188,522.042758 13.2282188,513.021269 L13.2282188,455.932893 C13.202284,446.642684 5.7660711,439.025816 -3.34883036,439 L-44.720722,439 C-53.7707865,439.032857 -61.202284,446.648552 -61.2282188,455.977484 L-61.2282188,513.021269 C-61.2282188,522.042758 -68.5748388,529.355702 -77.6378707,529.355702 L-134.989132,529.355702 C-144.322122,529.381518 -151.974065,536.945581 -152,546.217015 L-152,587.875688 C-151.961098,597.06498 -144.309155,604.618482 -134.943157,604.644298 L-78.816725,604.644298 Z" id="Fill-1-Copy" fill="#FFC53B" mask="url(#mask-4)"></path>
                            </g>
                        </g>
                    </g>
                </g>
            </g>
        </g>
    </g>
</svg>