<?xml version="1.0" encoding="UTF-8"?>
<svg width="192px" height="216px" viewBox="0 0 192 216" version="1.1" xmlns="http://www.w3.org/2000/svg" xmlns:xlink="http://www.w3.org/1999/xlink">
    <!-- Generator: Sketch 59.1 (86144) - https://sketch.com -->
    <title>Group 4</title>
    <desc>Created with Sketch.</desc>
    <g id="Maquettes-2.0" stroke="none" stroke-width="1" fill="none" fill-rule="evenodd">
        <g id="8C-01---EN" transform="translate(-128.000000, 0.000000)">
            <g id="Group-6" transform="translate(128.000000, -19.000000)">
                <g id="Group-4">
                    <path d="M74.7413665,235 C65.4464962,235 56.6952681,230.562398 51.1741222,223.023437 L5.67762063,160.847385 C-3.88201052,147.779143 -1.08613612,129.404919 11.9295064,119.80311 C24.9416189,110.201302 43.2454178,113.01202 52.8085791,126.080262 L73.5975997,154.492257 L124.43521,78.0570422 C133.401777,64.5741042 151.55731,60.9410833 164.993039,69.9474307 C178.425239,78.9502337 182.043637,97.1826819 173.07001,110.66562 L99.0605316,221.942391 C93.7653149,229.906682 84.9328935,234.776702 75.3979734,234.992911 C75.1791044,234.996456 74.9602355,235 74.7413665,235" id="Fill-1" fill="#2E4E9E"></path>
                    <path d="M198.183211,68.4541487 C216.992043,65.8107452 230.097552,48.4187248 227.454149,29.6098925 C224.810745,10.8010602 207.418725,-2.30444869 188.609892,0.33895476 C169.80106,2.98235821 156.695551,20.3743787 159.338955,39.183211 C161.982358,57.9920432 179.374379,71.0975521 198.183211,68.4541487" id="Fill-3" fill="#FE8A8A"></path>
                    <circle id="Oval" fill="#37AA85" transform="translate(26.000000, 90.000000) rotate(-180.000000) translate(-26.000000, -90.000000) " cx="26" cy="90" r="7"></circle>
                </g>
            </g>
        </g>
    </g>
</svg>