<?xml version="1.0" encoding="UTF-8"?>
<svg width="144px" height="147px" viewBox="0 0 144 147" version="1.1" xmlns="http://www.w3.org/2000/svg" xmlns:xlink="http://www.w3.org/1999/xlink">
    <!-- Generator: Sketch 59.1 (86144) - https://sketch.com -->
    <title>Group 9</title>
    <desc>Created with Sketch.</desc>
    <g id="Maquettes-graphiques" stroke="none" stroke-width="1" fill="none" fill-rule="evenodd">
        <g id="8F---EN" transform="translate(-176.000000, 0.000000)" fill-rule="nonzero">
            <g id="Group-9-+-Stroke-3-Mask" transform="translate(-75.000000, -151.000000)">
                <g id="Group-9" transform="translate(351.000000, 183.000000) scale(-1, 1) translate(-351.000000, -183.000000) translate(251.000000, 68.000000)">
                    <path d="M173.050063,125.937413 L114.612953,184.265716 C95.5985971,203.244668 64.7612824,203.244668 45.7494178,184.266273 C26.750473,165.304632 26.750473,134.574487 45.74886,115.611474 L134.555323,26.9703635 C140.614088,20.9228801 140.623233,11.1088272 134.575749,5.05006277 C128.528266,-1.00870167 118.714213,-1.01784681 112.655449,5.02963653 L23.8489856,93.6707467 C-7.28308816,124.744854 -7.28308816,175.135496 23.8495434,206.207 C54.9619264,237.264612 105.396722,237.264612 136.512827,206.206443 L194.949937,147.87814 C201.008702,141.830657 201.017847,132.016604 194.970363,125.95784 C188.92288,119.899075 179.108827,119.88993 173.050063,125.937413 Z" id="Stroke-3" fill="#2E4E9E"></path>
                    <path d="M172.039845,67.0398449 L122.039845,117.039845 C115.986718,123.092971 115.986718,132.907029 122.039845,138.960155 C128.092971,145.013282 137.907029,145.013282 143.960155,138.960155 L193.960155,88.9601551 C200.013282,82.9070286 200.013282,73.0929714 193.960155,67.0398449 C187.907029,60.9867184 178.092971,60.9867184 172.039845,67.0398449 Z" id="Stroke-5" fill="#FFC53B"></path>
                    <path d="M121.960155,98.9601551 L188.960155,31.9601551 C195.013282,25.9070286 195.013282,16.0929714 188.960155,10.0398449 C182.907029,3.98671837 173.092971,3.98671837 167.039845,10.0398449 L100.039845,77.0398449 C93.9867184,83.0929714 93.9867184,92.9070286 100.039845,98.9601551 C106.092971,105.013282 115.907029,105.013282 121.960155,98.9601551 Z" id="Stroke-7" fill="#FFC53B"></path>
                </g>
            </g>
        </g>
    </g>
</svg>