<?xml version="1.0" encoding="UTF-8"?>
<svg width="34px" height="85px" viewBox="0 0 34 85" version="1.1" xmlns="http://www.w3.org/2000/svg" xmlns:xlink="http://www.w3.org/1999/xlink">
    <!-- Generator: Sketch 59.1 (86144) - https://sketch.com -->
    <title>Fill 1 Copy 3</title>
    <desc>Created with Sketch.</desc>
    <g id="Maquettes-2.0" stroke="none" stroke-width="1" fill="none" fill-rule="evenodd">
        <g id="8B---EN" transform="translate(-286.000000, 0.000000)" fill="#37AA85">
            <g id="Group-9-+-Stroke-3-Mask" transform="translate(0.000000, -151.000000)">
                <g id="Group">
                    <path d="M335.595514,238 C308.379563,237.922875 286.213898,215.782063 286.13649,188.642127 L286.13649,148.02045 L246.576308,148.02045 C219.334555,147.943325 197.114939,125.890155 197,98.8577271 L197,57.2579609 C197.077408,30.1413964 219.295851,8.05550687 246.530567,7.9795501 L287.309339,7.9795501 L287.309339,-32.6047327 C287.385574,-59.7657026 309.374139,-81.9030091 336.327371,-82 L377.591702,-82 C404.610614,-81.9240432 426.614426,-59.7855682 426.690661,-32.6503067 L426.690661,7.9795501 L467.438939,7.9795501 L467.496408,7.9795501 C494.695939,8.07420391 516.903826,30.1437336 517,57.1773298 L517,98.7420391 C516.922592,125.858604 494.70063,147.943325 467.461223,148.02045 L426.690661,148.02045 L426.690661,188.619924 C426.59566,215.75986 404.46049,237.885481 377.34775,238 L335.595514,238 Z M303.183275,114.644298 C312.246307,114.644298 319.592927,121.957242 319.592927,130.978731 L319.592927,188.058893 C319.618862,197.353795 327.217756,204.974184 336.531884,205 L378.382391,205 C387.606926,204.961276 395.195211,197.346755 395.228219,188.024862 L395.228219,130.978731 C395.228219,121.957242 402.574839,114.644298 411.637871,114.644298 L468.98088,114.644298 C478.318585,114.618482 485.974065,107.054419 486,97.782985 L486,56.1477814 C485.966992,46.9549688 478.330374,39.4014668 468.972628,39.3557022 L411.637871,39.3557022 C402.574839,39.3557022 395.228219,32.0427576 395.228219,23.0212688 L395.228219,-34.0671067 C395.202284,-43.3573157 387.766071,-50.9741841 378.65117,-51 L337.279278,-51 C328.229213,-50.9671434 320.797716,-43.3514485 320.771781,-34.0225156 L320.771781,23.0212688 C320.771781,32.0427576 313.425161,39.3557022 304.362129,39.3557022 L247.010868,39.3557022 C237.677878,39.3815182 230.025935,46.9455812 230,56.217015 L230,97.8756876 C230.038902,107.06498 237.690845,114.618482 247.056843,114.644298 L303.183275,114.644298 Z" id="Fill-1-Copy-3"></path>
                </g>
            </g>
        </g>
    </g>
</svg>