<svg xmlns="http://www.w3.org/2000/svg" width="128" height="73" viewBox="0 0 128 73">
    <path fill="#2E4E9E" fill-rule="evenodd" d="M93.055 72.822l-216.132-.854c-4.658-.02-8.423-3.805-8.423-8.465v-.032c.019-4.674 3.82-8.45 8.49-8.43l216.097.853c9.636 0 17.5-8.718 17.5-19.435 0-10.716-7.864-19.434-17.532-19.434H-1.868c-23.777 0-52.123-8.236-52.123-47.47v-36.27c0-4.674 3.786-8.463 8.456-8.463s8.457 3.789 8.457 8.462v36.272C-37.078-8.752-26.877.098-1.868.098h94.923c18.993 0 34.445 16.31 34.445 36.36 0 20.052-15.452 36.364-34.445 36.364z"/>
</svg>
