<?xml version="1.0" encoding="UTF-8"?>
<svg width="63px" height="103px" viewBox="0 0 63 103" version="1.1" xmlns="http://www.w3.org/2000/svg" xmlns:xlink="http://www.w3.org/1999/xlink">
    <!-- Generator: Sketch 59.1 (86144) - https://sketch.com -->
    <title>Fill 1 Copy 4</title>
    <desc>Created with Sketch.</desc>
    <g id="Maquettes-2.0" stroke="none" stroke-width="1" fill="none" fill-rule="evenodd">
        <g id="8C-01---EN" fill="#2E4E9E">
            <g id="Group-9-+-Stroke-3-Mask" transform="translate(0.000000, -151.000000)">
                <g id="Group">
                    <path d="M-10.9989475,259 C-20.450473,259 -29.3491937,254.484087 -34.9633926,246.812085 L-81.2266891,183.53881 C-90.9474377,170.239952 -88.1044418,151.541476 -74.8694345,141.770224 C-61.6380168,131.998972 -43.0257269,134.859291 -33.3013887,148.158149 L-12.1619913,177.071532 L39.5324324,99.2874606 C48.6501212,85.5665884 67.1116462,81.8694554 80.7738209,91.0347383 C94.4324059,100.196414 98.1117881,118.750612 88.9869201,132.471484 L13.7300911,245.711963 C8.34562919,253.8168 -0.635653235,258.772762 -10.3312743,258.992786 C-10.553832,258.996393 -10.7763898,259 -10.9989475,259" id="Fill-1-Copy-4" transform="translate(3.500000, 172.500000) rotate(-44.000000) translate(-3.500000, -172.500000) "></path>
                </g>
            </g>
        </g>
    </g>
</svg>