<?xml version="1.0" encoding="UTF-8"?>
<svg width="320px" height="118px" viewBox="0 0 320 118" version="1.1" xmlns="http://www.w3.org/2000/svg" xmlns:xlink="http://www.w3.org/1999/xlink">
    <!-- Generator: Sketch 59.1 (86144) - https://sketch.com -->
    <title>darkBlueChecks-bottom</title>
    <desc>Created with Sketch.</desc>
    <defs>
        <rect id="path-1" x="0" y="0" width="320" height="118"></rect>
        <path d="M0,3.41060513e-13 C0,235.780313 0,370.34269 0,403.687133 C0,453.703798 58,525.66234 160,525.66234 C247.037619,525.66234 320,443.769758 320,443.769758 C320,443.769758 320,295.846505 320,3.41060513e-13 L0,3.41060513e-13 Z" id="path-3"></path>
        <polygon id="path-5" points="0.470693042 0.970210084 124.441372 0.970210084 124.441372 85.6464244 0.470693042 85.6464244"></polygon>
    </defs>
    <g id="Maquettes-2.0" stroke="none" stroke-width="1" fill="none" fill-rule="evenodd">
        <g id="Artboard" transform="translate(-97.000000, -100.000000)">
            <g id="darkBlueChecks-bottom" transform="translate(97.000000, 100.000000)">
                <mask id="mask-2" fill="white">
                    <use xlink:href="#path-1"></use>
                </mask>
                <g id="path-1"></g>
                <g id="Group" mask="url(#mask-2)">
                    <g transform="translate(-80.000000, -408.000000)">
                        <g>
                            <g id="Mask" transform="translate(240.000000, 263.000000) scale(-1, 1) translate(-240.000000, -263.000000) translate(80.000000, 0.000000)">
                                <mask id="mask-4" fill="white">
                                    <use xlink:href="#path-3"></use>
                                </mask>
                                <use id="path-3" fill="#2D3953" xlink:href="#path-3"></use>
                            </g>
                            <g id="Group-12-Copy" transform="translate(0.000000, 403.000000)">
                                <g id="Group-3" transform="translate(113.000000, 68.000000)" fill="#FFC53B">
                                    <path d="M72.1035156,44.3251953 C69.3886294,36.3085204 61.9381436,31.4231548 53.0238902,31.4231548 C48.5410501,31.4231548 45.17892,31.4231548 42.9375,31.4231548 C22.2167969,20.8466797 7.93457031,10.2119141 0.729492188,0.847067866 C12.3504695,0.847067866 29.7819355,0.847067866 53.0238902,0.847067866 C81.0592093,0.847067866 103.869417,23.6721168 103.869417,51.7256766 L103.869417,52.6740723 C94.5500488,51.3798828 80.2739258,47.7480469 72.1035156,44.3251953 Z" id="Fill-1"></path>
                                </g>
                                <g id="Group-9">
                                    <mask id="mask-6" fill="white">
                                        <use xlink:href="#path-5"></use>
                                    </mask>
                                    <g id="Clip-8"></g>
                                    <path d="M93.8577581,54.3496094 C93.8577581,51.9181882 93.8577581,48.2710565 93.8577581,43.4082143 C93.8577581,39.1696429 90.4171016,35.7142857 86.1965629,35.7142857 C83.3466148,35.7142857 81.2091537,35.7142857 79.7841797,35.7142857 C80.1669922,23.9111328 80.1542969,17.1669922 80.2666016,5 C81.5843707,5 83.5610245,5 86.1965629,5 C107.283965,5 124.441372,22.2307143 124.441372,43.4082143 L124.441372,74.3221429 C124.441372,75.8832943 124.209549,77.3902787 123.77847,78.8101128 C119.444336,76.5019531 98.2705078,59.1767578 93.8577581,54.3496094 Z" id="Fill-7" fill="#FFC53B" mask="url(#mask-6)"></path>
                                </g>
                            </g>
                        </g>
                    </g>
                </g>
            </g>
        </g>
    </g>
</svg>