<?xml version="1.0" encoding="UTF-8"?>
<svg width="375px" height="75px" viewBox="0 0 375 75" version="1.1" xmlns="http://www.w3.org/2000/svg" xmlns:xlink="http://www.w3.org/1999/xlink">
    <!-- Generator: Sketch 59.1 (86144) - https://sketch.com -->
    <title>Group 22</title>
    <desc>Created with Sketch.</desc>
    <defs>
        <polygon id="path-1" points="0.354731775 0.610289256 414.725389 0.610289256 414.725389 89.8664876 0.354731775 89.8664876"></polygon>
        <polygon id="path-3" points="0 0.101778261 131.785159 0.101778261 131.785159 50.9997718 0 50.9997718"></polygon>
    </defs>
    <g id="Maquettes-2.0" stroke="none" stroke-width="1" fill="none" fill-rule="evenodd">
        <g id="Accueil---02">
            <g id="Group-22" transform="translate(-12.000000, -62.000000)">
                <g id="Group-21">
                    <path d="M198.999679,72 L198.999679,72 C182.676471,72 167.346386,78.6403524 155.833271,90.697973 C151.97557,94.7385186 152.068883,101.195107 156.042115,105.118164 C160.014607,109.041975 166.363632,108.94708 170.221333,104.905781 C177.924885,96.8374935 188.145682,92.3947762 198.999679,92.3940231 C209.853675,92.3940231 220.074472,96.8374935 227.778025,104.905781 C231.635726,108.946327 237.98401,109.041975 241.957983,105.118164 C245.931215,101.195107 246.024528,94.7385186 242.166087,90.697973 C230.653712,78.6403524 215.322146,72 198.999679,72" id="Fill-1" fill="#FE8A8A" transform="translate(199.000000, 90.000000) rotate(-360.000000) translate(-199.000000, -90.000000) "></path>
                    <g id="Group-7" transform="translate(250.500000, 45.000000) rotate(-360.000000) translate(-250.500000, -45.000000) translate(43.000000, 0.000000)">
                        <mask id="mask-2" fill="white">
                            <use xlink:href="#path-1"></use>
                        </mask>
                        <g id="Clip-6"></g>
                        <path d="M411.188966,52.0211157 C385.948073,73.5504545 352.491662,85.4036777 316.965439,85.4036777 C316.941725,85.4036777 316.912823,85.4036777 316.889109,85.4036777 C284.100404,85.387314 253.060627,75.2678926 228.599341,56.7777273 C227.710796,56.3195455 226.874868,55.7222727 226.125645,54.9807025 C225.895171,54.7523554 225.660252,54.5321901 225.428296,54.3068182 C224.461939,53.5288017 223.502993,52.7426033 222.558868,51.9370661 C221.967493,51.4320248 221.456895,50.8689669 221.011511,50.2694628 C182.933779,17.5741736 125.101305,19.106405 88.9659214,54.8951653 C88.8317875,55.0283058 88.6880196,55.1450826 88.5486982,55.2692975 C77.1502786,66.5245041 62.2414036,72.7203719 46.3854393,72.7203719 L46.3854393,72.7203719 C30.052225,72.7203719 14.7105643,66.1615289 3.18986786,54.2532645 C-0.670373214,50.2627686 -0.576998214,43.886157 3.39885,40.0116942 C7.37618036,36.1364876 13.7279036,36.2316942 17.5881446,40.2214463 C25.2967696,48.1905372 35.5242964,52.5782231 46.3854393,52.5782231 C57.2465821,52.5782231 67.4733679,48.1905372 75.1819929,40.2214463 C75.4435911,39.9514463 75.7170464,39.7022727 75.9993946,39.468719 C98.6228232,17.6500413 128.035207,6.73549587 157.4676,6.73549587 C186.737698,6.73549587 216.020395,17.5340083 238.631966,39.108719 C283.695779,74.835 354.388805,74.0369008 398.193537,36.6727686 C402.416162,33.0720248 408.748618,33.5867355 412.336886,37.8249174 C415.925895,42.0630992 415.411591,48.4188843 411.188966,52.0211157" id="Fill-5" fill="#FFC53B" mask="url(#mask-2)"></path>
                    </g>
                    <path d="M185.98197,61.5884009 C173.416607,64.0901823 161.911445,69.9666296 152.575343,78.6143932 C152.33278,78.9160679 152.076209,79.2097076 151.792358,79.488008 C130.243311,100.642488 99.6036742,109.393244 69.83697,102.894456 C64.4533945,101.719167 61.0501373,96.4424165 62.2356741,91.1079611 C63.4226853,85.7735056 68.7480161,82.3981094 74.1323288,83.5777815 C96.5793759,88.4746991 119.648682,82.2228021 136.26684,66.8381245 C136.514564,66.5284149 136.777034,66.2267402 137.066783,65.9411354 C149.430132,53.8040257 164.985141,45.5930695 182.048612,42.1957598 C182.712159,42.0635489 183.373494,42 184.025982,42 C188.682605,42 192.849678,45.2461071 193.802236,49.9436126 C194.888978,55.299251 191.387663,60.5124523 185.98197,61.5884009" id="Fill-8" fill="#37A985" transform="translate(128.000000, 73.500000) rotate(-360.000000) translate(-128.000000, -73.500000) "></path>
                    <g id="Group-12" transform="translate(66.000000, 111.500000) rotate(-360.000000) translate(-66.000000, -111.500000) translate(0.000000, 86.000000)">
                        <mask id="mask-4" fill="white">
                            <use xlink:href="#path-3"></use>
                        </mask>
                        <g id="Clip-11"></g>
                        <path d="M10.0412697,0.101778261 C7.44947191,0.101778261 4.85841573,1.0959087 2.89398876,3.07973478 C-1.00149438,7.01412609 -0.959224719,13.3506913 2.98816854,17.2333435 C18.9601685,32.9443 39.0152697,43.716387 60.9843708,48.3869522 C82.3602135,52.9296478 104.519899,51.5297348 125.068888,44.3365174 C130.301427,42.504213 133.052663,36.792213 131.215045,31.5769087 C129.378169,26.3623435 123.648034,23.6216478 118.414753,25.4509957 C101.348191,31.4261261 82.9378989,32.5880391 65.1735169,28.8118217 C46.959,24.9395174 30.3336742,16.0086043 17.0936292,2.98586522 C15.1373596,1.0619087 12.588573,0.101778261 10.0412697,0.101778261" id="Fill-10" fill="#FE8A8A" mask="url(#mask-4)"></path>
                    </g>
                    <path d="M42.5,74 C38.3578571,74 35,77.3589286 35,81.5 C35,85.6421429 38.3578571,89 42.5,89 C46.6421429,89 50,85.6421429 50,81.5 C50,77.3589286 46.6421429,74 42.5,74 Z" id="Fill-13" fill="#37A985" transform="translate(42.500000, 81.500000) rotate(-360.000000) translate(-42.500000, -81.500000) "></path>
                    <path d="M150,110.5 C150,106.358929 146.642143,103 142.5,103 C138.357857,103 135,106.358929 135,110.5 C135,114.642143 138.357857,118 142.5,118 C146.642143,118 150,114.642143 150,110.5" id="Fill-15" fill="#FE8A8A" transform="translate(142.500000, 110.500000) rotate(-360.000000) translate(-142.500000, -110.500000) "></path>
                    <path d="M289,90 C289,85.5828571 285.418286,82 281,82 C276.581714,82 273,85.5828571 273,90 C273,94.4182857 276.581714,98 281,98 C285.418286,98 289,94.4182857 289,90" id="Fill-17" fill="#FE8A8A" transform="translate(281.000000, 90.000000) rotate(-360.000000) translate(-281.000000, -90.000000) "></path>
                </g>
                <path d="M210.290273,49.6904377 C208.981727,55.1123493 212.220578,60.5910114 217.524899,61.9283815 C229.461814,64.9398908 240.396315,71.2130598 249.144792,80.0721095 C253.02586,84.001334 259.29022,83.972212 263.134757,80.0063984 C266.980024,76.039838 266.95153,69.6382338 263.069731,65.7082626 C251.78234,54.2775198 237.672553,46.1823615 222.264449,42.2964466 C221.469532,42.0963265 220.671692,42 219.887003,42 C215.442624,42 211.403011,45.0824475 210.290273,49.6904377 Z" id="Fill-3" fill="#37AA85" transform="translate(238.000000, 62.500000) rotate(-360.000000) translate(-238.000000, -62.500000) "></path>
            </g>
        </g>
    </g>
</svg>