<?xml version="1.0" encoding="UTF-8"?>
<svg width="351px" height="43px" viewBox="0 0 351 43" version="1.1" xmlns="http://www.w3.org/2000/svg" xmlns:xlink="http://www.w3.org/1999/xlink">
    <!-- Generator: Sketch 59.1 (86144) - https://sketch.com -->
    <title>Group 16</title>
    <desc>Created with Sketch.</desc>
    <defs>
        <polygon id="path-1" points="0.354731775 0.610289256 414.725389 0.610289256 414.725389 89.8664876 0.354731775 89.8664876"></polygon>
    </defs>
    <g id="Maquettes-2.0" stroke="none" stroke-width="1" fill="none" fill-rule="evenodd">
        <g id="Accueil---01" transform="translate(0.000000, -1146.000000)">
            <g id="Group-16" transform="translate(134.500000, 1185.000000) rotate(-360.000000) translate(-134.500000, -1185.000000) translate(-82.000000, 1140.000000)">
                <g id="Group-7-Copy" transform="translate(0.000000, 0.000000)">
                    <mask id="mask-2" fill="white">
                        <use xlink:href="#path-1"></use>
                    </mask>
                    <g id="Clip-6"></g>
                    <path d="M411.188966,52.0211157 C385.948073,73.5504545 352.491662,85.4036777 316.965439,85.4036777 C316.941725,85.4036777 316.912823,85.4036777 316.889109,85.4036777 C284.100404,85.387314 253.060627,75.2678926 228.599341,56.7777273 C227.710796,56.3195455 226.874868,55.7222727 226.125645,54.9807025 C225.895171,54.7523554 225.660252,54.5321901 225.428296,54.3068182 C224.461939,53.5288017 223.502993,52.7426033 222.558868,51.9370661 C221.967493,51.4320248 221.456895,50.8689669 221.011511,50.2694628 C182.933779,17.5741736 125.101305,19.106405 88.9659214,54.8951653 C88.8317875,55.0283058 88.6880196,55.1450826 88.5486982,55.2692975 C77.1502786,66.5245041 62.2414036,72.7203719 46.3854393,72.7203719 L46.3854393,72.7203719 C30.052225,72.7203719 14.7105643,66.1615289 3.18986786,54.2532645 C-0.670373214,50.2627686 -0.576998214,43.886157 3.39885,40.0116942 C7.37618036,36.1364876 13.7279036,36.2316942 17.5881446,40.2214463 C25.2967696,48.1905372 35.5242964,52.5782231 46.3854393,52.5782231 C57.2465821,52.5782231 67.4733679,48.1905372 75.1819929,40.2214463 C75.4435911,39.9514463 75.7170464,39.7022727 75.9993946,39.468719 C98.6228232,17.6500413 128.035207,6.73549587 157.4676,6.73549587 C186.737698,6.73549587 216.020395,17.5340083 238.631966,39.108719 C283.695779,74.835 354.388805,74.0369008 398.193537,36.6727686 C402.416162,33.0720248 408.748618,33.5867355 412.336886,37.8249174 C415.925895,42.0630992 415.411591,48.4188843 411.188966,52.0211157" id="Fill-5" fill="#F6F0E9" mask="url(#mask-2)"></path>
                </g>
                <path d="M433,27.6618928 C433,23.2447499 429.418286,19.6618928 425,19.6618928 C420.581714,19.6618928 417,23.2447499 417,27.6618928 C417,32.0801785 420.581714,35.6618928 425,35.6618928 C429.418286,35.6618928 433,32.0801785 433,27.6618928" id="Fill-17" fill="#F6F0E9"></path>
            </g>
        </g>
    </g>
</svg>