<?xml version="1.0" encoding="UTF-8"?>
<svg width="134px" height="142px" viewBox="0 0 134 142" version="1.1" xmlns="http://www.w3.org/2000/svg" xmlns:xlink="http://www.w3.org/1999/xlink">
    <!-- Generator: Sketch 59.1 (86144) - https://sketch.com -->
    <title>Stroke-7-Copy-2</title>
    <desc>Created with Sketch.</desc>
    <g id="Maquettes-2.0" stroke="none" stroke-width="1" fill="none" fill-rule="evenodd">
        <g id="Accueil---02" transform="translate(-241.000000, -377.000000)" fill="#26324C" fill-rule="nonzero">
            <g id="Group-22" transform="translate(0.000000, -4.000000)">
                <g id="dashboard_circle" transform="translate(214.000000, 357.000000)">
                    <path d="M79.199591,15.8795924 C58.415756,25.7821108 41.9239483,44.4296045 35.4930552,68.4668677 C23.8650651,111.92974 49.5198779,156.596404 92.8294974,168.218998 C110.821366,173.047305 128.715707,171.501149 144.681761,164.82319 C150.402883,152.278834 163.652637,126.290741 165.173134,117.487706 C165.232546,116.858087 165.290474,117.099158 165.348502,116.744516 C152.943674,140.402231 125.530063,153.180737 98.7908607,146.00499 C67.7654147,137.678984 49.3588613,105.632001 57.7116289,74.4111911 C64.480855,49.1093135 86.7423346,32.142646 111.453919,31.0581832 C97.4312721,24.515409 97.4804923,24.5739188 79.199591,15.8795924 Z" id="Stroke-7-Copy-2" transform="translate(99.021083, 93.456508) rotate(65.000000) translate(-99.021083, -93.456508) "></path>
                </g>
            </g>
        </g>
    </g>
</svg>