<svg xmlns="http://www.w3.org/2000/svg" xmlns:xlink="http://www.w3.org/1999/xlink" width="85" height="232" viewBox="0 0 85 232">
    <defs>
        <path id="prefix__a" d="M0 0.514L168.602 0.514 168.602 233 0 233z"/>
    </defs>
    <g fill="none" fill-rule="evenodd" transform="translate(0 -1)">
        <path fill="#2E4E9E" d="M14 104.499c0-1.93-1.567-3.499-3.5-3.499S7 102.569 7 104.499C7 106.43 8.567 108 10.5 108s3.5-1.569 3.5-3.501"/>
        <path fill="#37AA85" d="M79.791 86c0 2.87 2.338 5.209 5.209 5.209 2.87 0 5.209-2.338 5.209-5.209 0-2.87-2.338-5.209-5.209-5.209-2.87 0-5.209 2.338-5.209 5.209zM59 86c0-14.335 11.665-26 26-26s26 11.665 26 26-11.665 26-26 26-26-11.665-26-26z"/>
        <path fill="#2D3953" d="M84.5 49.89c-19.147 0-34.723 15.663-34.723 34.914 0 13.497 18.827 48.06 34.78 73.631 15.921-25.23 34.666-59.516 34.666-73.631 0-19.25-15.576-34.914-34.723-34.914m0 138.11h-.042c-3.443-.013-6.664-1.747-8.584-4.624C68.047 171.656 29 111.816 29 84.804 29 54.032 53.896 29 84.5 29S140 54.032 140 84.804c0 12.93-7.822 33.016-23.918 61.417-11.354 20.033-22.532 36.53-23.001 37.223C91.144 186.296 87.933 188 84.5 188"/>
        <mask id="prefix__b" fill="#fff">
            <use xlink:href="#prefix__a"/>
        </mask>
        <path fill="#FFC53B" d="M84.3 21.364c-35.013 0-63.496 28.551-63.496 63.644 0 27.299 40.274 88.272 63.474 120.128 23.201-32.006 63.52-93.213 63.52-120.128 0-35.093-28.485-63.644-63.498-63.644zm0 211.637c-3.23 0-6.274-1.503-8.244-4.066C68.272 218.793 0 128.607 0 85.008-.001 38.418 37.816.514 84.3.514c46.486 0 84.304 37.904 84.304 84.494 0 43.04-68.259 133.707-76.043 143.901-1.964 2.576-5.011 4.09-8.246 4.092H84.3z" mask="url(#prefix__b)"/>
    </g>
</svg>
