<?xml version="1.0" encoding="UTF-8"?>
<svg width="197px" height="151px" viewBox="0 0 197 151" version="1.1" xmlns="http://www.w3.org/2000/svg" xmlns:xlink="http://www.w3.org/1999/xlink">
    <!-- Generator: Sketch 59.1 (86144) - https://sketch.com -->
    <title>Group 19</title>
    <desc>Created with Sketch.</desc>
    <defs>
        <polygon id="path-1" points="0.478674202 0.8205 559.62944 0.8205 559.62944 120.8205 0.478674202 120.8205"></polygon>
        <polygon id="path-3" points="0 0.1377 177.71029 0.1377 177.71029 68.9996913 0 68.9996913"></polygon>
    </defs>
    <g id="Maquettes-2.0" stroke="none" stroke-width="1" fill="none" fill-rule="evenodd">
        <g id="Suivi-santé---Alerte" transform="translate(-178.000000, 0.000000)">
            <g id="Group-19" transform="translate(178.000000, -33.000000)">
                <g id="Group-7" transform="translate(58.000000, 0.944000)">
                    <mask id="mask-2" fill="white">
                        <use xlink:href="#path-1"></use>
                    </mask>
                    <g id="Clip-6"></g>
                    <path d="M554.8574,69.9395 C520.7974,98.8845 475.6514,114.8205 427.7124,114.8205 C427.6804,114.8205 427.6414,114.8205 427.6094,114.8205 C383.3644,114.7985 341.4794,101.1935 308.4714,76.3345 C307.2724,75.7185 306.1444,74.9155 305.1334,73.9185 C304.8224,73.6115 304.5054,73.3155 304.1924,73.0125 C302.8884,71.9665 301.5944,70.9095 300.3204,69.8265 C299.5224,69.1475 298.8334,68.3905 298.2324,67.5845 C246.8504,23.6275 168.8114,25.6875 120.0504,73.8035 C119.8694,73.9825 119.6754,74.1395 119.4874,74.3065 C104.1064,89.4385 83.9884,97.7685 62.5924,97.7685 L62.5924,97.7685 C40.5524,97.7685 19.8504,88.9505 4.3044,72.9405 C-0.9046,67.5755 -0.7786,59.0025 4.5864,53.7935 C9.9534,48.5835 18.5244,48.7115 23.7334,54.0755 C34.1354,64.7895 47.9364,70.6885 62.5924,70.6885 C77.2484,70.6885 91.0484,64.7895 101.4504,54.0755 C101.8034,53.7125 102.1724,53.3775 102.5534,53.0635 C133.0814,23.7295 172.7704,9.0555 212.4864,9.0555 C251.9834,9.0555 291.4974,23.5735 322.0094,52.5795 C382.8184,100.6115 478.2114,99.5385 537.3214,49.3045 C543.0194,44.4635 551.5644,45.1555 556.4064,50.8535 C561.2494,56.5515 560.5554,65.0965 554.8574,69.9395" id="Fill-5" fill="#2F3B55" mask="url(#mask-2)"></path>
                </g>
                <path d="M251.9512,82.6911 C234.9082,86.1161 219.3032,94.1611 206.6402,106.0001 C206.3112,106.4131 205.9632,106.8151 205.5782,107.1961 C176.3502,136.1571 134.7922,148.1371 94.4182,139.2401 C87.1162,137.6311 82.5002,130.4071 84.1082,123.1041 C85.7182,115.8011 92.9412,111.1801 100.2442,112.7951 C130.6902,119.4991 161.9802,110.9401 184.5202,89.8781 C184.8562,89.4541 185.2122,89.0411 185.6052,88.6501 C202.3742,72.0341 223.4722,60.7931 246.6162,56.1421 C247.5162,55.9611 248.4132,55.8741 249.2982,55.8741 C255.6142,55.8741 261.2662,60.3181 262.5582,66.7491 C264.0322,74.0811 259.2832,81.2181 251.9512,82.6911" id="Fill-8" fill="#37A985"></path>
                <g id="Group-12" transform="translate(0.000000, 114.944000)">
                    <mask id="mask-4" fill="white">
                        <use xlink:href="#path-3"></use>
                    </mask>
                    <g id="Clip-11"></g>
                    <path d="M13.5405,0.1377 C10.0455,0.1377 6.5515,1.4827 3.9025,4.1667 C-1.3505,9.4897 -1.2935,18.0627 4.0295,23.3157 C25.5675,44.5717 52.6115,59.1457 82.2365,65.4647 C111.0615,71.6107 140.9435,69.7167 168.6535,59.9847 C175.7095,57.5057 179.4195,49.7777 176.9415,42.7217 C174.4645,35.6667 166.7375,31.9587 159.6805,34.4337 C136.6665,42.5177 111.8405,44.0897 87.8855,38.9807 C63.3235,33.7417 40.9045,21.6587 23.0505,4.0397 C20.4125,1.4367 16.9755,0.1377 13.5405,0.1377" id="Fill-10" fill="#FEC63B" mask="url(#mask-4)"></path>
                </g>
                <path d="M57.0893,100.0436 C51.5664429,100.0436 47.0893,104.522171 47.0893,110.0436 C47.0893,115.566457 51.5664429,120.0436 57.0893,120.0436 C62.6121571,120.0436 67.0893,115.566457 67.0893,110.0436 C67.0893,104.522171 62.6121571,100.0436 57.0893,100.0436 Z" id="Fill-13" fill="#37A985"></path>
                <path d="M206.0893,149 C206.0893,143.478571 201.612157,139 196.0893,139 C190.566443,139 186.0893,143.478571 186.0893,149 C186.0893,154.522857 190.566443,159 196.0893,159 C201.612157,159 206.0893,154.522857 206.0893,149" id="Fill-15" fill="#FEC63B"></path>
            </g>
        </g>
    </g>
</svg>