<?xml version="1.0" encoding="UTF-8"?>
<svg width="320px" height="400px" viewBox="0 0 320 400" version="1.1" xmlns="http://www.w3.org/2000/svg" xmlns:xlink="http://www.w3.org/1999/xlink">
    <!-- Generator: Sketch 59.1 (86144) - https://sketch.com -->
    <title>Group</title>
    <desc>Created with Sketch.</desc>
    <defs>
        <path d="M0,0 C0,235.810088 0,370.389458 0,403.738112 C0,453.761093 100.048196,530.051122 201.454166,512.403641 C284.776923,497.903147 320,443.825799 320,443.825799 C320,443.825799 320,295.883866 320,0 L0,0 Z" id="path-1"></path>
        <polygon id="path-3" points="0.426380257 0.111172184 36.5453709 0.111172184 36.5453709 66.6782086 0.426380257 66.6782086"></polygon>
        <polygon id="path-5" points="0 0 35 0 35 65 0 65"></polygon>
        <polygon id="path-7" points="0 0 35 0 35 64 0 64"></polygon>
    </defs>
    <g id="Maquettes-graphiques" stroke="none" stroke-width="1" fill="none" fill-rule="evenodd">
        <g id="Artboard-Copy">
            <g id="Group" transform="translate(-24.000000, -115.000000)">
                <g id="Fill-14" transform="translate(24.000000, 0.000000)">
                    <g id="Mask" transform="translate(0.091533, 0.000000)">
                        <g>
                            <mask id="mask-2" fill="white">
                                <use xlink:href="#path-1"></use>
                            </mask>
                            <use fill="#2D3953" xlink:href="#path-1"></use>
                        </g>
                    </g>
                    <path d="M-76,259.876285 L-75.1461062,43.7442915 C-75.1270461,39.0863401 -71.3417043,35.3215118 -66.6815027,35.3215118 L-66.6491004,35.3215118 C-61.9755567,35.3405549 -58.199745,39.1415652 -58.2188051,43.8109425 L-59.0726989,259.908658 C-59.0726989,269.544486 -50.3545957,277.409301 -39.6370848,277.409301 C-28.92148,277.409301 -20.2033767,269.544486 -20.2033767,259.876285 L-20.2033767,164.953862 C-20.2033767,141.1766 -11.9674948,112.83089 27.2658759,112.83089 L63.5373025,112.83089 C68.2108462,112.83089 72,116.616666 72,121.286043 C72,125.957325 68.2108462,129.7431 63.5373025,129.7431 L27.2658759,129.7431 C5.57354248,129.7431 -3.27607567,139.944509 -3.27607567,164.953862 L-3.27607567,259.876285 C-3.27607567,278.86991 -19.5858285,294.321512 -39.6370848,294.321512 C-59.6883411,294.321512 -76,278.86991 -76,259.876285 Z" fill="#2E4E9E" transform="translate(-2.000000, 164.821512) rotate(-90.000000) translate(2.000000, -164.821512) "></path>
                </g>
                <path d="M1.47728171,342.151497 C62.0513715,339.813117 90.5915328,368.353279 90.5915328,431.65894 C90.5915328,463.389876 97.8989258,481.53418 103.162109,492.009766 C111.542494,496.557943 120.206882,500.319053 129.155273,503.293096 C120.353516,489.558105 110.591533,459.556369 110.591533,431.65894 C110.591533,357.17652 72.7983608,319.383348 0.705783898,322.166382 L1.47728171,342.151497 Z" id="Path-3" fill="#2E4E9E" fill-rule="nonzero"></path>
                <g id="Group-16" transform="translate(203.091533, 60.000000)">
                    <path d="M64.1686822,199 C59.657509,199 56,195.323341 56,190.788549 L56,177.622486 C56,154.528705 63.947907,127 101.818212,127 L136.829478,127 C141.340651,127 145,130.676659 145,135.2133 C145,139.748093 141.340651,143.424751 136.829478,143.424751 L101.818212,143.424751 C80.8795245,143.424751 72.3373643,153.332126 72.3373643,177.622486 L72.3373643,190.788549 C72.3373643,195.323341 68.6798553,199 64.1686822,199" id="Fill-1" fill="#37A985"></path>
                    <path d="M64.1686822,234 C59.657509,234 56,230.312964 56,225.765372 C56,202.606406 63.947907,175 101.818212,175 L136.829478,175 C141.340651,175 145,178.687036 145,183.234628 C145,187.784075 141.340651,191.471112 136.829478,191.471112 L101.818212,191.471112 C80.8795245,191.471112 72.3373643,201.40645 72.3373643,225.765372 C72.3373643,230.312964 68.6798553,234 64.1686822,234" id="Fill-3" fill="#FE8A8A"></path>
                    <g id="Group-7" transform="translate(115.000000, 53.000000)">
                        <mask id="mask-4" fill="white">
                            <use xlink:href="#path-3"></use>
                        </mask>
                        <g id="Clip-6"></g>
                        <path d="M9.49993836,66.6782086 C7.67469473,66.6782086 5.83794745,66.0943514 4.28495655,64.89218 C0.571199273,62.0130943 -0.103680727,56.6722371 2.77989745,52.9642657 L17.3492529,34.2272371 L2.09926564,13.6716371 C-0.699952545,9.89858 0.0957156364,4.57686571 3.87274291,1.78200857 C7.64977018,-1.01284857 12.9836229,-0.220334286 15.7809238,3.55272286 L34.8731256,29.28838 C37.1450938,32.3512371 37.0990793,36.5492657 34.7580893,39.5585229 L16.2314829,63.3894657 C14.5538693,65.5468657 12.0384075,66.6782086 9.49993836,66.6782086" id="Fill-5" fill="#2F4E9E" mask="url(#mask-4)"></path>
                    </g>
                    <g id="Group-10" transform="translate(113.000000, 103.000000)">
                        <mask id="mask-6" fill="white">
                            <use xlink:href="#path-5"></use>
                        </mask>
                        <g id="Clip-9"></g>
                        <path d="M8.79230152,65 C7.02363566,65 5.24382276,64.4298825 3.73897051,63.2560012 C0.140330004,60.4446678 -0.513630479,55.2294946 2.28056431,51.6087812 L16.3983078,33.3126827 L1.6210303,13.2408085 C-1.09141943,9.55654097 -0.320414882,4.3600602 3.33953442,1.63097318 C6.99948371,-1.09811384 12.1680009,-0.322380203 14.8785928,3.36001804 L33.3789863,28.4900495 C35.5805294,31.4808298 35.5359412,35.580068 33.2675158,38.5185097 L15.3151858,61.7886497 C13.6895738,63.8952805 11.2520847,65 8.79230152,65" id="Fill-8" fill="#37A985" mask="url(#mask-6)"></path>
                    </g>
                    <g id="Group-13" transform="translate(113.000000, 152.000000)">
                        <mask id="mask-8" fill="white">
                            <use xlink:href="#path-7"></use>
                        </mask>
                        <g id="Clip-12"></g>
                        <path d="M8.79230152,64 C7.02363566,64 5.24382276,63.4386535 3.73897051,62.282832 C0.140330004,59.5147498 -0.513630479,54.3798101 2.28056431,50.8148 L16.3983078,32.8001799 L1.6210303,13.0371037 C-1.09141943,9.40951726 -0.320414882,4.29298235 3.33953442,1.60588128 C6.99948371,-1.08121978 12.1680009,-0.317420508 14.8785928,3.30832545 L33.3789863,28.051741 C35.5805294,30.9965093 35.5359412,35.0326824 33.2675158,37.9259172 L15.3151858,60.838055 C13.6895738,62.9122762 11.2520847,64 8.79230152,64" id="Fill-11" fill="#FE8A8A" mask="url(#mask-8)"></path>
                    </g>
                    <path d="M0,224.554773 L0.853893804,8.42277971 C0.872953934,3.76482828 4.65829566,0 9.31849734,0 L9.35089956,0 C14.0244433,0.0190431375 17.800255,3.82005338 17.7811949,8.48943069 L16.9273011,224.587146 C16.9273011,234.222974 25.6454043,242.08779 36.3629152,242.08779 C47.07852,242.08779 55.7966233,234.222974 55.7966233,224.554773 L55.7966233,129.63235 C55.7966233,105.855088 64.0325052,77.5093782 103.265876,77.5093782 L139.537302,77.5093782 C144.210846,77.5093782 148,81.2951539 148,85.9645312 C148,90.6358129 144.210846,94.4215886 139.537302,94.4215886 L103.265876,94.4215886 C81.5735425,94.4215886 72.7239243,104.622997 72.7239243,129.63235 L72.7239243,224.554773 C72.7239243,243.548398 56.4141715,259 36.3629152,259 C16.3116589,259 0,243.548398 0,224.554773 Z" id="Fill-14" fill="#2E4E9E"></path>
                </g>
                <circle id="Oval" fill="#37AA85" cx="107.091533" cy="202" r="7"></circle>
            </g>
        </g>
    </g>
</svg>