<?xml version="1.0" encoding="UTF-8"?>
<svg width="194px" height="242px" viewBox="0 0 194 242" version="1.1" xmlns="http://www.w3.org/2000/svg" xmlns:xlink="http://www.w3.org/1999/xlink">
    <!-- Generator: Sketch 59.1 (86144) - https://sketch.com -->
    <title>Group 30</title>
    <desc>Created with Sketch.</desc>
    <g id="Maquettes-2.0" stroke="none" stroke-width="1" fill="none" fill-rule="evenodd">
        <g id="Ressources---02" transform="translate(-181.000000, -16.000000)">
            <g id="Header" transform="translate(-50.000000, -263.000000)">
                <g id="Group-15" transform="translate(231.000000, 279.000000)">
                    <g id="Group-30">
                        <g id="Group-6">
                            <g id="Group-29" transform="translate(102.000000, 0.000000)" fill="#37A985">
                                <path d="M8.16868217,96 C3.65750904,96 0,106.323341 0,101.788549 L0,74.6224859 C0,51.5287046 7.94790698,24 45.8182119,24 L80.829478,24 C85.3406512,24 89,27.6766587 89,32.2133005 C89,36.7480928 85.3406512,40.4247515 80.829478,40.4247515 L45.8182119,40.4247515 C24.8795245,40.4247515 16.3373643,50.3321261 16.3373643,74.6224859 L16.3373643,101.788549 C16.3373643,106.323341 12.6798553,110 8.16868217,110" id="Fill-1"></path>
                                <path d="M65.7923015,65 C64.0236357,65 62.2438228,64.4298825 60.7389705,63.2560012 C57.14033,60.4446678 56.4863695,55.2294946 59.2805643,51.6087812 L73.3983078,33.3126827 L58.6210303,13.2408085 C55.9085806,9.55654097 56.6795851,4.3600602 60.3395344,1.63097318 C63.9994837,-1.09811384 69.1680009,-0.322380203 71.8785928,3.36001804 L90.3789863,28.4900495 C92.5805294,31.4808298 92.5359412,35.580068 90.2675158,38.5185097 L72.3151858,61.7886497 C70.6895738,63.8952805 68.2520847,65 65.7923015,65" id="Fill-8"></path>
                            </g>
                            <path d="M80.593909,246.400004 C61.5181189,246.400004 46,231.700101 46,213.63049 L46.812353,8.01302298 C46.8304859,3.58167453 50.4316759,0 54.8651652,0 L54.8959911,0 C59.3421733,0.0181167149 62.9342969,3.634213 62.916164,8.07643148 L62.103811,213.661288 C62.103811,222.828346 70.3977904,230.310549 80.593909,230.310549 C90.7882143,230.310549 99.0821937,222.828346 99.0821937,213.63049 L99.0821937,123.325913 C99.0821937,100.705383 106.917411,73.7386528 144.242132,73.7386528 L178.749003,73.7386528 C183.195185,73.7386528 186.800002,77.3402557 186.800002,81.7824742 C186.800002,86.2265043 183.195185,89.8281072 178.749003,89.8281072 L144.242132,89.8281072 C123.605101,89.8281072 115.186005,99.5332314 115.186005,123.325913 L115.186005,213.63049 C115.186005,231.700101 99.6696991,246.400004 80.593909,246.400004" id="Fill-14" fill="#FFC53B"></path>
                            <g id="Group-28" transform="translate(0.000000, 83.000000)" fill="#2D3953">
                                <path d="M7.57209302,76.5 C3.3903876,76.5 0,73.1254244 0,68.9632214 C0,47.7668804 7.36744186,22.5 42.471938,22.5 L74.9262016,22.5 C79.107907,22.5 82.5,25.8745756 82.5,30.0367786 C82.5,34.200679 79.107907,37.5752546 74.9262016,37.5752546 L42.471938,37.5752546 C23.0624806,37.5752546 15.144186,46.6686156 15.144186,68.9632214 C15.144186,73.1254244 11.7537984,76.5 7.57209302,76.5" id="Fill-3"></path>
                                <g id="Group-13" transform="translate(52.500000, 0.000000)">
                                    <path d="M9.152505,59.5799535 C7.510305,59.5799535 5.857755,59.0597984 4.460505,57.9887907 C1.11918,55.4238295 0.51198,50.6656899 3.10638,47.3622791 L16.214655,30.6695659 L2.494005,12.3566977 C-0.024495,8.99530233 0.69138,4.25421705 4.08963,1.76429457 C7.48788,-0.725627907 12.28683,-0.017875969 14.803605,3.34181395 L31.981155,26.2695659 C34.02528,28.9982481 33.98388,32.7382481 31.877655,35.4191783 L15.20898,56.650031 C13.699605,58.5720465 11.436405,59.5799535 9.152505,59.5799535" id="Fill-11"></path>
                                </g>
                            </g>
                        </g>
                        <g id="Group-27" transform="translate(46.000000, 0.000000)" fill="#FFC53B">
                            <g id="Group-7" transform="translate(113.000002, 49.600001)">
                                <path d="M8.76267215,63.6926181 C7.01099212,63.6926181 5.24827209,63.1349038 3.75787207,61.9865609 C0.193792018,59.2363895 -0.453887992,54.1346751 2.31347205,50.5927322 L16.2956323,32.6946748 L1.66027204,13.0594745 C-1.026128,9.45536014 -0.262527989,4.37193149 3.36227207,1.70221717 C6.98707212,-0.967497157 12.1059522,-0.210468575 14.7905122,3.39364576 L33.1132325,27.9769604 C35.2936325,30.9026747 35.2494725,34.9127319 33.0028325,37.7872463 L15.2229122,60.5511323 C13.6129122,62.6119324 11.1988322,63.6926181 8.76267215,63.6926181" id="Fill-5"></path>
                            </g>
                        </g>
                    </g>
                </g>
            </g>
        </g>
    </g>
</svg>