<svg xmlns="http://www.w3.org/2000/svg" width="31" height="33" viewBox="0 0 31 33">
    <path fill="#62696A" fill-rule="evenodd" d="M13.218 30.416l.047.001h3.866c.519.008.936.436.929.956-.007.51-.433.927-.95.927h-3.876c-.018.002-.036.002-.054.002-.345 0-.667-.18-.81-.459-.223-.44-.093-.787.005-.955.16-.279.448-.454.77-.47.035-.002.067-.004.12 0zm-1.731-3.41l.055.002h7.295c.519.008.936.436.929.955-.004.252-.106.486-.286.661-.176.171-.411.266-.662.266l-7.3.001-.05.001c-.337 0-.665-.18-.805-.453-.227-.443-.097-.792.002-.96.16-.28.45-.456.773-.47l.049-.003zm3.693-20.44c4.749 0 8.612 3.831 8.612 8.54 0 2.649-.976 4.184-1.891 5.414l-.17.226c-.781 1.042-1.346 1.795-1.348 3.782-.001.526-.422.953-.938.953h-2.33c-.507 0-.92-.422-.92-.941 0-.518.413-.941.92-.941h1.389l.044-.285c.268-1.715 1.006-2.893 1.763-3.91l.088-.118c.799-1.071 1.429-1.917 1.429-4.182 0-3.672-3.02-6.659-6.73-6.659-3.711 0-6.73 2.987-6.73 6.659 0 2.266.632 3.111 1.43 4.182l.089.118c.758 1.019 1.495 2.198 1.762 3.91l.045.285h1.562c.508 0 .92.423.92.941 0 .519-.412.941-.92.941h-2.34c-.516 0-.937-.427-.938-.953-.002-1.988-.568-2.741-1.351-3.782l-.168-.226c-.915-1.231-1.89-2.767-1.89-5.414 0-4.709 3.863-8.54 8.61-8.54zm14.78 8.181c.509 0 .92.413.92.92 0 .508-.411.921-.92.921h-2.475c-.507 0-.92-.413-.92-.92 0-.508.413-.92.92-.92zm-26.565 0c.509 0 .92.413.92.92 0 .508-.411.921-.92.921H.92c-.507 0-.92-.413-.92-.92 0-.508.413-.92.92-.92zm21.907-9.612c.346-.347.953-.348 1.301 0 .174.174.27.405.27.651s-.096.477-.27.651l-1.751 1.75c-.173.174-.405.27-.651.27-.245 0-.476-.096-.65-.27-.174-.173-.27-.405-.27-.65 0-.246.096-.478.27-.65zm-21.867 0c.35-.348.954-.347 1.302 0l1.751 1.75c.174.175.27.406.27.652 0 .245-.096.477-.27.65-.174.175-.405.27-.65.27-.246 0-.478-.095-.652-.27l-1.75-1.75c-.175-.174-.27-.405-.27-.651 0-.245.095-.477.27-.65zM15.18 0c.508 0 .92.413.92.92v2.477c0 .507-.412.92-.92.92s-.92-.413-.92-.92V.92c0-.508.412-.921.92-.921z"/>
</svg>
