<svg xmlns="http://www.w3.org/2000/svg" width="16" height="15" viewBox="0 0 16 15">
    <g fill="none" fill-rule="evenodd">
        <path fill="#FFF" d="M2.788 5.136L15.015 7.995 6.108 17.218z" transform="translate(-1) rotate(46 8.901 11.177)"/>
        <path fill="#BD232A" d="M9.983 5.18l-.327 4.163c-.035.393-.361.691-.723.654-.327-.037-.585-.317-.602-.654l-.327-4.162c-.051-.598.362-1.12.912-1.176.55-.056 1.032.392 1.084.99-.017.055-.017.13-.017.186M9 13c-.556 0-1-.444-1-1s.444-1 1-1c.555 0 1 .444 1 1s-.445 1-1 1m7.695-1.477L10.852 1.111C10.465.412 9.775 0 9 0c-.775 0-1.465.412-1.852 1.111L1.305 11.523c-.404.717-.404 1.577-.017 2.312C1.676 14.57 2.383 15 3.158 15h11.685c.791 0 1.481-.43 1.869-1.165.387-.735.387-1.595-.017-2.312" transform="translate(-1)"/>
    </g>
</svg>
