<svg xmlns="http://www.w3.org/2000/svg" width="31" height="26" viewBox="0 0 31 26">
    <path fill="#62696A" fill-rule="evenodd" d="M21.526 16.883h-3.262c-.004 0-.019-.015-.019-.052v-2.415c.002-.005.013-.016.019-.016h3.262c.473 0 .873-.388.873-.849v-3.17c0-.009.015-.053.054-.053h2.484c.008 0 .054.014.054.052v3.171c0 .461.399.85.873.85h3.262c.015 0 .047.015.054.015v2.415c0 .041-.01.052-.054.052h-3.262c-.498 0-.873.365-.873.85v3.17c0 .008-.016.053-.054.053h-2.484c-.042 0-.054-.011-.054-.053v-3.17c0-.462-.4-.85-.873-.85m8.157-4.164c.254-.755.431-1.496.54-2.26.183-1.541.297-3.802-.824-5.658-.873-1.438-2.022-2.542-3.323-3.193-2.513-1.311-5.237-1.375-7.874-.18-.907.406-2.105 1.397-2.942 2.204-1.16-1.15-2.625-1.949-3.05-2.168C10.14.367 7.858.201 5.784.994 2.783 2.123.49 4.82.076 7.705c-.372 2.748.632 5.902 2.754 8.654 2.29 2.954 7.098 6.084 7.61 6.37.151.072.308.148.47.148.287 0 .597-.158.751-.384.132-.183.18-.404.133-.626-.047-.233-.193-.437-.412-.573-.049-.026-4.92-3.105-7.124-5.939-1.843-2.4-2.731-5.09-2.437-7.383.33-2.28 2.178-4.435 4.6-5.362 1.56-.599 3.31-.46 4.92.394 1.414.744 2.556 1.63 3.133 2.436.18.22.426.346.675.346.29 0 .522-.088.707-.27.53-.514 2.14-2.08 3.1-2.51 2.147-.973 4.275-.926 6.325.142.994.501 1.945 1.426 2.61 2.538.836 1.38.735 3.273.585 4.578-.108.8-.32 1.576-.647 2.366H26.81v-2.323c0-.985-.824-1.786-1.837-1.786H22.49c-1.013 0-1.837.8-1.837 1.786v2.323h-2.39c-.992 0-1.8.784-1.8 1.749v2.415c0 .984.808 1.786 1.8 1.786h2.39v1.61c-.64.458-1.327.941-2.014 1.387l-.447.29c-.256.177-.52.36-.743.54-.48.36-.965.687-1.442.972l-.216.14c-.079.038-.19.112-.29.175-.062.04-.137.09-.168.105-.15-.044-.502-.249-.668-.346l-.153-.11c-.408-.253-.936-.137-1.229.269-.26.396-.142.91.283 1.197l.143.068c.376.233 1.004.622 1.588.622.45 0 .866-.231 1.233-.436l.21-.115.143-.105c.555-.324 1.08-.688 1.6-1.048l.225-.161c.171-.124.332-.24.514-.342l.445-.29c.495-.332.948-.637 1.442-.98.36.407.848.63 1.381.63h2.484c.995 0 1.837-.817 1.837-1.786v-2.323h2.353c1.014 0 1.836-.8 1.836-1.785v-2.417c-.038-.745-.588-1.417-1.317-1.623"/>
</svg>
