<svg xmlns="http://www.w3.org/2000/svg" xmlns:xlink="http://www.w3.org/1999/xlink" width="27" height="30" viewBox="0 0 27 30">
    <defs>
        <path id="prefix__a" d="M0.921 0.341L14.43 0.341 14.43 12 0.921 12z"/>
        <path id="prefix__c" d="M0 0.525L20.629 0.525 20.629 25.504 0 25.504z"/>
    </defs>
    <g fill="none" fill-rule="evenodd">
        <g transform="translate(0 -1) translate(12 18.476)">
            <mask id="prefix__b" fill="#fff">
                <use xlink:href="#prefix__a"/>
            </mask>
            <path fill="#62696A" d="M10.598.341h-.02C9.433.347 8.434.737 7.658 1.474 6.88.754 5.886.375 4.75.375h-.03C3.822.38 2.868.796 2.169 1.487 1.594 2.054.91 3.071.92 4.691c.007 1.185.429 2.2 1.37 3.291.62.717.63.73 1.033 1.103l.615.572c.193.14.426.196.667.16.235-.04.443-.168.58-.36.14-.194.198-.43.16-.666-.037-.237-.166-.444-.332-.559l-.186-.17c-.548-.504-.548-.504-.822-.827l-.36-.423c-.661-.766-.933-1.384-.937-2.13-.005-.809.247-1.48.73-1.944.436-.42.953-.573 1.292-.574.979-.033 1.677.35 2.173 1.152.125.203.322.345.554.4.233.057.474.018.678-.109.122-.076.226-.18.295-.3.486-.809 1.15-1.172 2.16-1.177.333.025.858.144 1.298.56.487.457.747 1.127.752 1.934.005.846-.573 1.867-1.673 2.951-.813.801-1.913 1.635-3.273 2.481-.415-.209-.927-.063-1.167.34-.253.422-.117.972.302 1.225l.43.257c.14.081.297.122.453.122.158 0 .319-.043.459-.128 1.663-.996 3.026-2.014 4.05-3.025 1.493-1.47 2.216-2.855 2.208-4.234C14.413 1.97 12.432.341 10.598.341" mask="url(#prefix__b)"/>
        </g>
        <g transform="translate(0 -1) translate(0 .475)">
            <mask id="prefix__d" fill="#fff">
                <use xlink:href="#prefix__c"/>
            </mask>
            <path fill="#62696A" d="M12.06 13.696c-3.115 0-5.65-2.535-5.65-5.651 0-3.116 2.535-5.651 5.65-5.651 3.117 0 5.653 2.535 5.653 5.65 0 3.117-2.536 5.652-5.652 5.652zm6.884 3.728c.175.216.43.363.73.363.528 0 .955-.426.955-.953 0-.314-.162-.58-.395-.753l.015-.015c-1.1-.842-2.396-1.465-3.893-1.857 1.946-1.361 3.225-3.615 3.225-6.164 0-4.146-3.374-7.52-7.52-7.52-4.146 0-7.52 3.374-7.52 7.52 0 2.549 1.278 4.803 3.225 6.164-2.05.537-3.736 1.496-5.03 2.877C-.24 20.263-.001 24.456.01 24.633c.033.513.465.898.99.87.515-.032.906-.475.874-.99-.001-.035-.184-3.59 2.24-6.165 1.742-1.847 4.415-2.783 7.948-2.783 2.765 0 5.196.734 6.873 1.869l.01-.01z" mask="url(#prefix__d)"/>
        </g>
    </g>
</svg>
