<svg xmlns="http://www.w3.org/2000/svg" width="26" height="28" viewBox="0 0 26 28">
    <path fill="#62696A" fill-rule="evenodd" d="M23.188 12.78c.497 0 .901.403.901.9v11.126c0 1.367-1.121 2.48-2.499 2.48h-6.034c-.497 0-.902-.405-.902-.902V16.66h-3.027v9.725c0 .497-.404.901-.901.901H4.499C3.121 27.285 2 26.173 2 24.806V13.68c0-.497.404-.9.901-.9s.902.403.902.9v11.126c0 .372.312.676.696.676h5.325v-9.724c0-.498.405-.902.902-.902h4.83c.497 0 .902.404.902.902v9.724h5.132c.384 0 .696-.304.696-.676V13.68c0-.497.405-.9.902-.9zM11.621.553c.773-.737 1.985-.74 2.758 0l11.344 10.852c.36.344.372.916.028 1.275-.332.347-.927.36-1.275.028L13.133 1.857c-.075-.071-.19-.071-.265 0L1.524 12.709c-.169.162-.389.25-.623.25h-.02c-.24-.005-.465-.104-.632-.28-.343-.357-.33-.93.03-1.273z"/>
</svg>
