<svg xmlns="http://www.w3.org/2000/svg" width="31" height="24" viewBox="0 0 31 24">
    <path fill="#62696A" fill-rule="evenodd" d="M29.883 0c.417 0 .756.34.756.757v19.66c.001 1.956-1.588 3.549-3.544 3.55H4.117C1.848 23.967.002 22.12 0 19.852v-5.557c0-.418.34-.757.757-.757s.756.339.756.757v5.557c.024.69.317 1.335.826 1.809.508.476 1.178.734 1.865.7 1.362-.047 2.465-1.151 2.512-2.513V.757c0-.417.34-.757.757-.757zm-.767 1.514H8.233V19.85c.001.955-.327 1.87-.929 2.603h19.778c1.122 0 2.034-.913 2.034-2.034V1.514zM4.117 11.157c.417 0 .757.34.757.756v7.927c0 .418-.34.757-.757.757-.418 0-.757-.339-.757-.757v-7.927c0-.416.34-.756.757-.756zm9.598 1.663c.418 0 .758.369.758.824v4.564c0 .455-.34.825-.758.825-.417 0-.756-.37-.756-.825v-4.564c0-.455.339-.824.756-.824zm6.904-2.995c.417 0 .757.202.757.45v8.306c0 .249-.34.452-.757.452s-.757-.203-.757-.452v-8.305c0-.25.34-.451.757-.451zm-3.333-4.218c.418 0 .757.295.757.66v12.107c0 .363-.339.658-.757.658-.417 0-.756-.295-.756-.658V6.266c0-.364.339-.659.756-.659zm6.809-.162c.417 0 .757.296.757.66v12.107c0 .363-.34.66-.757.66s-.757-.297-.757-.66V6.104c0-.363.34-.659.757-.659z"/>
</svg>
